<svg xmlns="http://www.w3.org/2000/svg"  viewBox="0 0 50 50" width="50px" height="50px">

    <g id="arrowRight">
        <path fill-rule="evenodd" clip-rule="evenodd" d="M2.33334 14.0002C2.33334 13.3559 2.85568 12.8335 3.5 12.8335H24.5C25.1443 12.8335 25.6667 13.3559 25.6667 14.0002C25.6667 14.6446 25.1443 15.1669 24.5 15.1669H3.5C2.85568 15.1669 2.33334 14.6446 2.33334 14.0002Z" fill="currentColor"/>
        <path fill-rule="evenodd" clip-rule="evenodd" d="M16.6751 6.1752C17.1306 5.71959 17.8694 5.71959 18.325 6.1752L25.325 13.1753C25.7805 13.6308 25.7805 14.3696 25.325 14.8252L18.325 21.8252C17.8694 22.2807 17.1306 22.2807 16.6751 21.8252C16.2195 21.3696 16.2195 20.6308 16.6751 20.1753L22.8501 14.0002L16.6751 7.82512C16.2195 7.3695 16.2195 6.63082 16.6751 6.1752Z" fill="currentColor"/>
    </g>

    <g id="moon">
        <g>
            <g>
                <path fill="#353535" d="M12.2,15.267c0-3.322,0.896-6.43,2.448-9.113c0.376-0.649-0.191-1.451-0.918-1.265
                    C5.35,7.041-0.711,14.961,0.067,24.179c0.736,8.701,7.768,15.803,16.463,16.617c6.033,0.565,11.517-1.811,15.221-5.848
                    c0.5-0.546,0.073-1.432-0.666-1.401c-0.196,0.009-0.395,0.013-0.594,0.013C20.389,33.56,12.2,25.371,12.2,15.267z"/>
            </g>
        </g>
        <g>
            <path fill="#353535" d="M23.144,5.6l0.917,2.633l2.788,0.061c0.354,0.008,0.498,0.456,0.218,0.669l-2.221,1.687l0.805,2.669
                c0.104,0.338-0.279,0.614-0.568,0.414l-2.292-1.59l-2.29,1.59c-0.29,0.201-0.669-0.076-0.569-0.414l0.805-2.669l-2.221-1.687
                c-0.28-0.213-0.134-0.661,0.218-0.669l2.788-0.061L22.44,5.6C22.556,5.267,23.027,5.267,23.144,5.6z"/>
        </g>
        <g>
            <path fill="#353535" d="M40.26,26.44l0.881,2.53l2.679,0.057c0.389,0.009,0.549,0.502,0.24,0.737l-2.134,1.621l0.772,2.564
                c0.111,0.371-0.309,0.677-0.627,0.454l-2.201-1.527l-2.2,1.527c-0.318,0.223-0.739-0.083-0.626-0.454l0.772-2.564l-2.133-1.621
                c-0.31-0.234-0.149-0.729,0.238-0.737l2.679-0.057l0.884-2.53C39.612,26.074,40.131,26.074,40.26,26.44z"/>
        </g>
        <g>
            <path fill="#353535" d="M39.926,8.098l1.325,3.799l4.021,0.086c0.452,0.01,0.639,0.584,0.278,0.858l-3.204,2.434l1.162,3.853
                c0.131,0.433-0.356,0.788-0.729,0.529l-3.306-2.294l-3.305,2.294c-0.372,0.259-0.86-0.097-0.729-0.529l1.161-3.853l-3.205-2.434
                c-0.358-0.273-0.172-0.849,0.279-0.858l4.022-0.086l1.324-3.799C39.173,7.672,39.776,7.672,39.926,8.098z"/>
        </g>
    </g>

    <g id="sun">
        <path d="M256,144c-61.75,0-112,50.25-112,112s50.25,112,112,112s112-50.25,112-112S317.75,144,256,144z M256,336    c-44.188,0-80-35.812-80-80c0-44.188,35.812-80,80-80c44.188,0,80,35.812,80,80C336,300.188,300.188,336,256,336z M256,112    c8.833,0,16-7.167,16-16V64c0-8.833-7.167-16-16-16s-16,7.167-16,16v32C240,104.833,247.167,112,256,112z M256,400    c-8.833,0-16,7.167-16,16v32c0,8.833,7.167,16,16,16s16-7.167,16-16v-32C272,407.167,264.833,400,256,400z M380.438,154.167    l22.625-22.625c6.25-6.25,6.25-16.375,0-22.625s-16.375-6.25-22.625,0l-22.625,22.625c-6.25,6.25-6.25,16.375,0,22.625    S374.188,160.417,380.438,154.167z M131.562,357.834l-22.625,22.625c-6.25,6.249-6.25,16.374,0,22.624s16.375,6.25,22.625,0    l22.625-22.624c6.25-6.271,6.25-16.376,0-22.625C147.938,351.583,137.812,351.562,131.562,357.834z M112,256    c0-8.833-7.167-16-16-16H64c-8.833,0-16,7.167-16,16s7.167,16,16,16h32C104.833,272,112,264.833,112,256z M448,240h-32    c-8.833,0-16,7.167-16,16s7.167,16,16,16h32c8.833,0,16-7.167,16-16S456.833,240,448,240z M131.541,154.167    c6.251,6.25,16.376,6.25,22.625,0c6.251-6.25,6.251-16.375,0-22.625l-22.625-22.625c-6.25-6.25-16.374-6.25-22.625,0    c-6.25,6.25-6.25,16.375,0,22.625L131.541,154.167z M380.459,357.812c-6.271-6.25-16.376-6.25-22.625,0    c-6.251,6.25-6.271,16.375,0,22.625l22.625,22.625c6.249,6.25,16.374,6.25,22.624,0s6.25-16.375,0-22.625L380.459,357.812z" fill="white"/>
    </g>

    <g id="photoshop">
        <path fill="#03A9F4" d="M6,10c0-2.209,1.791-4,4-4h28c2.209,0,4,1.791,4,4v28c0,2.209-1.791,4-4,4H10c-2.209,0-4-1.791-4-4V10z"/><path fill="#020F16" d="M20.016,19.174h-2.002v4.434h1.973c0.547,0,0.97-0.179,1.27-0.537s0.449-0.879,0.449-1.563c0-0.71-0.153-1.274-0.459-1.694S20.53,19.181,20.016,19.174z"/><path fill="#020F16" d="M9,9v30h30V9H9z M23.365,24.789C22.539,25.597,21.393,26,19.928,26h-1.914v5h-2.871V16.781h4.844c1.406,0,2.528,0.437,3.364,1.309s1.255,2.005,1.255,3.398S24.192,23.981,23.365,24.789z M32.682,30.336c-0.709,0.573-1.641,0.859-2.793,0.859c-0.775,0-1.459-0.151-2.051-0.454s-1.057-0.725-1.392-1.265s-0.503-1.123-0.503-1.748h2.627c0.014,0.481,0.125,0.843,0.337,1.084s0.558,0.361,1.04,0.361c0.742,0,1.113-0.335,1.113-1.006c0-0.234-0.112-0.451-0.337-0.649S30,27.052,29.225,26.713c-1.139-0.462-1.922-0.94-2.349-1.436s-0.64-1.11-0.64-1.846c0-0.925,0.334-1.688,1.001-2.29s1.552-0.903,2.651-0.903c1.158,0,2.086,0.3,2.783,0.898s1.045,1.403,1.045,2.412h-2.764c0-0.859-0.357-1.289-1.074-1.289c-0.293,0-0.533,0.091-0.723,0.273s-0.283,0.437-0.283,0.762c0,0.234,0.104,0.441,0.313,0.62s0.699,0.435,1.475,0.767c1.127,0.417,1.922,0.881,2.388,1.392s0.698,1.174,0.698,1.987C33.746,29.005,33.391,29.763,32.682,30.336z"/>
    </g>

    <g id="illustrator">
        <path fill="#FF5722" d="M6,10c0-2.209,1.791-4,4-4h28c2.209,0,4,1.791,4,4v28c0,2.209-1.791,4-4,4H10c-2.209,0-4-1.791-4-4V10z"/>
        <path fill="#1C0802" d="M9,9v30h30V9H9z M23.691,31l-0.762-2.91h-3.916L18.252,31h-3.037l4.443-14.219h2.627L26.758,31H23.691z M30.85,31h-2.773V20.434h2.773V31z M30.552,18.754c-0.271,0.28-0.636,0.42-1.099,0.42s-0.828-0.14-1.099-0.42s-0.405-0.632-0.405-1.055c0-0.43,0.137-0.781,0.41-1.055s0.639-0.41,1.094-0.41s0.82,0.137,1.094,0.41s0.41,0.625,0.41,1.055C30.957,18.122,30.822,18.474,30.552,18.754z"/>
        <path fill="#1C0802" d="M19.639 25.697L22.295 25.697 20.967 20.629z"/>
    </g>

    <g id="afterEffect">
        <path fill="#b388ff" d="M6,10c0-2.209,1.791-4,4-4h28c2.209,0,4,1.791,4,4v28c0,2.209-1.791,4-4,4H10c-2.209,0-4-1.791-4-4 V10z"/><path fill="#170b40" d="M9,9v30h30V9H9z"/><path fill="#b388ff" d="M21.183 27.965h-4.555l-.866 2.846H13L17.694 17h2.407l4.719 13.81h-2.762L21.183 27.965zM17.33 25.66h3.152l-1.584-5.17L17.33 25.66zM30.146 31c-.728 0-1.379-.13-1.953-.389-.575-.259-1.062-.614-1.464-1.063-.402-.449-.707-.975-.918-1.579-.21-.604-.316-1.25-.316-1.94v-.37c0-.778.103-1.491.308-2.139.204-.648.496-1.206.875-1.674.377-.468.837-.833 1.376-1.096.54-.262 1.145-.394 1.814-.394.675 0 1.27.122 1.784.365.514.243.945.585 1.295 1.025.349.439.612.969.788 1.589S34 24.645 34 25.404v1.167h-5.966c.04.335.123.639.247.91.124.272.283.504.476.697s.42.343.679.451c.26.108.552.161.875.161.456 0 .878-.093 1.264-.28.387-.186.719-.476.996-.868l1.23 1.508c-.15.234-.338.462-.563.683-.225.221-.491.419-.797.593-.306.174-.65.313-1.035.417C31.022 30.948 30.603 31 30.146 31zM29.861 22.577c-.272 0-.509.052-.715.157-.205.104-.381.25-.528.436-.147.186-.267.409-.359.669-.092.259-.158.547-.198.863h3.481v-.218c-.006-.272-.042-.525-.109-.759-.066-.234-.167-.436-.303-.607-.136-.171-.309-.303-.519-.398C30.398 22.625 30.149 22.577 29.861 22.577z"/>
    </g>

    <g id="figma">
        <path fill="#e64a19" d="M26,17h-8c-3.866,0-7-3.134-7-7v0c0-3.866,3.134-7,7-7h8V17z"/>
        <path fill="#7c4dff" d="M25,31h-7c-3.866,0-7-3.134-7-7v0c0-3.866,3.134-7,7-7h7V31z"/>
        <path fill="#66bb6a" d="M18,45L18,45c-3.866,0-7-3.134-7-7v0c0-3.866,3.134-7,7-7h7v7C25,41.866,21.866,45,18,45z"/>
        <path fill="#ff7043" d="M32,17h-7V3h7c3.866,0,7,3.134,7,7v0C39,13.866,35.866,17,32,17z"/>
        <circle cx="32" cy="24" r="7" fill="#29b6f6"/>
    </g>

    <g id="aboutWhatsapp">
        <path d="M0 26L1.83763 19.327C0.701528 17.3683 0.10554 15.1502 0.111748 12.8826C0.111748 5.77709 5.92263 0 13.0559 0C16.52 0 19.7731 1.34078 22.213 3.77519C24.659 6.2096 26.0062 9.44724 26 12.8888C26 19.9943 20.1891 25.7714 13.0497 25.7714H13.0434C10.8768 25.7714 8.74737 25.2277 6.85386 24.202L0 26ZM7.1829 21.8726L7.57402 22.1074C9.2254 23.0836 11.1189 23.5965 13.0497 23.6027H13.0559C18.9847 23.6027 23.8147 18.8018 23.8147 12.895C23.8147 10.0342 22.6972 7.34648 20.6671 5.31987C18.637 3.29325 15.9303 2.18108 13.0559 2.18108C7.12702 2.1749 2.29704 6.97576 2.29704 12.8826C2.29704 14.903 2.86198 16.8741 3.94221 18.5794L4.19675 18.9872L3.11031 22.9354L7.1829 21.8726Z" fill="url(#paint0_linear_11_6316)"/>
        <path fill-rule="evenodd" clip-rule="evenodd" d="M9.82129 7.49537C9.57917 6.95782 9.32464 6.94546 9.09493 6.93928C8.90869 6.93311 8.6914 6.93311 8.47411 6.93311C8.25682 6.93311 7.90917 7.01343 7.61117 7.33472C7.31318 7.65601 6.48128 8.43453 6.48128 10.0225C6.48128 11.6042 7.64221 13.1365 7.80363 13.3528C7.96504 13.569 10.0448 16.9241 13.3289 18.2154C16.0605 19.2905 16.6193 19.0743 17.2091 19.0187C17.7988 18.963 19.1212 18.2401 19.3943 17.4863C19.6613 16.7325 19.6613 16.0899 19.5806 15.954C19.4999 15.8181 19.2826 15.7378 18.9598 15.5771C18.6369 15.4165 17.0476 14.638 16.7497 14.5267C16.4517 14.4217 16.2344 14.3661 16.0233 14.6874C15.806 15.0087 15.1852 15.7316 14.9989 15.9478C14.8127 16.1641 14.6202 16.1888 14.2974 16.0282C13.9746 15.8675 12.9316 15.5277 11.6962 14.4279C10.7339 13.5752 10.082 12.5187 9.89579 12.1974C9.70954 11.8761 9.87717 11.7031 10.0386 11.5424C10.1814 11.4003 10.3614 11.1655 10.5228 10.9802C10.6842 10.7948 10.7401 10.6589 10.8456 10.4426C10.9512 10.2264 10.9015 10.041 10.8208 9.88035C10.7401 9.72588 10.1069 8.13178 9.82129 7.49537Z" fill="white"/>
        <defs>
        <linearGradient id="paint0_linear_11_6316" x1="13.0025" y1="25.9975" x2="13.0025" y2="0" gradientUnits="userSpaceOnUse">
        <stop stop-color="#F9F9F9"/>
        <stop offset="1" stop-color="white"/>
        </linearGradient>
        </defs>
    </g>

    <g id="aboutInstagram">
        <path d="M13.0052 2.34253C9.53333 2.34253 9.12579 2.35801 7.75357 2.41992C6.48452 2.47668 5.79841 2.68823 5.33928 2.86882C4.73055 3.10617 4.29722 3.3848 3.84325 3.83886C3.38929 4.29292 3.10556 4.72633 2.87341 5.33519C2.69802 5.7944 2.48135 6.48065 2.4246 7.74995C2.3627 9.12245 2.34722 9.53007 2.34722 13.0026C2.34722 16.4751 2.3627 16.8827 2.4246 18.2552C2.48135 19.5245 2.69286 20.2108 2.87341 20.67C3.11071 21.2788 3.38929 21.7122 3.84325 22.1663C4.29722 22.6204 4.73055 22.9041 5.33928 23.1363C5.79841 23.3118 6.48452 23.5285 7.75357 23.5852C9.12579 23.6472 9.53333 23.6626 13.0052 23.6626C16.477 23.6626 16.8845 23.6472 18.2567 23.5852C19.5258 23.5285 20.2119 23.3169 20.671 23.1363C21.2798 22.899 21.7131 22.6204 22.1671 22.1663C22.621 21.7122 22.9048 21.2788 23.1369 20.67C23.3123 20.2108 23.529 19.5245 23.5857 18.2552C23.6476 16.8827 23.6631 16.4751 23.6631 13.0026C23.6631 9.53007 23.6476 9.12245 23.5857 7.74995C23.529 6.48065 23.3175 5.7944 23.1369 5.33519C22.8996 4.72633 22.621 4.29292 22.1671 3.83886C21.7131 3.3848 21.2798 3.10101 20.671 2.86882C20.2119 2.69339 19.5258 2.47668 18.2567 2.41992C16.8845 2.35285 16.4718 2.34253 13.0052 2.34253ZM13.0052 0C16.5337 0 16.9774 0.0154793 18.3651 0.0773963C19.7476 0.139313 20.6917 0.361183 21.5171 0.681087C22.3734 1.01131 23.0956 1.46021 23.8179 2.18258C24.5401 2.90494 24.9837 3.63247 25.319 4.48383C25.6389 5.30939 25.8607 6.25362 25.9226 7.6416C25.9845 9.02441 26 9.46815 26 12.9974C26 16.5267 25.9845 16.9704 25.9226 18.3584C25.8607 19.7412 25.6389 20.6855 25.319 21.5162C24.9889 22.3727 24.5401 23.0951 23.8179 23.8174C23.0956 24.5398 22.3683 24.9835 21.5171 25.3189C20.6917 25.6388 19.7476 25.8607 18.3599 25.9226C16.9722 25.9845 16.5337 26 13 26C9.46627 26 9.02778 25.9845 7.64008 25.9226C6.25754 25.8607 5.31349 25.6388 4.48294 25.3189C3.62659 24.9887 2.90436 24.5398 2.18214 23.8174C1.45992 23.0951 1.01627 22.3675 0.680952 21.5162C0.361111 20.6906 0.139286 19.7464 0.0773811 18.3584C0.0154762 16.9704 0 16.5319 0 12.9974C0 9.46299 0.0154762 9.02441 0.0773811 7.63644C0.139286 6.25362 0.361111 5.30939 0.680952 4.47867C1.01111 3.62215 1.45992 2.89978 2.18214 2.17742C2.90436 1.45505 3.63175 1.01131 4.48294 0.675928C5.30833 0.356023 6.25238 0.134154 7.64008 0.0722366C9.03294 0.0154793 9.47659 0 13.0052 0Z" fill="white"/>
        <path d="M13.0052 6.32568C16.6885 6.32568 19.6806 9.31318 19.6806 13.0024C19.6806 16.6916 16.6937 19.6791 13.0052 19.6791C9.31669 19.6791 6.32979 16.6916 6.32979 13.0024C6.32979 9.31318 9.31669 6.32568 13.0052 6.32568ZM13.0052 17.3314C15.3988 17.3314 17.3385 15.3914 17.3385 12.9972C17.3385 10.6031 15.3988 8.66305 13.0052 8.66305C10.6115 8.66305 8.67185 10.6031 8.67185 12.9972C8.67185 15.3914 10.6115 17.3314 13.0052 17.3314Z" fill="white"/>
        <path d="M6.06667 7.61562C5.20624 7.61562 4.50873 6.91784 4.50873 6.05708C4.50873 5.19632 5.20624 4.49854 6.06667 4.49854C6.92709 4.49854 7.6246 5.19632 7.6246 6.05708C7.6246 6.91784 6.92709 7.61562 6.06667 7.61562Z" fill="white"/>
    </g>

    <g id="aboutTelegram">
        <path fill-rule="evenodd" clip-rule="evenodd" d="M7.13174 16.0549C11.7247 14.0538 14.7874 12.7346 16.3198 12.0972C20.6952 10.2773 21.6044 9.9612 22.197 9.95076C22.3273 9.94847 22.6187 9.98077 22.8075 10.1339C22.9669 10.2633 23.0107 10.438 23.0317 10.5606C23.0527 10.6832 23.0788 10.9626 23.0581 11.1808C22.821 13.6721 21.795 19.7178 21.2731 22.508C21.0522 23.6887 20.6173 24.0846 20.1963 24.1233C19.2814 24.2075 18.5867 23.5187 17.7005 22.9378C16.3138 22.0288 15.5305 21.463 14.1845 20.576C12.6289 19.5509 13.6373 18.9875 14.5238 18.0667C14.7558 17.8258 18.787 14.1591 18.8651 13.8264C18.8748 13.7848 18.8839 13.6298 18.7917 13.5479C18.6996 13.466 18.5637 13.494 18.4655 13.5163C18.3265 13.5479 16.1112 15.012 11.8199 17.9088C11.1911 18.3406 10.6216 18.5509 10.1113 18.5399C9.54876 18.5278 8.46666 18.2219 7.66222 17.9604C6.67555 17.6396 5.89137 17.4701 5.95965 16.9254C5.99522 16.6417 6.38591 16.3515 7.13174 16.0549Z" fill="white"/>
    </g>
        
    <g id="servicesVideo">
        <path d="M32.5 0.5625C41.5307 0.79975 49.052 3.9243 55.0638 9.93616C61.0757 15.948 64.2002 23.4693 64.4375 32.5C64.2002 41.5307 61.0757 49.052 55.0638 55.0638C49.052 61.0757 41.5307 64.2002 32.5 64.4375C23.4693 64.2002 15.948 61.0757 9.93616 55.0638C3.9243 49.052 0.79975 41.5307 0.5625 32.5C0.79975 23.4693 3.9243 15.948 9.93616 9.93616C15.948 3.9243 23.4693 0.79975 32.5 0.5625ZM32.5 59.875C40.2471 59.6849 46.6985 57.0113 51.8541 51.8541C57.0097 46.697 59.6834 40.2456 59.875 32.5C59.6849 24.7529 57.0113 18.3015 51.8541 13.1459C46.697 7.99025 40.2456 5.31663 32.5 5.125C24.7529 5.3151 18.3015 7.98873 13.1459 13.1459C7.99025 18.303 5.31663 24.7544 5.125 32.5C5.3151 40.2471 7.98873 46.6985 13.1459 51.8541C18.303 57.0097 24.7544 59.6834 32.5 59.875ZM29.0781 42.1953L43.6918 32.5L29.0781 22.8047V42.1953ZM29.8629 17.8156L47.6133 29.6507C48.6109 30.364 49.1098 31.3145 49.1098 32.5023C49.1098 33.6901 48.6109 34.6406 47.6133 35.3538L29.8629 47.189C29.2926 47.5692 28.6987 47.7714 28.0812 47.7958C27.4638 47.8201 26.8813 47.6772 26.3338 47.3669C25.7863 47.0567 25.3468 46.6407 25.0152 46.1191C24.6837 45.5974 24.5171 45.0035 24.5156 44.3374V20.6694C24.5156 20.0033 24.6822 19.4094 25.0152 18.8878C25.3483 18.3661 25.7878 17.9502 26.3338 17.6399C26.8798 17.3297 27.4622 17.1867 28.0812 17.2111C28.7002 17.2354 29.2941 17.4377 29.8629 17.8179V17.8156Z" fill="#2157F2"/>
    </g>

    <g id="servicesDesign">
        <path d="M7.38144 45.6342L21.4021 53.7279L37.5896 25.6889L23.5689 17.5951L7.38144 45.6342ZM5.64706 49.9701L8.03125 60.6654L18.5092 57.3401L5.64706 49.9701ZM25.8814 13.5483L39.9021 21.642L44.0207 14.5588L30 6.46506L25.8814 13.5483ZM0.515625 48.2358L28.2656 0.179688L50.3061 12.8984L22.5561 60.9545L4.63419 66.5924L0.515625 48.2358ZM28.2656 66.5924V61.9674H60.6406V66.5924H28.2656Z" fill="#2157F2"/>
    </g>

    <g id="servicesDevelop">
        <path d="M16.0938 5.125V59.875H11.5312V5.125H4.6875V59.875H50.3125V5.125H16.0938ZM2.40625 0.5625H52.5938C53.2599 0.5625 53.8066 0.776177 54.234 1.20353C54.6613 1.63089 54.875 2.17763 54.875 2.84375V62.1562C54.875 62.8224 54.6613 63.3691 54.234 63.7965C53.8066 64.2238 53.2599 64.4375 52.5938 64.4375H2.40625C1.74013 64.4375 1.19339 64.2238 0.766032 63.7965C0.338677 63.3691 0.125 62.8224 0.125 62.1562V2.84375C0.125 2.17763 0.338677 1.63089 0.766032 1.20353C1.19339 0.776177 1.74013 0.5625 2.40625 0.5625ZM25.2188 14.25H38.9062C40.4271 14.25 41.1875 15.0104 41.1875 16.5312C41.1875 18.0521 40.4271 18.8125 38.9062 18.8125H25.2188C23.6979 18.8125 22.9375 18.0521 22.9375 16.5312C22.9375 15.0104 23.6979 14.25 25.2188 14.25ZM25.2188 27.9375H38.9062C40.4271 27.9375 41.1875 28.6979 41.1875 30.2188C41.1875 31.7396 40.4271 32.5 38.9062 32.5H25.2188C23.6979 32.5 22.9375 31.7396 22.9375 30.2188C22.9375 28.6979 23.6979 27.9375 25.2188 27.9375ZM25.2188 41.625H38.9062C40.4271 41.625 41.1875 42.3854 41.1875 43.9062C41.1875 45.4271 40.4271 46.1875 38.9062 46.1875H25.2188C23.6979 46.1875 22.9375 45.4271 22.9375 43.9062C22.9375 42.3854 23.6979 41.625 25.2188 41.625Z" fill="#2157F2"/>
    </g>

    <g id="instagramColor">
        <path fill="#304ffe" d="M41.67,13.48c-0.4,0.26-0.97,0.5-1.21,0.77c-0.09,0.09-0.14,0.19-0.12,0.29v1.03l-0.3,1.01l-0.3,1l-0.33,1.1 l-0.68,2.25l-0.66,2.22l-0.5,1.67c0,0.26-0.01,0.52-0.03,0.77c-0.07,0.96-0.27,1.88-0.59,2.74c-0.19,0.53-0.42,1.04-0.7,1.52 c-0.1,0.19-0.22,0.38-0.34,0.56c-0.4,0.63-0.88,1.21-1.41,1.72c-0.41,0.41-0.86,0.79-1.35,1.11c0,0,0,0-0.01,0 c-0.08,0.07-0.17,0.13-0.27,0.18c-0.31,0.21-0.64,0.39-0.98,0.55c-0.23,0.12-0.46,0.22-0.7,0.31c-0.05,0.03-0.11,0.05-0.16,0.07 c-0.57,0.27-1.23,0.45-1.89,0.54c-0.04,0.01-0.07,0.01-0.11,0.02c-0.4,0.07-0.79,0.13-1.19,0.16c-0.18,0.02-0.37,0.03-0.55,0.03 l-0.71-0.04l-3.42-0.18c0-0.01-0.01,0-0.01,0l-1.72-0.09c-0.13,0-0.27,0-0.4-0.01c-0.54-0.02-1.06-0.08-1.58-0.19 c-0.01,0-0.01,0-0.01,0c-0.95-0.18-1.86-0.5-2.71-0.93c-0.47-0.24-0.93-0.51-1.36-0.82c-0.18-0.13-0.35-0.27-0.52-0.42 c-0.48-0.4-0.91-0.83-1.31-1.27c-0.06-0.06-0.11-0.12-0.16-0.18c-0.06-0.06-0.12-0.13-0.17-0.19c-0.38-0.48-0.7-0.97-0.96-1.49 c-0.24-0.46-0.43-0.95-0.58-1.49c-0.06-0.19-0.11-0.37-0.15-0.57c-0.01-0.01-0.02-0.03-0.02-0.05c-0.1-0.41-0.19-0.84-0.24-1.27 c-0.06-0.33-0.09-0.66-0.09-1c-0.02-0.13-0.02-0.27-0.02-0.4l1.91-2.95l1.87-2.88l0.85-1.31l0.77-1.18l0.26-0.41v-1.03 c0.02-0.23,0.03-0.47,0.02-0.69c-0.01-0.7-0.15-1.38-0.38-2.03c-0.22-0.69-0.53-1.34-0.85-1.94c-0.38-0.69-0.78-1.31-1.11-1.87 C14,7.4,13.66,6.73,13.75,6.26C14.47,6.09,15.23,6,16,6h16c4.18,0,7.78,2.6,9.27,6.26C41.43,12.65,41.57,13.06,41.67,13.48z"/><path fill="#4928f4" d="M42,16v0.27l-1.38,0.8l-0.88,0.51l-0.97,0.56l-1.94,1.13l-1.9,1.1l-1.94,1.12l-0.77,0.45 c0,0.48-0.12,0.92-0.34,1.32c-0.31,0.58-0.83,1.06-1.49,1.47c-0.67,0.41-1.49,0.74-2.41,0.98c0,0,0-0.01-0.01,0 c-3.56,0.92-8.42,0.5-10.78-1.26c-0.66-0.49-1.12-1.09-1.32-1.78c-0.06-0.23-0.09-0.48-0.09-0.73v-7.19 c0.01-0.15-0.09-0.3-0.27-0.45c-0.54-0.43-1.81-0.84-3.23-1.25c-1.11-0.31-2.3-0.62-3.3-0.92c-0.79-0.24-1.46-0.48-1.86-0.71 c0.18-0.35,0.39-0.7,0.61-1.03c1.4-2.05,3.54-3.56,6.02-4.13C14.47,6.09,15.23,6,16,6h10.8c5.37,0.94,10.32,3.13,14.47,6.26 c0.16,0.39,0.3,0.8,0.4,1.22c0.18,0.66,0.29,1.34,0.32,2.05C42,15.68,42,15.84,42,16z"/><path fill="#6200ea" d="M42,16v4.41l-0.22,0.68l-0.75,2.33l-0.78,2.4l-0.41,1.28l-0.38,1.19l-0.37,1.13l-0.36,1.12l-0.19,0.59 l-0.25,0.78c0,0.76-0.02,1.43-0.07,2c-0.01,0.06-0.02,0.12-0.02,0.18c-0.06,0.53-0.14,0.98-0.27,1.36 c-0.01,0.06-0.03,0.12-0.05,0.17c-0.26,0.72-0.65,1.18-1.23,1.48c-0.14,0.08-0.3,0.14-0.47,0.2c-0.53,0.18-1.2,0.27-2.02,0.32 c-0.6,0.04-1.29,0.05-2.07,0.05H31.4l-1.19-0.05L30,37.61l-2.17-0.09l-2.2-0.09l-7.25-0.3l-1.88-0.08h-0.26 c-0.78-0.01-1.45-0.06-2.03-0.14c-0.84-0.13-1.49-0.35-1.98-0.68c-0.7-0.45-1.11-1.11-1.35-2.03c-0.06-0.22-0.11-0.45-0.14-0.7 c-0.1-0.58-0.15-1.25-0.18-2c0-0.15,0-0.3-0.01-0.46c-0.01-0.01,0-0.01,0-0.01v-0.58c-0.01-0.29-0.01-0.59-0.01-0.9l0.05-1.61 l0.03-1.15l0.04-1.34v-0.19l0.07-2.46l0.07-2.46l0.07-2.31l0.06-2.27l0.02-0.6c0-0.31-1.05-0.49-2.22-0.64 c-0.93-0.12-1.95-0.23-2.56-0.37c0.05-0.23,0.1-0.46,0.16-0.68c0.18-0.72,0.45-1.4,0.79-2.05c0.18-0.35,0.39-0.7,0.61-1.03 c2.16-0.95,4.41-1.69,6.76-2.17c2.06-0.43,4.21-0.66,6.43-0.66c7.36,0,14.16,2.49,19.54,6.69c0.52,0.4,1.03,0.83,1.53,1.28 C42,15.68,42,15.84,42,16z"/><path fill="#673ab7" d="M42,18.37v4.54l-0.55,1.06l-1.05,2.05l-0.56,1.08l-0.51,0.99l-0.22,0.43c0,0.31,0,0.61-0.02,0.9 c0,0.43-0.02,0.84-0.05,1.22c-0.04,0.45-0.1,0.86-0.16,1.24c-0.15,0.79-0.36,1.47-0.66,2.03c-0.04,0.07-0.08,0.14-0.12,0.2 c-0.11,0.18-0.24,0.35-0.38,0.51c-0.18,0.22-0.38,0.41-0.61,0.57c-0.34,0.26-0.74,0.47-1.2,0.63c-0.57,0.21-1.23,0.35-2.01,0.43 c-0.51,0.05-1.07,0.08-1.68,0.08l-0.42,0.02l-2.08,0.12h-0.01L27.5,36.6l-2.25,0.13l-3.1,0.18l-3.77,0.22l-0.55,0.03 c-0.51,0-0.99-0.03-1.45-0.09c-0.05-0.01-0.09-0.02-0.14-0.02c-0.68-0.11-1.3-0.29-1.86-0.54c-0.68-0.3-1.27-0.7-1.77-1.18 c-0.44-0.43-0.82-0.92-1.13-1.47c-0.07-0.13-0.14-0.25-0.2-0.39c-0.3-0.59-0.54-1.25-0.72-1.97c-0.03-0.12-0.06-0.25-0.08-0.38 c-0.06-0.23-0.11-0.47-0.14-0.72c-0.11-0.64-0.17-1.32-0.2-2.03v-0.01c-0.01-0.29-0.02-0.57-0.02-0.87l-0.49-1.17l-0.07-0.18 L9.5,25.99L8.75,24.2l-0.12-0.29l-0.72-1.73l-0.8-1.93c0,0,0,0-0.01,0L6.29,18.3L6,17.59V16c0-0.63,0.06-1.25,0.17-1.85 c0.05-0.23,0.1-0.46,0.16-0.68c0.85-0.49,1.74-0.94,2.65-1.34c2.08-0.93,4.31-1.62,6.62-2.04c1.72-0.31,3.51-0.48,5.32-0.48 c7.31,0,13.94,2.65,19.12,6.97c0.2,0.16,0.39,0.32,0.58,0.49C41.09,17.48,41.55,17.91,42,18.37z"/><path fill="#8e24aa" d="M42,21.35v5.14l-0.57,1.19l-1.08,2.25l-0.01,0.03c0,0.43-0.02,0.82-0.05,1.17c-0.1,1.15-0.38,1.88-0.84,2.33 c-0.33,0.34-0.74,0.53-1.25,0.63c-0.03,0.01-0.07,0.01-0.1,0.02c-0.16,0.03-0.33,0.05-0.51,0.05c-0.62,0.06-1.35,0.02-2.19-0.04 c-0.09,0-0.19-0.01-0.29-0.02c-0.61-0.04-1.26-0.08-1.98-0.11c-0.39-0.01-0.8-0.02-1.22-0.02h-0.02l-1.01,0.08h-0.01l-2.27,0.16 l-2.59,0.2l-0.38,0.03l-3.03,0.22l-1.57,0.12l-1.55,0.11c-0.27,0-0.53,0-0.79-0.01c0,0-0.01-0.01-0.01,0 c-1.13-0.02-2.14-0.09-3.04-0.26c-0.83-0.14-1.56-0.36-2.18-0.69c-0.64-0.31-1.17-0.75-1.6-1.31c-0.41-0.55-0.71-1.24-0.9-2.07 c0-0.01,0-0.01,0-0.01c-0.14-0.67-0.22-1.45-0.22-2.33l-0.15-0.27L9.7,26.35l-0.13-0.22L9.5,25.99l-0.93-1.65l-0.46-0.83 l-0.58-1.03l-1-1.79L6,19.75v-3.68c0.88-0.58,1.79-1.09,2.73-1.55c1.14-0.58,2.32-1.07,3.55-1.47c1.34-0.44,2.74-0.79,4.17-1.02 c1.45-0.24,2.94-0.36,4.47-0.36c6.8,0,13.04,2.43,17.85,6.47c0.22,0.17,0.43,0.36,0.64,0.54c0.84,0.75,1.64,1.56,2.37,2.41 C41.86,21.18,41.94,21.26,42,21.35z"/><path fill="#c2185b" d="M42,24.71v7.23c-0.24-0.14-0.57-0.31-0.98-0.49c-0.22-0.11-0.47-0.22-0.73-0.32 c-0.38-0.17-0.79-0.33-1.25-0.49c-0.1-0.04-0.2-0.07-0.31-0.1c-0.18-0.07-0.37-0.13-0.56-0.19c-0.59-0.18-1.24-0.35-1.92-0.5 c-0.26-0.05-0.53-0.1-0.8-0.14c-0.87-0.15-1.8-0.24-2.77-0.25c-0.08-0.01-0.17-0.01-0.25-0.01l-2.57,0.02l-3.5,0.02h-0.01 l-7.49,0.06c-2.38,0-3.84,0.57-4.72,0.8c0,0-0.01,0-0.01,0.01c-0.93,0.24-1.22,0.09-1.3-1.54c-0.02-0.45-0.03-1.03-0.03-1.74 l-0.56-0.43l-0.98-0.74l-0.6-0.46l-0.12-0.09L8.88,24.1l-0.25-0.19l-0.52-0.4l-0.96-0.72L6,21.91v-3.4 c0.1-0.08,0.19-0.15,0.29-0.21c1.45-1,3-1.85,4.64-2.54c1.46-0.62,3-1.11,4.58-1.46c0.43-0.09,0.87-0.18,1.32-0.24 c1.33-0.23,2.7-0.34,4.09-0.34c6.01,0,11.53,2.09,15.91,5.55c0.66,0.52,1.3,1.07,1.9,1.66c0.82,0.78,1.59,1.61,2.3,2.49 c0.14,0.18,0.28,0.36,0.42,0.55C41.64,24.21,41.82,24.46,42,24.71z"/><path fill="#d81b60" d="M42,28.72V32c0,0.65-0.06,1.29-0.18,1.91c-0.18,0.92-0.49,1.8-0.91,2.62c-0.22,0.05-0.47,0.05-0.75,0.01 c-0.63-0.11-1.37-0.44-2.17-0.87c-0.04-0.01-0.08-0.03-0.11-0.05c-0.25-0.13-0.51-0.27-0.77-0.43c-0.53-0.29-1.09-0.61-1.65-0.91 c-0.12-0.06-0.24-0.12-0.35-0.18c-0.64-0.33-1.3-0.63-1.96-0.86c0,0,0,0-0.01,0c-0.14-0.05-0.29-0.1-0.44-0.14 c-0.57-0.16-1.15-0.26-1.71-0.26l-1.1-0.32l-4.87-1.41c0,0,0,0-0.01,0l-2.99-0.87h-0.01l-1.3-0.38c-3.76,0-6.07,1.6-7.19,0.99 c-0.44-0.23-0.7-0.81-0.79-1.95c-0.03-0.32-0.04-0.68-0.04-1.1l-1.17-0.57l-0.05-0.02h-0.01l-0.84-0.42L9.7,26.35l-0.07-0.03 l-0.17-0.09L7.5,25.28L6,24.55v-3.43c0.17-0.15,0.35-0.29,0.53-0.43c0.19-0.15,0.38-0.29,0.57-0.44c0.01,0,0.01,0,0.01,0 c1.18-0.85,2.43-1.6,3.76-2.22c1.55-0.74,3.2-1.31,4.91-1.68c0.25-0.06,0.51-0.12,0.77-0.16c1.42-0.27,2.88-0.41,4.37-0.41 c5.27,0,10.11,1.71,14.01,4.59c1.13,0.84,2.18,1.77,3.14,2.78c0.79,0.83,1.52,1.73,2.18,2.67c0.05,0.07,0.1,0.14,0.15,0.2 c0.37,0.54,0.71,1.09,1.03,1.66C41.64,28.02,41.82,28.37,42,28.72z"/><path fill="#f50057" d="M41.82,33.91c-0.18,0.92-0.49,1.8-0.91,2.62c-0.19,0.37-0.4,0.72-0.63,1.06c-0.14,0.21-0.29,0.41-0.44,0.6 c-0.36-0.14-0.89-0.34-1.54-0.56c0,0,0,0,0-0.01c-0.49-0.17-1.05-0.35-1.65-0.52c-0.17-0.05-0.34-0.1-0.52-0.15 c-0.71-0.19-1.45-0.36-2.17-0.46c-0.6-0.1-1.19-0.16-1.74-0.16l-0.46-0.13h-0.01l-2.42-0.7l-1.49-0.43l-1.66-0.48h-0.01l-0.54-0.15 l-6.53-1.88l-1.88-0.54l-1.4-0.33l-2.28-0.54l-0.28-0.07c0,0,0,0-0.01,0l-2.29-0.53c0-0.01,0-0.01,0-0.01l-0.41-0.09l-0.21-0.05 l-1.67-0.39l-0.19-0.05l-1.42-1.17L6,27.9v-4.08c0.37-0.36,0.75-0.7,1.15-1.03c0.12-0.11,0.25-0.21,0.38-0.31 c0.12-0.1,0.25-0.2,0.38-0.3c0.91-0.69,1.87-1.31,2.89-1.84c1.3-0.7,2.68-1.26,4.13-1.66c0.28-0.09,0.56-0.17,0.85-0.23 c1.64-0.41,3.36-0.62,5.14-0.62c4.47,0,8.63,1.35,12.07,3.66c1.71,1.15,3.25,2.53,4.55,4.1c0.66,0.79,1.26,1.62,1.79,2.5 c0.05,0.07,0.09,0.13,0.13,0.2c0.32,0.53,0.62,1.08,0.89,1.64c0.25,0.5,0.47,1,0.67,1.52C41.34,32.25,41.6,33.07,41.82,33.91z"/><path fill="#ff1744" d="M40.28,37.59c-0.14,0.21-0.29,0.41-0.44,0.6c-0.44,0.55-0.92,1.05-1.46,1.49c-0.47,0.39-0.97,0.74-1.5,1.04 c-0.2-0.05-0.4-0.11-0.61-0.19c-0.66-0.23-1.35-0.61-1.99-1.01c-0.96-0.61-1.79-1.27-2.16-1.57c-0.14-0.12-0.21-0.18-0.21-0.18 l-1.7-0.15L30,37.6l-2.2-0.19l-2.28-0.2l-3.37-0.3l-5.34-0.47l-0.02-0.01l-1.88-0.91l-1.9-0.92l-1.53-0.74l-0.33-0.16l-0.41-0.2 l-1.42-0.69L7.43,31.9l-0.59-0.29L6,31.35v-4.47c0.47-0.56,0.97-1.09,1.5-1.6c0.34-0.32,0.7-0.64,1.07-0.94 c0.06-0.05,0.12-0.1,0.18-0.14c0.04-0.05,0.09-0.08,0.13-0.1c0.59-0.48,1.21-0.91,1.85-1.3c0.74-0.47,1.52-0.89,2.33-1.24 c0.87-0.39,1.78-0.72,2.72-0.97c1.63-0.46,3.36-0.7,5.14-0.7c4.08,0,7.85,1.24,10.96,3.37c1.99,1.36,3.71,3.08,5.07,5.07 c0.45,0.64,0.85,1.32,1.22,2.02c0.13,0.26,0.26,0.52,0.37,0.78c0.12,0.25,0.23,0.5,0.34,0.75c0.21,0.52,0.4,1.04,0.57,1.58 c0.32,1,0.56,2.02,0.71,3.08C40.21,36.89,40.25,37.24,40.28,37.59z"/><path fill="#ff5722" d="M38.39,39.42c0,0.08,0,0.17-0.01,0.26c-0.47,0.39-0.97,0.74-1.5,1.04c-0.22,0.12-0.44,0.24-0.67,0.34 c-0.23,0.11-0.46,0.21-0.7,0.3c-0.34-0.18-0.8-0.4-1.29-0.61c-0.69-0.31-1.44-0.59-2.02-0.68c-0.14-0.03-0.27-0.04-0.39-0.04 l-1.64-0.21h-0.02l-2.04-0.27l-2.06-0.27l-0.96-0.12l-7.56-0.98c-0.49,0-1.01-0.03-1.55-0.1c-0.66-0.06-1.35-0.16-2.04-0.3 c-0.68-0.12-1.37-0.28-2.03-0.45c-0.69-0.16-1.37-0.35-2-0.53c-0.73-0.22-1.41-0.43-1.98-0.62c-0.47-0.15-0.87-0.29-1.18-0.4 c-0.18-0.43-0.33-0.88-0.44-1.34C6.1,33.66,6,32.84,6,32v-1.67c0.32-0.53,0.67-1.05,1.06-1.54c0.71-0.94,1.52-1.8,2.4-2.56 c0.03-0.04,0.07-0.07,0.1-0.09l0.01-0.01c0.31-0.28,0.63-0.53,0.97-0.77c0.04-0.04,0.08-0.07,0.12-0.1 c0.16-0.12,0.33-0.24,0.51-0.35c1.43-0.97,3.01-1.73,4.7-2.24c1.6-0.48,3.29-0.73,5.05-0.73c3.49,0,6.75,1.03,9.47,2.79 c2.01,1.29,3.74,2.99,5.06,4.98c0.16,0.23,0.31,0.46,0.46,0.7c0.69,1.17,1.26,2.43,1.68,3.75c0.05,0.15,0.09,0.3,0.13,0.46 c0.08,0.27,0.15,0.55,0.21,0.83c0.02,0.07,0.04,0.14,0.06,0.22c0.14,0.63,0.24,1.29,0.31,1.95c0,0.01,0,0.01,0,0.01 C38.36,38.22,38.39,38.82,38.39,39.42z"/><path fill="#ff6f00" d="M36.33,39.42c0,0.35-0.02,0.73-0.06,1.11c-0.02,0.18-0.04,0.36-0.06,0.53c-0.23,0.11-0.46,0.21-0.7,0.3 c-0.45,0.17-0.91,0.31-1.38,0.41c-0.32,0.07-0.65,0.13-0.98,0.16h-0.01c-0.31-0.19-0.67-0.42-1.04-0.68 c-0.67-0.47-1.37-1-1.93-1.43c-0.01-0.01-0.01-0.01-0.02-0.02c-0.59-0.45-1.01-0.79-1.01-0.79l-1.06,0.04l-2.04,0.07l-0.95,0.04 l-3.82,0.14l-3.23,0.12c-0.21,0.01-0.46,0.01-0.77,0h-0.01c-0.42-0.01-0.92-0.04-1.47-0.09c-0.64-0.05-1.34-0.11-2.05-0.18 c-0.69-0.08-1.39-0.16-2.06-0.24c-0.74-0.08-1.44-0.17-2.04-0.25c-0.47-0.06-0.88-0.11-1.21-0.15c-0.28-0.32-0.53-0.65-0.77-1.01 c-0.36-0.54-0.67-1.11-0.91-1.72c-0.18-0.43-0.33-0.88-0.44-1.34c0.29-0.89,0.67-1.73,1.12-2.54c0.36-0.66,0.78-1.29,1.24-1.89 c0.45-0.59,0.94-1.14,1.47-1.64v-0.01c0.15-0.15,0.3-0.29,0.45-0.42c0.28-0.26,0.57-0.5,0.87-0.73h0.01 c0.01-0.02,0.02-0.02,0.03-0.03c0.24-0.19,0.49-0.36,0.74-0.53c1.48-1.01,3.15-1.76,4.95-2.2c1.19-0.29,2.44-0.45,3.73-0.45 c2.54,0,4.94,0.61,7.05,1.71h0.01c1.81,0.93,3.41,2.21,4.7,3.75c0.71,0.82,1.32,1.72,1.82,2.67c0.35,0.64,0.65,1.31,0.9,1.99 c0.02,0.06,0.04,0.11,0.06,0.16c0.17,0.5,0.32,1.02,0.45,1.54c0.09,0.37,0.16,0.75,0.22,1.13c0.02,0.12,0.04,0.23,0.05,0.35 C36.28,37.99,36.33,38.7,36.33,39.42z"/><path fill="#ff9800" d="M34.28,39.42v0.1c0,0.34-0.03,0.77-0.06,1.23c-0.03,0.34-0.06,0.69-0.09,1.02c-0.32,0.07-0.65,0.13-0.98,0.16 h-0.01C32.76,41.98,32.39,42,32,42h-1.75l-0.38-0.11l-1.97-0.6l-2-0.6l-4.63-1.39l-2-0.6c0,0-0.83,0.33-2,0.72h-0.01 c-0.45,0.15-0.94,0.31-1.46,0.47c-0.65,0.19-1.34,0.38-2.02,0.53c-0.7,0.16-1.39,0.28-2.01,0.33c-0.19,0.02-0.38,0.03-0.55,0.03 c-0.56-0.31-1.1-0.68-1.59-1.09c-0.43-0.36-0.83-0.75-1.2-1.18c-0.28-0.32-0.53-0.65-0.77-1.01c0.07-0.45,0.15-0.89,0.27-1.32 c0.3-1.19,0.77-2.33,1.39-3.37c0.34-0.59,0.72-1.16,1.16-1.69c0.01-0.03,0.04-0.06,0.07-0.08c-0.01-0.01,0-0.01,0-0.01 c0.13-0.17,0.27-0.33,0.41-0.48c0-0.01,0-0.01,0-0.01c0.41-0.44,0.83-0.86,1.29-1.25c0.16-0.13,0.31-0.26,0.48-0.39 c0.03-0.03,0.06-0.05,0.1-0.08c2.25-1.72,5.06-2.76,8.09-2.76c3.44,0,6.57,1.29,8.94,3.41c1.14,1.03,2.11,2.26,2.84,3.63 c0.06,0.1,0.12,0.21,0.17,0.32c0.09,0.18,0.18,0.37,0.26,0.57c0.33,0.72,0.59,1.48,0.77,2.26c0.02,0.08,0.04,0.16,0.06,0.24 c0.08,0.37,0.15,0.75,0.2,1.13C34.24,38.21,34.28,38.81,34.28,39.42z"/><path fill="#ffc107" d="M32.22,39.42c0,0.2-0.01,0.42-0.02,0.65c-0.02,0.37-0.05,0.77-0.1,1.18c-0.02,0.25-0.06,0.5-0.1,0.75h-5.48 l-1.06-0.17l-4.14-0.66l-0.59-0.09l-1.35-0.22c-0.59,0-1.87,0.26-3.22,0.51c-0.71,0.13-1.43,0.27-2.08,0.36 c-0.08,0.01-0.16,0.02-0.23,0.03h-0.01c-0.7-0.15-1.38-0.38-2.02-0.68c-0.2-0.09-0.4-0.19-0.6-0.3c-0.56-0.31-1.1-0.68-1.59-1.09 c-0.01-0.12-0.02-0.22-0.02-0.27c0-0.26,0.01-0.51,0.03-0.76c0.04-0.64,0.13-1.26,0.27-1.86c0.22-0.91,0.54-1.79,0.97-2.6 c0.08-0.17,0.17-0.34,0.27-0.5c0.04-0.08,0.09-0.15,0.13-0.23c0.18-0.29,0.38-0.57,0.58-0.85c0.42-0.55,0.89-1.07,1.39-1.54 c0.01,0,0.01,0,0.01,0c0.04-0.04,0.08-0.08,0.12-0.11c0.05-0.04,0.09-0.09,0.14-0.12c0.2-0.18,0.4-0.34,0.61-0.49 c0-0.01,0.01-0.01,0.01-0.01c1.89-1.41,4.23-2.24,6.78-2.24c1.98,0,3.82,0.5,5.43,1.38h0.01c1.38,0.76,2.58,1.79,3.53,3.03 c0.37,0.48,0.7,0.99,0.98,1.53h0.01c0.05,0.1,0.1,0.2,0.15,0.3c0.3,0.59,0.54,1.21,0.72,1.85h0.01c0.01,0.05,0.03,0.1,0.04,0.15 c0.12,0.43,0.22,0.87,0.29,1.32c0.01,0.09,0.02,0.19,0.03,0.28C32.19,38.43,32.22,38.92,32.22,39.42z"/><path fill="#ffd54f" d="M30.17,39.31c0,0.16,0,0.33-0.02,0.49v0.01c0,0.01,0,0.01,0,0.01c-0.02,0.72-0.12,1.43-0.28,2.07 c0,0.04-0.01,0.07-0.03,0.11h-4.67l-3.85-0.83l-0.51-0.11l-0.08,0.02l-4.27,0.88L16.27,42H16c-0.64,0-1.27-0.06-1.88-0.18 c-0.09-0.02-0.18-0.04-0.27-0.06h-0.01c-0.7-0.15-1.38-0.38-2.02-0.68c-0.02-0.11-0.04-0.22-0.05-0.33 c-0.07-0.43-0.1-0.88-0.1-1.33c0-0.17,0-0.34,0.01-0.51c0.03-0.54,0.11-1.07,0.23-1.58c0.08-0.38,0.19-0.75,0.32-1.1 c0.11-0.31,0.24-0.61,0.38-0.9c0.12-0.25,0.26-0.49,0.4-0.73c0.14-0.23,0.29-0.45,0.45-0.67c0.4-0.55,0.87-1.06,1.39-1.51 c0.3-0.26,0.63-0.51,0.97-0.73c1.46-0.96,3.21-1.52,5.1-1.52c0.37,0,0.73,0.02,1.08,0.07h0.02c1.07,0.12,2.07,0.42,2.99,0.87 c0.01,0,0.01,0,0.01,0c1.45,0.71,2.68,1.78,3.58,3.1c0.15,0.22,0.3,0.46,0.43,0.7c0.11,0.19,0.21,0.39,0.3,0.59 c0.14,0.31,0.27,0.64,0.38,0.97h0.01c0.11,0.37,0.21,0.74,0.28,1.13v0.01C30.11,38.16,30.17,38.73,30.17,39.31z"/><path fill="#ffe082" d="M28.11,39.52v0.03c0,0.59-0.07,1.17-0.21,1.74c-0.05,0.24-0.12,0.48-0.21,0.71h-4.48l-2.29-0.63L18.63,42H16 c-0.64,0-1.27-0.06-1.88-0.18c-0.02-0.03-0.03-0.06-0.04-0.09c-0.14-0.43-0.25-0.86-0.3-1.31c-0.04-0.29-0.06-0.59-0.06-0.9 c0-0.12,0-0.25,0.02-0.37c0.01-0.47,0.08-0.93,0.2-1.37c0.06-0.3,0.15-0.59,0.27-0.87c0.04-0.14,0.1-0.27,0.17-0.4 c0.15-0.34,0.33-0.67,0.53-0.99c0.22-0.32,0.46-0.62,0.73-0.9c0.32-0.36,0.68-0.69,1.09-0.96c0.7-0.51,1.5-0.89,2.37-1.1 c0.58-0.16,1.19-0.24,1.82-0.24c2,0,3.79,0.8,5.09,2.09c0.05,0.05,0.11,0.11,0.16,0.18h0.01c0.14,0.15,0.27,0.3,0.4,0.47 c0.37,0.47,0.68,0.98,0.92,1.54c0.12,0.26,0.22,0.53,0.3,0.81c0.01,0.04,0.02,0.07,0.03,0.11c0.14,0.49,0.23,1,0.25,1.53 C28.1,39.2,28.11,39.36,28.11,39.52z"/><path fill="#ffecb3" d="M26.06,39.52c0,0.41-0.05,0.8-0.16,1.17c-0.1,0.4-0.25,0.78-0.44,1.14c-0.03,0.06-0.1,0.17-0.1,0.17h-8.88 c-0.01-0.01-0.02-0.03-0.02-0.04c-0.12-0.19-0.22-0.38-0.3-0.59c-0.2-0.46-0.32-0.96-0.36-1.48c-0.02-0.12-0.02-0.25-0.02-0.37 c0-0.06,0-0.13,0.01-0.19c0.01-0.44,0.07-0.86,0.19-1.25c0.1-0.36,0.23-0.69,0.4-1.01c0,0,0.01-0.01,0.01-0.02 c0.12-0.21,0.25-0.42,0.4-0.62c0.49-0.66,1.14-1.2,1.89-1.55c0.01,0,0.01,0,0.01,0c0.24-0.12,0.49-0.22,0.75-0.29c0,0,0,0,0.01,0 c0.46-0.14,0.96-0.21,1.47-0.21c0.59,0,1.16,0.09,1.68,0.28c0.19,0.05,0.37,0.13,0.55,0.22c0,0,0,0,0.01,0 c0.86,0.41,1.59,1.05,2.09,1.85c0.1,0.15,0.19,0.31,0.27,0.48c0.04,0.07,0.08,0.15,0.11,0.22c0.23,0.52,0.37,1.09,0.41,1.69 c0.01,0.05,0.01,0.1,0.01,0.16C26.06,39.36,26.06,39.44,26.06,39.52z"/><g><path fill="none" stroke="#fff" stroke-linecap="round" stroke-linejoin="round" stroke-miterlimit="10" stroke-width="2" d="M30,11H18c-3.9,0-7,3.1-7,7v12c0,3.9,3.1,7,7,7h12c3.9,0,7-3.1,7-7V18C37,14.1,33.9,11,30,11z"/><circle cx="31" cy="16" r="1" fill="#fff"/></g><g><circle cx="24" cy="24" r="6" fill="none" stroke="#fff" stroke-linecap="round" stroke-linejoin="round" stroke-miterlimit="10" stroke-width="2"/></g>
    </g>

    <g id="whatsappColor">
        <path fill="#fff" d="M4.868,43.303l2.694-9.835C5.9,30.59,5.026,27.324,5.027,23.979C5.032,13.514,13.548,5,24.014,5c5.079,0.002,9.845,1.979,13.43,5.566c3.584,3.588,5.558,8.356,5.556,13.428c-0.004,10.465-8.522,18.98-18.986,18.98c-0.001,0,0,0,0,0h-0.008c-3.177-0.001-6.3-0.798-9.073-2.311L4.868,43.303z"/><path fill="#fff" d="M4.868,43.803c-0.132,0-0.26-0.052-0.355-0.148c-0.125-0.127-0.174-0.312-0.127-0.483l2.639-9.636c-1.636-2.906-2.499-6.206-2.497-9.556C4.532,13.238,13.273,4.5,24.014,4.5c5.21,0.002,10.105,2.031,13.784,5.713c3.679,3.683,5.704,8.577,5.702,13.781c-0.004,10.741-8.746,19.48-19.486,19.48c-3.189-0.001-6.344-0.788-9.144-2.277l-9.875,2.589C4.953,43.798,4.911,43.803,4.868,43.803z"/><path fill="#cfd8dc" d="M24.014,5c5.079,0.002,9.845,1.979,13.43,5.566c3.584,3.588,5.558,8.356,5.556,13.428c-0.004,10.465-8.522,18.98-18.986,18.98h-0.008c-3.177-0.001-6.3-0.798-9.073-2.311L4.868,43.303l2.694-9.835C5.9,30.59,5.026,27.324,5.027,23.979C5.032,13.514,13.548,5,24.014,5 M24.014,42.974C24.014,42.974,24.014,42.974,24.014,42.974C24.014,42.974,24.014,42.974,24.014,42.974 M24.014,42.974C24.014,42.974,24.014,42.974,24.014,42.974C24.014,42.974,24.014,42.974,24.014,42.974 M24.014,4C24.014,4,24.014,4,24.014,4C12.998,4,4.032,12.962,4.027,23.979c-0.001,3.367,0.849,6.685,2.461,9.622l-2.585,9.439c-0.094,0.345,0.002,0.713,0.254,0.967c0.19,0.192,0.447,0.297,0.711,0.297c0.085,0,0.17-0.011,0.254-0.033l9.687-2.54c2.828,1.468,5.998,2.243,9.197,2.244c11.024,0,19.99-8.963,19.995-19.98c0.002-5.339-2.075-10.359-5.848-14.135C34.378,6.083,29.357,4.002,24.014,4L24.014,4z"/><path fill="#40c351" d="M35.176,12.832c-2.98-2.982-6.941-4.625-11.157-4.626c-8.704,0-15.783,7.076-15.787,15.774c-0.001,2.981,0.833,5.883,2.413,8.396l0.376,0.597l-1.595,5.821l5.973-1.566l0.577,0.342c2.422,1.438,5.2,2.198,8.032,2.199h0.006c8.698,0,15.777-7.077,15.78-15.776C39.795,19.778,38.156,15.814,35.176,12.832z"/><path fill="#fff" fill-rule="evenodd" d="M19.268,16.045c-0.355-0.79-0.729-0.806-1.068-0.82c-0.277-0.012-0.593-0.011-0.909-0.011c-0.316,0-0.83,0.119-1.265,0.594c-0.435,0.475-1.661,1.622-1.661,3.956c0,2.334,1.7,4.59,1.937,4.906c0.237,0.316,3.282,5.259,8.104,7.161c4.007,1.58,4.823,1.266,5.693,1.187c0.87-0.079,2.807-1.147,3.202-2.255c0.395-1.108,0.395-2.057,0.277-2.255c-0.119-0.198-0.435-0.316-0.909-0.554s-2.807-1.385-3.242-1.543c-0.435-0.158-0.751-0.237-1.068,0.238c-0.316,0.474-1.225,1.543-1.502,1.859c-0.277,0.317-0.554,0.357-1.028,0.119c-0.474-0.238-2.002-0.738-3.815-2.354c-1.41-1.257-2.362-2.81-2.639-3.285c-0.277-0.474-0.03-0.731,0.208-0.968c0.213-0.213,0.474-0.554,0.712-0.831c0.237-0.277,0.316-0.475,0.474-0.791c0.158-0.317,0.079-0.594-0.04-0.831C20.612,19.329,19.69,16.983,19.268,16.045z" clip-rule="evenodd"/>
    </g>
    
    <g id="telegramColor">
        <path fill="#29b6f6" d="M24 4A20 20 0 1 0 24 44A20 20 0 1 0 24 4Z"/><path fill="#fff" d="M33.95,15l-3.746,19.126c0,0-0.161,0.874-1.245,0.874c-0.576,0-0.873-0.274-0.873-0.274l-8.114-6.733 l-3.97-2.001l-5.095-1.355c0,0-0.907-0.262-0.907-1.012c0-0.625,0.933-0.923,0.933-0.923l21.316-8.468 c-0.001-0.001,0.651-0.235,1.126-0.234C33.667,14,34,14.125,34,14.5C34,14.75,33.95,15,33.95,15z"/><path fill="#b0bec5" d="M23,30.505l-3.426,3.374c0,0-0.149,0.115-0.348,0.12c-0.069,0.002-0.143-0.009-0.219-0.043 l0.964-5.965L23,30.505z"/><path fill="#cfd8dc" d="M29.897,18.196c-0.169-0.22-0.481-0.26-0.701-0.093L16,26c0,0,2.106,5.892,2.427,6.912 c0.322,1.021,0.58,1.045,0.58,1.045l0.964-5.965l9.832-9.096C30.023,18.729,30.064,18.416,29.897,18.196z"/>
    </g>

    <g id="location" fill="currentColor">
        <path d="M116,426 C114.343,426 113,424.657 113,423 C113,421.343 114.343,420 116,420 C117.657,420 119,421.343 119,423 C119,424.657 117.657,426 116,426 L116,426 Z M116,418 C113.239,418 111,420.238 111,423 C111,425.762 113.239,428 116,428 C118.761,428 121,425.762 121,423 C121,420.238 118.761,418 116,418 L116,418 Z M116,440 C114.337,440.009 106,427.181 106,423 C106,417.478 110.477,413 116,413 C121.523,413 126,417.478 126,423 C126,427.125 117.637,440.009 116,440 L116,440 Z M116,411 C109.373,411 104,416.373 104,423 C104,428.018 114.005,443.011 116,443 C117.964,443.011 128,427.95 128,423 C128,416.373 122.627,411 116,411 L116,411 Z" id="location">
        </path>
    </g>
    <g id="email">
        <path fill-rule="evenodd" clip-rule="evenodd" d="M3.75 5.25L3 6V18L3.75 18.75H20.25L21 18V6L20.25 5.25H3.75ZM4.5 7.6955V17.25H19.5V7.69525L11.9999 14.5136L4.5 7.6955ZM18.3099 6.75H5.68986L11.9999 12.4864L18.3099 6.75Z" fill="currentColor"/>
    </g>
    <g id="phone">
        <path d="M13.5 2C13.5 2 15.8335 2.21213 18.8033 5.18198C21.7731 8.15183 21.9853 10.4853 21.9853 10.4853" stroke="currentColor" stroke-width="1.5" stroke-linecap="round"/>
        <path d="M14.207 5.53564C14.207 5.53564 15.197 5.81849 16.6819 7.30341C18.1668 8.78834 18.4497 9.77829 18.4497 9.77829" stroke="currentColor" stroke-width="1.5" stroke-linecap="round"/>
        <path d="M15.1007 15.0272L14.5569 14.5107L15.1007 15.0272ZM15.5562 14.5477L16.1 15.0642H16.1L15.5562 14.5477ZM17.9728 14.2123L17.5987 14.8623H17.5987L17.9728 14.2123ZM19.8833 15.312L19.5092 15.962L19.8833 15.312ZM20.4217 18.7584L20.9655 19.2749L20.4217 18.7584ZM19.0011 20.254L18.4573 19.7375L19.0011 20.254ZM17.6763 20.9631L17.7499 21.7095L17.6763 20.9631ZM7.81536 16.4752L8.35915 15.9587L7.81536 16.4752ZM3.00289 6.96594L2.25397 7.00613L2.25397 7.00613L3.00289 6.96594ZM9.47752 8.50311L10.0213 9.01963H10.0213L9.47752 8.50311ZM9.63424 5.6931L10.2466 5.26012L9.63424 5.6931ZM8.37326 3.90961L7.76086 4.3426V4.3426L8.37326 3.90961ZM5.26145 3.60864L5.80524 4.12516L5.26145 3.60864ZM3.69185 5.26114L3.14806 4.74462L3.14806 4.74462L3.69185 5.26114ZM11.0631 13.0559L11.6069 12.5394L11.0631 13.0559ZM15.6445 15.5437L16.1 15.0642L15.0124 14.0312L14.5569 14.5107L15.6445 15.5437ZM17.5987 14.8623L19.5092 15.962L20.2575 14.662L18.347 13.5623L17.5987 14.8623ZM19.8779 18.2419L18.4573 19.7375L19.5449 20.7705L20.9655 19.2749L19.8779 18.2419ZM17.6026 20.2167C16.1676 20.3584 12.4233 20.2375 8.35915 15.9587L7.27157 16.9917C11.7009 21.655 15.9261 21.8895 17.7499 21.7095L17.6026 20.2167ZM8.35915 15.9587C4.48303 11.8778 3.83285 8.43556 3.75181 6.92574L2.25397 7.00613C2.35322 8.85536 3.1384 12.6403 7.27157 16.9917L8.35915 15.9587ZM9.7345 9.32159L10.0213 9.01963L8.93372 7.9866L8.64691 8.28856L9.7345 9.32159ZM10.2466 5.26012L8.98565 3.47663L7.76086 4.3426L9.02185 6.12608L10.2466 5.26012ZM4.71766 3.09213L3.14806 4.74462L4.23564 5.77765L5.80524 4.12516L4.71766 3.09213ZM9.1907 8.80507C8.64691 8.28856 8.64622 8.28929 8.64552 8.29002C8.64528 8.29028 8.64458 8.29102 8.64411 8.29152C8.64316 8.29254 8.64219 8.29357 8.64121 8.29463C8.63924 8.29675 8.6372 8.29896 8.6351 8.30127C8.63091 8.30588 8.62646 8.31087 8.62178 8.31625C8.61243 8.32701 8.60215 8.33931 8.59116 8.3532C8.56918 8.38098 8.54431 8.41512 8.51822 8.45588C8.46591 8.53764 8.40917 8.64531 8.36112 8.78033C8.26342 9.0549 8.21018 9.4185 8.27671 9.87257C8.40742 10.7647 8.99198 11.9644 10.5193 13.5724L11.6069 12.5394C10.1793 11.0363 9.82761 10.1106 9.76086 9.65511C9.72866 9.43536 9.76138 9.31957 9.77432 9.28321C9.78159 9.26277 9.78635 9.25709 9.78169 9.26437C9.77944 9.26789 9.77494 9.27451 9.76738 9.28407C9.76359 9.28885 9.75904 9.29437 9.7536 9.30063C9.75088 9.30375 9.74793 9.30706 9.74476 9.31056C9.74317 9.31231 9.74152 9.3141 9.73981 9.31594C9.73896 9.31686 9.73809 9.31779 9.7372 9.31873C9.73676 9.3192 9.73608 9.31992 9.73586 9.32015C9.73518 9.32087 9.7345 9.32159 9.1907 8.80507ZM10.5193 13.5724C12.0422 15.1757 13.1923 15.806 14.0698 15.9485C14.5201 16.0216 14.8846 15.9632 15.1606 15.8544C15.2955 15.8012 15.4022 15.7387 15.4823 15.6819C15.5223 15.6535 15.5556 15.6266 15.5824 15.6031C15.5959 15.5913 15.6077 15.5803 15.618 15.5703C15.6232 15.5654 15.628 15.5606 15.6324 15.5562C15.6346 15.554 15.6367 15.5518 15.6387 15.5497C15.6397 15.5487 15.6407 15.5477 15.6417 15.5467C15.6422 15.5462 15.6429 15.5454 15.6431 15.5452C15.6438 15.5444 15.6445 15.5437 15.1007 15.0272C14.5569 14.5107 14.5576 14.51 14.5583 14.5093C14.5585 14.509 14.5592 14.5083 14.5596 14.5078C14.5605 14.5069 14.5614 14.506 14.5623 14.5051C14.5641 14.5033 14.5658 14.5015 14.5674 14.4998C14.5708 14.4965 14.574 14.4933 14.577 14.4904C14.583 14.4846 14.5885 14.4796 14.5933 14.4754C14.6028 14.467 14.6099 14.4616 14.6145 14.4584C14.6239 14.4517 14.6229 14.454 14.6102 14.459C14.5909 14.4666 14.5 14.4987 14.3103 14.4679C13.9077 14.4025 13.0391 14.0472 11.6069 12.5394L10.5193 13.5724ZM8.98565 3.47663C7.97206 2.04305 5.94384 1.80119 4.71766 3.09213L5.80524 4.12516C6.32808 3.57471 7.24851 3.61795 7.76086 4.3426L8.98565 3.47663ZM3.75181 6.92574C3.73038 6.52644 3.90425 6.12654 4.23564 5.77765L3.14806 4.74462C2.61221 5.30877 2.20493 6.09246 2.25397 7.00613L3.75181 6.92574ZM18.4573 19.7375C18.1783 20.0313 17.8864 20.1887 17.6026 20.2167L17.7499 21.7095C18.497 21.6357 19.1016 21.2373 19.5449 20.7705L18.4573 19.7375ZM10.0213 9.01963C10.9889 8.00095 11.0574 6.40678 10.2466 5.26012L9.02185 6.12608C9.44399 6.72315 9.37926 7.51753 8.93372 7.9866L10.0213 9.01963ZM19.5092 15.962C20.33 16.4345 20.4907 17.5968 19.8779 18.2419L20.9655 19.2749C22.2704 17.901 21.8904 15.6019 20.2575 14.662L19.5092 15.962ZM16.1 15.0642C16.4854 14.6584 17.086 14.5672 17.5987 14.8623L18.347 13.5623C17.2485 12.93 15.8861 13.1113 15.0124 14.0312L16.1 15.0642Z" fill="currentColor"/>
    </g>
</svg>