<svg xmlns="http://www.w3.org/2000/svg"  viewBox="0 0 50 50" width="50px" height="50px">

    <g id="arrowRight">
        <path fill-rule="evenodd" clip-rule="evenodd" d="M2.33334 14.0002C2.33334 13.3559 2.85568 12.8335 3.5 12.8335H24.5C25.1443 12.8335 25.6667 13.3559 25.6667 14.0002C25.6667 14.6446 25.1443 15.1669 24.5 15.1669H3.5C2.85568 15.1669 2.33334 14.6446 2.33334 14.0002Z" fill="white"/>
        <path fill-rule="evenodd" clip-rule="evenodd" d="M16.6751 6.1752C17.1306 5.71959 17.8694 5.71959 18.325 6.1752L25.325 13.1753C25.7805 13.6308 25.7805 14.3696 25.325 14.8252L18.325 21.8252C17.8694 22.2807 17.1306 22.2807 16.6751 21.8252C16.2195 21.3696 16.2195 20.6308 16.6751 20.1753L22.8501 14.0002L16.6751 7.82512C16.2195 7.3695 16.2195 6.63082 16.6751 6.1752Z" fill="white"/>
    </g>

    <g id="moon">
        <g>
            <g>
                <path d="M12.2,15.267c0-3.322,0.896-6.43,2.448-9.113c0.376-0.649-0.191-1.451-0.918-1.265
                    C5.35,7.041-0.711,14.961,0.067,24.179c0.736,8.701,7.768,15.803,16.463,16.617c6.033,0.565,11.517-1.811,15.221-5.848
                    c0.5-0.546,0.073-1.432-0.666-1.401c-0.196,0.009-0.395,0.013-0.594,0.013C20.389,33.56,12.2,25.371,12.2,15.267z"/>
            </g>
        </g>
        <g>
            <path d="M23.144,5.6l0.917,2.633l2.788,0.061c0.354,0.008,0.498,0.456,0.218,0.669l-2.221,1.687l0.805,2.669
                c0.104,0.338-0.279,0.614-0.568,0.414l-2.292-1.59l-2.29,1.59c-0.29,0.201-0.669-0.076-0.569-0.414l0.805-2.669l-2.221-1.687
                c-0.28-0.213-0.134-0.661,0.218-0.669l2.788-0.061L22.44,5.6C22.556,5.267,23.027,5.267,23.144,5.6z"/>
        </g>
        <g>
            <path d="M40.26,26.44l0.881,2.53l2.679,0.057c0.389,0.009,0.549,0.502,0.24,0.737l-2.134,1.621l0.772,2.564
                c0.111,0.371-0.309,0.677-0.627,0.454l-2.201-1.527l-2.2,1.527c-0.318,0.223-0.739-0.083-0.626-0.454l0.772-2.564l-2.133-1.621
                c-0.31-0.234-0.149-0.729,0.238-0.737l2.679-0.057l0.884-2.53C39.612,26.074,40.131,26.074,40.26,26.44z"/>
        </g>
        <g>
            <path d="M39.926,8.098l1.325,3.799l4.021,0.086c0.452,0.01,0.639,0.584,0.278,0.858l-3.204,2.434l1.162,3.853
                c0.131,0.433-0.356,0.788-0.729,0.529l-3.306-2.294l-3.305,2.294c-0.372,0.259-0.86-0.097-0.729-0.529l1.161-3.853l-3.205-2.434
                c-0.358-0.273-0.172-0.849,0.279-0.858l4.022-0.086l1.324-3.799C39.173,7.672,39.776,7.672,39.926,8.098z"/>
        </g>
    </g>

    <g id="sun">
        <path d="M256,144c-61.75,0-112,50.25-112,112s50.25,112,112,112s112-50.25,112-112S317.75,144,256,144z M256,336    c-44.188,0-80-35.812-80-80c0-44.188,35.812-80,80-80c44.188,0,80,35.812,80,80C336,300.188,300.188,336,256,336z M256,112    c8.833,0,16-7.167,16-16V64c0-8.833-7.167-16-16-16s-16,7.167-16,16v32C240,104.833,247.167,112,256,112z M256,400    c-8.833,0-16,7.167-16,16v32c0,8.833,7.167,16,16,16s16-7.167,16-16v-32C272,407.167,264.833,400,256,400z M380.438,154.167    l22.625-22.625c6.25-6.25,6.25-16.375,0-22.625s-16.375-6.25-22.625,0l-22.625,22.625c-6.25,6.25-6.25,16.375,0,22.625    S374.188,160.417,380.438,154.167z M131.562,357.834l-22.625,22.625c-6.25,6.249-6.25,16.374,0,22.624s16.375,6.25,22.625,0    l22.625-22.624c6.25-6.271,6.25-16.376,0-22.625C147.938,351.583,137.812,351.562,131.562,357.834z M112,256    c0-8.833-7.167-16-16-16H64c-8.833,0-16,7.167-16,16s7.167,16,16,16h32C104.833,272,112,264.833,112,256z M448,240h-32    c-8.833,0-16,7.167-16,16s7.167,16,16,16h32c8.833,0,16-7.167,16-16S456.833,240,448,240z M131.541,154.167    c6.251,6.25,16.376,6.25,22.625,0c6.251-6.25,6.251-16.375,0-22.625l-22.625-22.625c-6.25-6.25-16.374-6.25-22.625,0    c-6.25,6.25-6.25,16.375,0,22.625L131.541,154.167z M380.459,357.812c-6.271-6.25-16.376-6.25-22.625,0    c-6.251,6.25-6.271,16.375,0,22.625l22.625,22.625c6.249,6.25,16.374,6.25,22.624,0s6.25-16.375,0-22.625L380.459,357.812z" fill="#1D1D1B"/>
    </g>

    <g id="photoshop">
        <path fill="#020F16" d="M20.016,19.174h-2.002v4.434h1.973c0.547,0,0.97-0.179,1.27-0.537s0.449-0.879,0.449-1.563c0-0.71-0.153-1.274-0.459-1.694S20.53,19.181,20.016,19.174z"/>
        <path fill="#020F16" d="M9,9v30h30V9H9z M23.365,24.789C22.539,25.597,21.393,26,19.928,26h-1.914v5h-2.871V16.781h4.844c1.406,0,2.528,0.437,3.364,1.309s1.255,2.005,1.255,3.398S24.192,23.981,23.365,24.789z M32.682,30.336c-0.709,0.573-1.641,0.859-2.793,0.859c-0.775,0-1.459-0.151-2.051-0.454s-1.057-0.725-1.392-1.265s-0.503-1.123-0.503-1.748h2.627c0.014,0.481,0.125,0.843,0.337,1.084s0.558,0.361,1.04,0.361c0.742,0,1.113-0.335,1.113-1.006c0-0.234-0.112-0.451-0.337-0.649S30,27.052,29.225,26.713c-1.139-0.462-1.922-0.94-2.349-1.436s-0.64-1.11-0.64-1.846c0-0.925,0.334-1.688,1.001-2.29s1.552-0.903,2.651-0.903c1.158,0,2.086,0.3,2.783,0.898s1.045,1.403,1.045,2.412h-2.764c0-0.859-0.357-1.289-1.074-1.289c-0.293,0-0.533,0.091-0.723,0.273s-0.283,0.437-0.283,0.762c0,0.234,0.104,0.441,0.313,0.62s0.699,0.435,1.475,0.767c1.127,0.417,1.922,0.881,2.388,1.392s0.698,1.174,0.698,1.987C33.746,29.005,33.391,29.763,32.682,30.336z"/>
    </g>

    <g id="illustrator">
        <path fill="#FF5722" d="M6,10c0-2.209,1.791-4,4-4h28c2.209,0,4,1.791,4,4v28c0,2.209-1.791,4-4,4H10c-2.209,0-4-1.791-4-4V10z"/>
        <path fill="#1C0802" d="M9,9v30h30V9H9z M23.691,31l-0.762-2.91h-3.916L18.252,31h-3.037l4.443-14.219h2.627L26.758,31H23.691z M30.85,31h-2.773V20.434h2.773V31z M30.552,18.754c-0.271,0.28-0.636,0.42-1.099,0.42s-0.828-0.14-1.099-0.42s-0.405-0.632-0.405-1.055c0-0.43,0.137-0.781,0.41-1.055s0.639-0.41,1.094-0.41s0.82,0.137,1.094,0.41s0.41,0.625,0.41,1.055C30.957,18.122,30.822,18.474,30.552,18.754z"/>
        <path fill="#1C0802" d="M19.639 25.697L22.295 25.697 20.967 20.629z"/>
    </g>

    <g id="afterEffect">
        <path fill="#170b40" d="M9,9v30h30V9H9z"/>
        <path fill="#b388ff" d="M21.183 27.965h-4.555l-.866 2.846H13L17.694 17h2.407l4.719 13.81h-2.762L21.183 27.965zM17.33 25.66h3.152l-1.584-5.17L17.33 25.66zM30.146 31c-.728 0-1.379-.13-1.953-.389-.575-.259-1.062-.614-1.464-1.063-.402-.449-.707-.975-.918-1.579-.21-.604-.316-1.25-.316-1.94v-.37c0-.778.103-1.491.308-2.139.204-.648.496-1.206.875-1.674.377-.468.837-.833 1.376-1.096.54-.262 1.145-.394 1.814-.394.675 0 1.27.122 1.784.365.514.243.945.585 1.295 1.025.349.439.612.969.788 1.589S34 24.645 34 25.404v1.167h-5.966c.04.335.123.639.247.91.124.272.283.504.476.697s.42.343.679.451c.26.108.552.161.875.161.456 0 .878-.093 1.264-.28.387-.186.719-.476.996-.868l1.23 1.508c-.15.234-.338.462-.563.683-.225.221-.491.419-.797.593-.306.174-.65.313-1.035.417C31.022 30.948 30.603 31 30.146 31zM29.861 22.577c-.272 0-.509.052-.715.157-.205.104-.381.25-.528.436-.147.186-.267.409-.359.669-.092.259-.158.547-.198.863h3.481v-.218c-.006-.272-.042-.525-.109-.759-.066-.234-.167-.436-.303-.607-.136-.171-.309-.303-.519-.398C30.398 22.625 30.149 22.577 29.861 22.577z"/>
    </g>

    <g id="figma">
        <path fill="#e64a19" d="M26,17h-8c-3.866,0-7-3.134-7-7v0c0-3.866,3.134-7,7-7h8V17z"/>
        <path fill="#7c4dff" d="M25,31h-7c-3.866,0-7-3.134-7-7v0c0-3.866,3.134-7,7-7h7V31z"/>
        <path fill="#66bb6a" d="M18,45L18,45c-3.866,0-7-3.134-7-7v0c0-3.866,3.134-7,7-7h7v7C25,41.866,21.866,45,18,45z"/>
        <path fill="#ff7043" d="M32,17h-7V3h7c3.866,0,7,3.134,7,7v0C39,13.866,35.866,17,32,17z"/>
        <circle cx="32" cy="24" r="7" fill="#29b6f6"/>
    </g>

    <g id="aboutWhatsapp">
        <path d="M0 26L1.83763 19.327C0.701528 17.3683 0.10554 15.1502 0.111748 12.8826C0.111748 5.77709 5.92263 0 13.0559 0C16.52 0 19.7731 1.34078 22.213 3.77519C24.659 6.2096 26.0062 9.44724 26 12.8888C26 19.9943 20.1891 25.7714 13.0497 25.7714H13.0434C10.8768 25.7714 8.74737 25.2277 6.85386 24.202L0 26ZM7.1829 21.8726L7.57402 22.1074C9.2254 23.0836 11.1189 23.5965 13.0497 23.6027H13.0559C18.9847 23.6027 23.8147 18.8018 23.8147 12.895C23.8147 10.0342 22.6972 7.34648 20.6671 5.31987C18.637 3.29325 15.9303 2.18108 13.0559 2.18108C7.12702 2.1749 2.29704 6.97576 2.29704 12.8826C2.29704 14.903 2.86198 16.8741 3.94221 18.5794L4.19675 18.9872L3.11031 22.9354L7.1829 21.8726Z" fill="url(#paint0_linear_11_6316)"/>
        <path fill-rule="evenodd" clip-rule="evenodd" d="M9.82129 7.49537C9.57917 6.95782 9.32464 6.94546 9.09493 6.93928C8.90869 6.93311 8.6914 6.93311 8.47411 6.93311C8.25682 6.93311 7.90917 7.01343 7.61117 7.33472C7.31318 7.65601 6.48128 8.43453 6.48128 10.0225C6.48128 11.6042 7.64221 13.1365 7.80363 13.3528C7.96504 13.569 10.0448 16.9241 13.3289 18.2154C16.0605 19.2905 16.6193 19.0743 17.2091 19.0187C17.7988 18.963 19.1212 18.2401 19.3943 17.4863C19.6613 16.7325 19.6613 16.0899 19.5806 15.954C19.4999 15.8181 19.2826 15.7378 18.9598 15.5771C18.6369 15.4165 17.0476 14.638 16.7497 14.5267C16.4517 14.4217 16.2344 14.3661 16.0233 14.6874C15.806 15.0087 15.1852 15.7316 14.9989 15.9478C14.8127 16.1641 14.6202 16.1888 14.2974 16.0282C13.9746 15.8675 12.9316 15.5277 11.6962 14.4279C10.7339 13.5752 10.082 12.5187 9.89579 12.1974C9.70954 11.8761 9.87717 11.7031 10.0386 11.5424C10.1814 11.4003 10.3614 11.1655 10.5228 10.9802C10.6842 10.7948 10.7401 10.6589 10.8456 10.4426C10.9512 10.2264 10.9015 10.041 10.8208 9.88035C10.7401 9.72588 10.1069 8.13178 9.82129 7.49537Z" fill="white"/>
        <defs>
        <linearGradient id="paint0_linear_11_6316" x1="13.0025" y1="25.9975" x2="13.0025" y2="0" gradientUnits="userSpaceOnUse">
        <stop stop-color="#F9F9F9"/>
        <stop offset="1" stop-color="white"/>
        </linearGradient>
        </defs>
    </g>

    <g id="aboutInstagram">
        <path d="M13.0052 2.34253C9.53333 2.34253 9.12579 2.35801 7.75357 2.41992C6.48452 2.47668 5.79841 2.68823 5.33928 2.86882C4.73055 3.10617 4.29722 3.3848 3.84325 3.83886C3.38929 4.29292 3.10556 4.72633 2.87341 5.33519C2.69802 5.7944 2.48135 6.48065 2.4246 7.74995C2.3627 9.12245 2.34722 9.53007 2.34722 13.0026C2.34722 16.4751 2.3627 16.8827 2.4246 18.2552C2.48135 19.5245 2.69286 20.2108 2.87341 20.67C3.11071 21.2788 3.38929 21.7122 3.84325 22.1663C4.29722 22.6204 4.73055 22.9041 5.33928 23.1363C5.79841 23.3118 6.48452 23.5285 7.75357 23.5852C9.12579 23.6472 9.53333 23.6626 13.0052 23.6626C16.477 23.6626 16.8845 23.6472 18.2567 23.5852C19.5258 23.5285 20.2119 23.3169 20.671 23.1363C21.2798 22.899 21.7131 22.6204 22.1671 22.1663C22.621 21.7122 22.9048 21.2788 23.1369 20.67C23.3123 20.2108 23.529 19.5245 23.5857 18.2552C23.6476 16.8827 23.6631 16.4751 23.6631 13.0026C23.6631 9.53007 23.6476 9.12245 23.5857 7.74995C23.529 6.48065 23.3175 5.7944 23.1369 5.33519C22.8996 4.72633 22.621 4.29292 22.1671 3.83886C21.7131 3.3848 21.2798 3.10101 20.671 2.86882C20.2119 2.69339 19.5258 2.47668 18.2567 2.41992C16.8845 2.35285 16.4718 2.34253 13.0052 2.34253ZM13.0052 0C16.5337 0 16.9774 0.0154793 18.3651 0.0773963C19.7476 0.139313 20.6917 0.361183 21.5171 0.681087C22.3734 1.01131 23.0956 1.46021 23.8179 2.18258C24.5401 2.90494 24.9837 3.63247 25.319 4.48383C25.6389 5.30939 25.8607 6.25362 25.9226 7.6416C25.9845 9.02441 26 9.46815 26 12.9974C26 16.5267 25.9845 16.9704 25.9226 18.3584C25.8607 19.7412 25.6389 20.6855 25.319 21.5162C24.9889 22.3727 24.5401 23.0951 23.8179 23.8174C23.0956 24.5398 22.3683 24.9835 21.5171 25.3189C20.6917 25.6388 19.7476 25.8607 18.3599 25.9226C16.9722 25.9845 16.5337 26 13 26C9.46627 26 9.02778 25.9845 7.64008 25.9226C6.25754 25.8607 5.31349 25.6388 4.48294 25.3189C3.62659 24.9887 2.90436 24.5398 2.18214 23.8174C1.45992 23.0951 1.01627 22.3675 0.680952 21.5162C0.361111 20.6906 0.139286 19.7464 0.0773811 18.3584C0.0154762 16.9704 0 16.5319 0 12.9974C0 9.46299 0.0154762 9.02441 0.0773811 7.63644C0.139286 6.25362 0.361111 5.30939 0.680952 4.47867C1.01111 3.62215 1.45992 2.89978 2.18214 2.17742C2.90436 1.45505 3.63175 1.01131 4.48294 0.675928C5.30833 0.356023 6.25238 0.134154 7.64008 0.0722366C9.03294 0.0154793 9.47659 0 13.0052 0Z" fill="white"/>
        <path d="M13.0052 6.32568C16.6885 6.32568 19.6806 9.31318 19.6806 13.0024C19.6806 16.6916 16.6937 19.6791 13.0052 19.6791C9.31669 19.6791 6.32979 16.6916 6.32979 13.0024C6.32979 9.31318 9.31669 6.32568 13.0052 6.32568ZM13.0052 17.3314C15.3988 17.3314 17.3385 15.3914 17.3385 12.9972C17.3385 10.6031 15.3988 8.66305 13.0052 8.66305C10.6115 8.66305 8.67185 10.6031 8.67185 12.9972C8.67185 15.3914 10.6115 17.3314 13.0052 17.3314Z" fill="white"/>
        <path d="M6.06667 7.61562C5.20624 7.61562 4.50873 6.91784 4.50873 6.05708C4.50873 5.19632 5.20624 4.49854 6.06667 4.49854C6.92709 4.49854 7.6246 5.19632 7.6246 6.05708C7.6246 6.91784 6.92709 7.61562 6.06667 7.61562Z" fill="white"/>
    </g>

    <g id="aboutTelegram">
        <path d="M30.5104 16.2212C30.5104 24.3703 23.9043 30.9764 15.7552 30.9764C7.60614 30.9764 1 24.3703 1 16.2212C1 8.07211 7.60614 1.46597 15.7552 1.46597C23.9043 1.46597 30.5104 8.07211 30.5104 16.2212Z" stroke="white" stroke-width="2"/>
        <path fill-rule="evenodd" clip-rule="evenodd" d="M7.13174 16.0549C11.7247 14.0538 14.7874 12.7346 16.3198 12.0972C20.6952 10.2773 21.6044 9.9612 22.197 9.95076C22.3273 9.94847 22.6187 9.98077 22.8075 10.1339C22.9669 10.2633 23.0107 10.438 23.0317 10.5606C23.0527 10.6832 23.0788 10.9626 23.0581 11.1808C22.821 13.6721 21.795 19.7178 21.2731 22.508C21.0522 23.6887 20.6173 24.0846 20.1963 24.1233C19.2814 24.2075 18.5867 23.5187 17.7005 22.9378C16.3138 22.0288 15.5305 21.463 14.1845 20.576C12.6289 19.5509 13.6373 18.9875 14.5238 18.0667C14.7558 17.8258 18.787 14.1591 18.8651 13.8264C18.8748 13.7848 18.8839 13.6298 18.7917 13.5479C18.6996 13.466 18.5637 13.494 18.4655 13.5163C18.3265 13.5479 16.1112 15.012 11.8199 17.9088C11.1911 18.3406 10.6216 18.5509 10.1113 18.5399C9.54876 18.5278 8.46666 18.2219 7.66222 17.9604C6.67555 17.6396 5.89137 17.4701 5.95965 16.9254C5.99522 16.6417 6.38591 16.3515 7.13174 16.0549Z" fill="white"/>
    </g>
        
    <g id="servicesVideo">
        <path d="M32.5 0.5625C41.5307 0.79975 49.052 3.9243 55.0638 9.93616C61.0757 15.948 64.2002 23.4693 64.4375 32.5C64.2002 41.5307 61.0757 49.052 55.0638 55.0638C49.052 61.0757 41.5307 64.2002 32.5 64.4375C23.4693 64.2002 15.948 61.0757 9.93616 55.0638C3.9243 49.052 0.79975 41.5307 0.5625 32.5C0.79975 23.4693 3.9243 15.948 9.93616 9.93616C15.948 3.9243 23.4693 0.79975 32.5 0.5625ZM32.5 59.875C40.2471 59.6849 46.6985 57.0113 51.8541 51.8541C57.0097 46.697 59.6834 40.2456 59.875 32.5C59.6849 24.7529 57.0113 18.3015 51.8541 13.1459C46.697 7.99025 40.2456 5.31663 32.5 5.125C24.7529 5.3151 18.3015 7.98873 13.1459 13.1459C7.99025 18.303 5.31663 24.7544 5.125 32.5C5.3151 40.2471 7.98873 46.6985 13.1459 51.8541C18.303 57.0097 24.7544 59.6834 32.5 59.875ZM29.0781 42.1953L43.6918 32.5L29.0781 22.8047V42.1953ZM29.8629 17.8156L47.6133 29.6507C48.6109 30.364 49.1098 31.3145 49.1098 32.5023C49.1098 33.6901 48.6109 34.6406 47.6133 35.3538L29.8629 47.189C29.2926 47.5692 28.6987 47.7714 28.0812 47.7958C27.4638 47.8201 26.8813 47.6772 26.3338 47.3669C25.7863 47.0567 25.3468 46.6407 25.0152 46.1191C24.6837 45.5974 24.5171 45.0035 24.5156 44.3374V20.6694C24.5156 20.0033 24.6822 19.4094 25.0152 18.8878C25.3483 18.3661 25.7878 17.9502 26.3338 17.6399C26.8798 17.3297 27.4622 17.1867 28.0812 17.2111C28.7002 17.2354 29.2941 17.4377 29.8629 17.8179V17.8156Z" fill="#2157F2"/>
    </g>

    <g id="servicesDesign">
        <path d="M7.38144 45.6342L21.4021 53.7279L37.5896 25.6889L23.5689 17.5951L7.38144 45.6342ZM5.64706 49.9701L8.03125 60.6654L18.5092 57.3401L5.64706 49.9701ZM25.8814 13.5483L39.9021 21.642L44.0207 14.5588L30 6.46506L25.8814 13.5483ZM0.515625 48.2358L28.2656 0.179688L50.3061 12.8984L22.5561 60.9545L4.63419 66.5924L0.515625 48.2358ZM28.2656 66.5924V61.9674H60.6406V66.5924H28.2656Z" fill="#2157F2"/>
    </g>

    <g id="servicesDevelop">
        <path d="M16.0938 5.125V59.875H11.5312V5.125H4.6875V59.875H50.3125V5.125H16.0938ZM2.40625 0.5625H52.5938C53.2599 0.5625 53.8066 0.776177 54.234 1.20353C54.6613 1.63089 54.875 2.17763 54.875 2.84375V62.1562C54.875 62.8224 54.6613 63.3691 54.234 63.7965C53.8066 64.2238 53.2599 64.4375 52.5938 64.4375H2.40625C1.74013 64.4375 1.19339 64.2238 0.766032 63.7965C0.338677 63.3691 0.125 62.8224 0.125 62.1562V2.84375C0.125 2.17763 0.338677 1.63089 0.766032 1.20353C1.19339 0.776177 1.74013 0.5625 2.40625 0.5625ZM25.2188 14.25H38.9062C40.4271 14.25 41.1875 15.0104 41.1875 16.5312C41.1875 18.0521 40.4271 18.8125 38.9062 18.8125H25.2188C23.6979 18.8125 22.9375 18.0521 22.9375 16.5312C22.9375 15.0104 23.6979 14.25 25.2188 14.25ZM25.2188 27.9375H38.9062C40.4271 27.9375 41.1875 28.6979 41.1875 30.2188C41.1875 31.7396 40.4271 32.5 38.9062 32.5H25.2188C23.6979 32.5 22.9375 31.7396 22.9375 30.2188C22.9375 28.6979 23.6979 27.9375 25.2188 27.9375ZM25.2188 41.625H38.9062C40.4271 41.625 41.1875 42.3854 41.1875 43.9062C41.1875 45.4271 40.4271 46.1875 38.9062 46.1875H25.2188C23.6979 46.1875 22.9375 45.4271 22.9375 43.9062C22.9375 42.3854 23.6979 41.625 25.2188 41.625Z" fill="#2157F2"/>
    </g>

    <g id="dots" opacity="0.3">
        <path fill-rule="evenodd" clip-rule="evenodd" d="M589.997 4.54493C589.997 2.0347 588.087 -8.34719e-08 585.732 -1.86452e-07C583.376 -2.89407e-07 581.466 2.0347 581.466 4.54493C581.466 7.05516 583.376 9.08986 585.732 9.08986C588.087 9.08986 589.997 7.05516 589.997 4.54493Z" fill="white"/>
        <path fill-rule="evenodd" clip-rule="evenodd" d="M552.981 4.54493C552.981 2.0347 551.072 -8.34719e-08 548.716 -1.86452e-07C546.36 -2.89407e-07 544.45 2.0347 544.45 4.54493C544.45 7.05516 546.36 9.08986 548.716 9.08986C551.072 9.08986 552.981 7.05516 552.981 4.54493Z" fill="white"/>
        <path fill-rule="evenodd" clip-rule="evenodd" d="M515.965 4.54493C515.965 2.0347 514.056 -8.34719e-08 511.7 -1.86452e-07C509.344 -2.89432e-07 507.434 2.0347 507.434 4.54493C507.434 7.05516 509.344 9.08986 511.7 9.08986C514.056 9.08986 515.965 7.05516 515.965 4.54493Z" fill="white"/>
        <path fill-rule="evenodd" clip-rule="evenodd" d="M478.949 4.54493C478.949 2.0347 477.039 -8.34974e-08 474.684 -1.86452e-07C472.328 -2.89432e-07 470.418 2.0347 470.418 4.54493C470.418 7.05516 472.328 9.08986 474.684 9.08986C477.039 9.08986 478.949 7.05516 478.949 4.54493Z" fill="white"/>
        <path fill-rule="evenodd" clip-rule="evenodd" d="M441.933 4.54493C441.933 2.0347 440.023 -8.34717e-08 437.668 -1.86452e-07C435.312 -2.89406e-07 433.402 2.0347 433.402 4.54493C433.402 7.05516 435.312 9.08986 437.668 9.08986C440.023 9.08986 441.933 7.05516 441.933 4.54493Z" fill="white"/>
        <path fill-rule="evenodd" clip-rule="evenodd" d="M404.917 4.54493C404.917 2.0347 403.007 -8.34974e-08 400.652 -1.86452e-07C398.296 -2.89432e-07 396.386 2.0347 396.386 4.54493C396.386 7.05516 398.296 9.08986 400.652 9.08986C403.007 9.08986 404.917 7.05516 404.917 4.54493Z" fill="white"/>
        <path fill-rule="evenodd" clip-rule="evenodd" d="M367.901 4.54493C367.901 2.0347 365.991 -8.34974e-08 363.636 -1.86452e-07C361.28 -2.89432e-07 359.37 2.0347 359.37 4.54493C359.37 7.05516 361.28 9.08986 363.636 9.08986C365.991 9.08986 367.901 7.05516 367.901 4.54493Z" fill="white"/>
        <path fill-rule="evenodd" clip-rule="evenodd" d="M330.885 4.54493C330.885 2.0347 328.975 -8.34973e-08 326.62 -1.86452e-07C324.264 -2.89432e-07 322.354 2.0347 322.354 4.54493C322.354 7.05516 324.264 9.08986 326.62 9.08986C328.975 9.08986 330.885 7.05516 330.885 4.54493Z" fill="white"/>
        <path fill-rule="evenodd" clip-rule="evenodd" d="M293.87 4.54493C293.87 2.0347 291.959 -8.34973e-08 289.604 -1.86477e-07C287.248 -2.89432e-07 285.339 2.0347 285.339 4.54493C285.339 7.05516 287.248 9.08986 289.604 9.08986C291.959 9.08986 293.87 7.05516 293.87 4.54493Z" fill="white"/>
        <path fill-rule="evenodd" clip-rule="evenodd" d="M256.854 4.54493C256.854 2.0347 254.943 -8.34973e-08 252.587 -1.86477e-07C250.232 -2.89432e-07 248.322 2.0347 248.322 4.54493C248.322 7.05516 250.232 9.08986 252.587 9.08986C254.943 9.08986 256.854 7.05516 256.854 4.54493Z" fill="white"/>
        <path fill-rule="evenodd" clip-rule="evenodd" d="M219.837 4.54493C219.837 2.0347 217.928 -8.34717e-08 215.572 -1.86452e-07C213.216 -2.89406e-07 211.306 2.0347 211.306 4.54493C211.306 7.05516 213.216 9.08986 215.572 9.08986C217.928 9.08986 219.837 7.05516 219.837 4.54493Z" fill="white"/>
        <path fill-rule="evenodd" clip-rule="evenodd" d="M182.821 4.54493C182.821 2.0347 180.912 -8.3472e-08 178.556 -1.86452e-07C176.2 -2.89407e-07 174.29 2.0347 174.29 4.54493C174.29 7.05516 176.2 9.08986 178.556 9.08986C180.912 9.08986 182.821 7.05516 182.821 4.54493Z" fill="white"/>
        <path fill-rule="evenodd" clip-rule="evenodd" d="M145.805 4.54493C145.805 2.0347 143.896 -8.3472e-08 141.54 -1.86452e-07C139.184 -2.89433e-07 137.274 2.0347 137.274 4.54493C137.274 7.05516 139.184 9.08986 141.54 9.08986C143.896 9.08986 145.805 7.05516 145.805 4.54493Z" fill="white"/>
        <path fill-rule="evenodd" clip-rule="evenodd" d="M108.79 4.54493C108.79 2.0347 106.879 -8.34976e-08 104.524 -1.86452e-07C102.168 -2.89433e-07 100.258 2.0347 100.258 4.54493C100.258 7.05516 102.168 9.08986 104.524 9.08986C106.879 9.08986 108.79 7.05516 108.79 4.54493Z" fill="white"/>
        <path fill-rule="evenodd" clip-rule="evenodd" d="M71.7734 4.54493C71.7734 2.0347 69.8632 -8.34976e-08 67.5079 -1.86452e-07C65.152 -2.89433e-07 63.2424 2.0347 63.2424 4.54493C63.2424 7.05516 65.152 9.08986 67.5079 9.08986C69.8632 9.08986 71.7734 7.05516 71.7734 4.54493Z" fill="white"/>
        <path fill-rule="evenodd" clip-rule="evenodd" d="M40.5991 4.54493C40.5991 2.0347 38.6889 -8.34976e-08 36.3336 -1.86452e-07C33.9777 -2.89433e-07 32.0681 2.0347 32.0681 4.54493C32.0681 7.05516 33.9777 9.08986 36.3336 9.08986C38.6889 9.08986 40.5991 7.05516 40.5991 4.54493Z" fill="white"/>
        <path fill-rule="evenodd" clip-rule="evenodd" d="M9.4248 4.54493C9.4248 2.0347 7.5146 -8.34976e-08 5.15869 -1.86478e-07C2.80336 -2.89433e-07 0.893738 2.0347 0.893738 4.54493C0.893737 7.05516 2.80336 9.08986 5.15869 9.08986C7.5146 9.08986 9.4248 7.05516 9.4248 4.54493Z" fill="white"/>
        <path fill-rule="evenodd" clip-rule="evenodd" d="M589.997 43.9858C589.997 41.4756 588.087 39.4409 585.732 39.4409C583.376 39.4409 581.466 41.4756 581.466 43.9858C581.466 46.4961 583.376 48.5308 585.732 48.5308C588.087 48.5308 589.997 46.4961 589.997 43.9858Z" fill="white"/>
        <path fill-rule="evenodd" clip-rule="evenodd" d="M552.981 43.9858C552.981 41.4756 551.072 39.4409 548.716 39.4409C546.36 39.4409 544.45 41.4756 544.45 43.9858C544.45 46.4961 546.36 48.5308 548.716 48.5308C551.072 48.5308 552.981 46.4961 552.981 43.9858Z" fill="white"/>
        <path fill-rule="evenodd" clip-rule="evenodd" d="M515.965 43.9858C515.965 41.4756 514.056 39.4409 511.7 39.4409C509.344 39.4409 507.434 41.4756 507.434 43.9858C507.434 46.4961 509.344 48.5308 511.7 48.5308C514.056 48.5308 515.965 46.4961 515.965 43.9858Z" fill="white"/>
        <path fill-rule="evenodd" clip-rule="evenodd" d="M478.949 43.9858C478.949 41.4756 477.039 39.4409 474.684 39.4409C472.328 39.4409 470.418 41.4756 470.418 43.9858C470.418 46.4961 472.328 48.5308 474.684 48.5308C477.039 48.5308 478.949 46.4961 478.949 43.9858Z" fill="white"/>
        <path fill-rule="evenodd" clip-rule="evenodd" d="M441.933 43.9858C441.933 41.4756 440.023 39.4409 437.668 39.4409C435.312 39.4409 433.402 41.4756 433.402 43.9858C433.402 46.4961 435.312 48.5308 437.668 48.5308C440.023 48.5308 441.933 46.4961 441.933 43.9858Z" fill="white"/>
        <path fill-rule="evenodd" clip-rule="evenodd" d="M404.917 43.9858C404.917 41.4756 403.007 39.4409 400.652 39.4409C398.296 39.4409 396.386 41.4756 396.386 43.9858C396.386 46.4961 398.296 48.5308 400.652 48.5308C403.007 48.5308 404.917 46.4961 404.917 43.9858Z" fill="white"/>
        <path fill-rule="evenodd" clip-rule="evenodd" d="M367.901 43.9858C367.901 41.4756 365.991 39.4409 363.636 39.4409C361.28 39.4409 359.37 41.4756 359.37 43.9858C359.37 46.4961 361.28 48.5308 363.636 48.5308C365.991 48.5308 367.901 46.4961 367.901 43.9858Z" fill="white"/>
        <path fill-rule="evenodd" clip-rule="evenodd" d="M330.885 43.9858C330.885 41.4756 328.975 39.4409 326.62 39.4409C324.264 39.4409 322.354 41.4756 322.354 43.9858C322.354 46.4961 324.264 48.5308 326.62 48.5308C328.975 48.5308 330.885 46.4961 330.885 43.9858Z" fill="white"/>
        <path fill-rule="evenodd" clip-rule="evenodd" d="M293.87 43.9858C293.87 41.4756 291.959 39.4409 289.604 39.4409C287.248 39.4409 285.339 41.4756 285.339 43.9858C285.339 46.4961 287.248 48.5308 289.604 48.5308C291.959 48.5308 293.87 46.4961 293.87 43.9858Z" fill="white"/>
        <path fill-rule="evenodd" clip-rule="evenodd" d="M256.854 43.9858C256.854 41.4756 254.943 39.4409 252.587 39.4409C250.232 39.4409 248.322 41.4756 248.322 43.9858C248.322 46.4961 250.232 48.5308 252.587 48.5308C254.943 48.5308 256.854 46.4961 256.854 43.9858Z" fill="white"/>
        <path fill-rule="evenodd" clip-rule="evenodd" d="M219.837 43.9858C219.837 41.4756 217.928 39.4409 215.572 39.4409C213.216 39.4409 211.306 41.4756 211.306 43.9858C211.306 46.4961 213.216 48.5308 215.572 48.5308C217.928 48.5308 219.837 46.4961 219.837 43.9858Z" fill="white"/>
        <path fill-rule="evenodd" clip-rule="evenodd" d="M182.821 43.9858C182.821 41.4756 180.912 39.4409 178.556 39.4409C176.2 39.4409 174.29 41.4756 174.29 43.9858C174.29 46.4961 176.2 48.5308 178.556 48.5308C180.912 48.5308 182.821 46.4961 182.821 43.9858Z" fill="white"/>
        <path fill-rule="evenodd" clip-rule="evenodd" d="M145.805 43.9858C145.805 41.4756 143.896 39.4409 141.54 39.4409C139.184 39.4409 137.274 41.4756 137.274 43.9858C137.274 46.4961 139.184 48.5308 141.54 48.5308C143.896 48.5308 145.805 46.4961 145.805 43.9858Z" fill="white"/>
        <path fill-rule="evenodd" clip-rule="evenodd" d="M108.79 43.9858C108.79 41.4756 106.879 39.4409 104.524 39.4409C102.168 39.4409 100.258 41.4756 100.258 43.9858C100.258 46.4961 102.168 48.5308 104.524 48.5308C106.879 48.5308 108.79 46.4961 108.79 43.9858Z" fill="white"/>
        <path fill-rule="evenodd" clip-rule="evenodd" d="M71.7734 43.9858C71.7734 41.4756 69.8632 39.4409 67.5079 39.4409C65.152 39.4409 63.2424 41.4756 63.2424 43.9858C63.2424 46.4961 65.152 48.5308 67.5079 48.5308C69.8632 48.5308 71.7734 46.4961 71.7734 43.9858Z" fill="white"/>
        <path fill-rule="evenodd" clip-rule="evenodd" d="M40.5991 43.9858C40.5991 41.4756 38.6889 39.4409 36.3336 39.4409C33.9777 39.4409 32.0681 41.4756 32.0681 43.9858C32.0681 46.4961 33.9777 48.5308 36.3336 48.5308C38.6889 48.5308 40.5991 46.4961 40.5991 43.9858Z" fill="white"/>
        <path fill-rule="evenodd" clip-rule="evenodd" d="M9.4248 43.9858C9.4248 41.4756 7.5146 39.4409 5.15869 39.4409C2.80336 39.4409 0.893738 41.4756 0.893738 43.9858C0.893737 46.4961 2.80336 48.5308 5.15869 48.5308C7.5146 48.5308 9.4248 46.4961 9.4248 43.9858Z" fill="white"/>
        <path fill-rule="evenodd" clip-rule="evenodd" d="M589.997 83.4263C589.997 80.916 588.087 78.8813 585.732 78.8813C583.376 78.8813 581.466 80.916 581.466 83.4263C581.466 85.9365 583.376 87.9712 585.732 87.9712C588.087 87.9712 589.997 85.9365 589.997 83.4263Z" fill="white"/>
        <path fill-rule="evenodd" clip-rule="evenodd" d="M552.981 83.4263C552.981 80.916 551.072 78.8813 548.716 78.8813C546.36 78.8813 544.45 80.916 544.45 83.4263C544.45 85.9365 546.36 87.9712 548.716 87.9712C551.072 87.9712 552.981 85.9365 552.981 83.4263Z" fill="white"/>
        <path fill-rule="evenodd" clip-rule="evenodd" d="M515.965 83.4263C515.965 80.916 514.056 78.8813 511.7 78.8813C509.344 78.8813 507.434 80.916 507.434 83.4263C507.434 85.9365 509.344 87.9712 511.7 87.9712C514.056 87.9712 515.965 85.9365 515.965 83.4263Z" fill="white"/>
        <path fill-rule="evenodd" clip-rule="evenodd" d="M478.949 83.4263C478.949 80.916 477.039 78.8813 474.684 78.8813C472.328 78.8813 470.418 80.916 470.418 83.4263C470.418 85.9365 472.328 87.9712 474.684 87.9712C477.039 87.9712 478.949 85.9365 478.949 83.4263Z" fill="white"/>
        <path fill-rule="evenodd" clip-rule="evenodd" d="M441.933 83.4263C441.933 80.916 440.023 78.8813 437.668 78.8813C435.312 78.8813 433.402 80.916 433.402 83.4263C433.402 85.9365 435.312 87.9712 437.668 87.9712C440.023 87.9712 441.933 85.9365 441.933 83.4263Z" fill="white"/>
        <path fill-rule="evenodd" clip-rule="evenodd" d="M404.917 83.4263C404.917 80.916 403.007 78.8813 400.652 78.8813C398.296 78.8813 396.386 80.916 396.386 83.4263C396.386 85.9365 398.296 87.9712 400.652 87.9712C403.007 87.9712 404.917 85.9365 404.917 83.4263Z" fill="white"/>
        <path fill-rule="evenodd" clip-rule="evenodd" d="M367.901 83.4263C367.901 80.916 365.991 78.8813 363.636 78.8813C361.28 78.8813 359.37 80.916 359.37 83.4263C359.37 85.9365 361.28 87.9712 363.636 87.9712C365.991 87.9712 367.901 85.9365 367.901 83.4263Z" fill="white"/>
        <path fill-rule="evenodd" clip-rule="evenodd" d="M330.885 83.4263C330.885 80.916 328.975 78.8813 326.62 78.8813C324.264 78.8813 322.354 80.916 322.354 83.4263C322.354 85.9365 324.264 87.9712 326.62 87.9712C328.975 87.9712 330.885 85.9365 330.885 83.4263Z" fill="white"/>
        <path fill-rule="evenodd" clip-rule="evenodd" d="M293.87 83.4263C293.87 80.916 291.959 78.8813 289.604 78.8813C287.248 78.8813 285.339 80.916 285.339 83.4263C285.339 85.9365 287.248 87.9712 289.604 87.9712C291.959 87.9712 293.87 85.9365 293.87 83.4263Z" fill="white"/>
        <path fill-rule="evenodd" clip-rule="evenodd" d="M256.854 83.4263C256.854 80.916 254.943 78.8813 252.587 78.8813C250.232 78.8813 248.322 80.916 248.322 83.4263C248.322 85.9365 250.232 87.9712 252.587 87.9712C254.943 87.9712 256.854 85.9365 256.854 83.4263Z" fill="white"/>
        <path fill-rule="evenodd" clip-rule="evenodd" d="M219.837 83.4263C219.837 80.916 217.928 78.8813 215.572 78.8813C213.216 78.8813 211.306 80.916 211.306 83.4263C211.306 85.9365 213.216 87.9712 215.572 87.9712C217.928 87.9712 219.837 85.9365 219.837 83.4263Z" fill="white"/>
        <path fill-rule="evenodd" clip-rule="evenodd" d="M182.821 83.4263C182.821 80.916 180.912 78.8813 178.556 78.8813C176.2 78.8813 174.29 80.916 174.29 83.4263C174.29 85.9365 176.2 87.9712 178.556 87.9712C180.912 87.9712 182.821 85.9365 182.821 83.4263Z" fill="white"/>
        <path fill-rule="evenodd" clip-rule="evenodd" d="M145.805 83.4263C145.805 80.916 143.896 78.8813 141.54 78.8813C139.184 78.8813 137.274 80.916 137.274 83.4263C137.274 85.9365 139.184 87.9712 141.54 87.9712C143.896 87.9712 145.805 85.9365 145.805 83.4263Z" fill="white"/>
        <path fill-rule="evenodd" clip-rule="evenodd" d="M108.79 83.4263C108.79 80.916 106.879 78.8813 104.524 78.8813C102.168 78.8813 100.258 80.916 100.258 83.4263C100.258 85.9365 102.168 87.9712 104.524 87.9712C106.879 87.9712 108.79 85.9365 108.79 83.4263Z" fill="white"/>
        <path fill-rule="evenodd" clip-rule="evenodd" d="M71.7734 83.4263C71.7734 80.916 69.8632 78.8813 67.5079 78.8813C65.152 78.8813 63.2424 80.916 63.2424 83.4263C63.2424 85.9365 65.152 87.9712 67.5079 87.9712C69.8632 87.9712 71.7734 85.9365 71.7734 83.4263Z" fill="white"/>
        <path fill-rule="evenodd" clip-rule="evenodd" d="M40.5991 83.4263C40.5991 80.916 38.6889 78.8813 36.3336 78.8813C33.9777 78.8813 32.0681 80.916 32.0681 83.4263C32.0681 85.9365 33.9777 87.9712 36.3336 87.9712C38.6889 87.9712 40.5991 85.9365 40.5991 83.4263Z" fill="white"/>
        <path fill-rule="evenodd" clip-rule="evenodd" d="M9.4248 83.4263C9.4248 80.916 7.5146 78.8813 5.15869 78.8813C2.80336 78.8813 0.893738 80.916 0.893738 83.4263C0.893737 85.9365 2.80336 87.9712 5.15869 87.9712C7.5146 87.9712 9.4248 85.9365 9.4248 83.4263Z" fill="white"/>
        <path fill-rule="evenodd" clip-rule="evenodd" d="M589.997 122.867C589.997 120.356 588.087 118.322 585.732 118.322C583.376 118.322 581.466 120.356 581.466 122.867C581.466 125.377 583.376 127.412 585.732 127.412C588.087 127.412 589.997 125.377 589.997 122.867Z" fill="white"/>
        <path fill-rule="evenodd" clip-rule="evenodd" d="M552.981 122.867C552.981 120.356 551.072 118.322 548.716 118.322C546.36 118.322 544.45 120.356 544.45 122.867C544.45 125.377 546.36 127.412 548.716 127.412C551.072 127.412 552.981 125.377 552.981 122.867Z" fill="white"/>
        <path fill-rule="evenodd" clip-rule="evenodd" d="M515.965 122.867C515.965 120.356 514.056 118.322 511.7 118.322C509.344 118.322 507.434 120.356 507.434 122.867C507.434 125.377 509.344 127.412 511.7 127.412C514.056 127.412 515.965 125.377 515.965 122.867Z" fill="white"/>
        <path fill-rule="evenodd" clip-rule="evenodd" d="M478.949 122.867C478.949 120.356 477.039 118.322 474.684 118.322C472.328 118.322 470.418 120.356 470.418 122.867C470.418 125.377 472.328 127.412 474.684 127.412C477.039 127.412 478.949 125.377 478.949 122.867Z" fill="white"/>
        <path fill-rule="evenodd" clip-rule="evenodd" d="M441.933 122.867C441.933 120.356 440.023 118.322 437.668 118.322C435.312 118.322 433.402 120.356 433.402 122.867C433.402 125.377 435.312 127.412 437.668 127.412C440.023 127.412 441.933 125.377 441.933 122.867Z" fill="white"/>
        <path fill-rule="evenodd" clip-rule="evenodd" d="M404.917 122.867C404.917 120.356 403.007 118.322 400.652 118.322C398.296 118.322 396.386 120.356 396.386 122.867C396.386 125.377 398.296 127.412 400.652 127.412C403.007 127.412 404.917 125.377 404.917 122.867Z" fill="white"/>
        <path fill-rule="evenodd" clip-rule="evenodd" d="M367.901 122.867C367.901 120.356 365.991 118.322 363.636 118.322C361.28 118.322 359.37 120.356 359.37 122.867C359.37 125.377 361.28 127.412 363.636 127.412C365.991 127.412 367.901 125.377 367.901 122.867Z" fill="white"/>
        <path fill-rule="evenodd" clip-rule="evenodd" d="M330.885 122.867C330.885 120.356 328.975 118.322 326.62 118.322C324.264 118.322 322.354 120.356 322.354 122.867C322.354 125.377 324.264 127.412 326.62 127.412C328.975 127.412 330.885 125.377 330.885 122.867Z" fill="white"/>
        <path fill-rule="evenodd" clip-rule="evenodd" d="M293.87 122.867C293.87 120.356 291.959 118.322 289.604 118.322C287.248 118.322 285.339 120.356 285.339 122.867C285.339 125.377 287.248 127.412 289.604 127.412C291.959 127.412 293.87 125.377 293.87 122.867Z" fill="white"/>
        <path fill-rule="evenodd" clip-rule="evenodd" d="M256.854 122.867C256.854 120.356 254.943 118.322 252.587 118.322C250.232 118.322 248.322 120.356 248.322 122.867C248.322 125.377 250.232 127.412 252.587 127.412C254.943 127.412 256.854 125.377 256.854 122.867Z" fill="white"/>
        <path fill-rule="evenodd" clip-rule="evenodd" d="M219.837 122.867C219.837 120.356 217.928 118.322 215.572 118.322C213.216 118.322 211.306 120.356 211.306 122.867C211.306 125.377 213.216 127.412 215.572 127.412C217.928 127.412 219.837 125.377 219.837 122.867Z" fill="white"/>
        <path fill-rule="evenodd" clip-rule="evenodd" d="M182.821 122.867C182.821 120.356 180.912 118.322 178.556 118.322C176.2 118.322 174.29 120.356 174.29 122.867C174.29 125.377 176.2 127.412 178.556 127.412C180.912 127.412 182.821 125.377 182.821 122.867Z" fill="white"/>
        <path fill-rule="evenodd" clip-rule="evenodd" d="M145.805 122.867C145.805 120.356 143.896 118.322 141.54 118.322C139.184 118.322 137.274 120.356 137.274 122.867C137.274 125.377 139.184 127.412 141.54 127.412C143.896 127.412 145.805 125.377 145.805 122.867Z" fill="white"/>
        <path fill-rule="evenodd" clip-rule="evenodd" d="M108.79 122.867C108.79 120.356 106.879 118.322 104.524 118.322C102.168 118.322 100.258 120.356 100.258 122.867C100.258 125.377 102.168 127.412 104.524 127.412C106.879 127.412 108.79 125.377 108.79 122.867Z" fill="white"/>
        <path fill-rule="evenodd" clip-rule="evenodd" d="M71.7734 122.867C71.7734 120.356 69.8632 118.322 67.5079 118.322C65.152 118.322 63.2424 120.356 63.2424 122.867C63.2424 125.377 65.152 127.412 67.5079 127.412C69.8632 127.412 71.7734 125.377 71.7734 122.867Z" fill="white"/>
        <path fill-rule="evenodd" clip-rule="evenodd" d="M40.5991 122.867C40.5991 120.356 38.6889 118.322 36.3336 118.322C33.9777 118.322 32.0681 120.356 32.0681 122.867C32.0681 125.377 33.9777 127.412 36.3336 127.412C38.6889 127.412 40.5991 125.377 40.5991 122.867Z" fill="white"/>
        <path fill-rule="evenodd" clip-rule="evenodd" d="M9.4248 122.867C9.4248 120.356 7.5146 118.322 5.15869 118.322C2.80336 118.322 0.893738 120.356 0.893738 122.867C0.893737 125.377 2.80336 127.412 5.15869 127.412C7.5146 127.412 9.4248 125.377 9.4248 122.867Z" fill="white"/>
        <path fill-rule="evenodd" clip-rule="evenodd" d="M589.997 162.308C589.997 159.797 588.087 157.763 585.732 157.763C583.376 157.763 581.466 159.797 581.466 162.308C581.466 164.818 583.376 166.853 585.732 166.853C588.087 166.853 589.997 164.818 589.997 162.308Z" fill="white"/>
        <path fill-rule="evenodd" clip-rule="evenodd" d="M552.981 162.308C552.981 159.797 551.072 157.763 548.716 157.763C546.36 157.763 544.45 159.797 544.45 162.308C544.45 164.818 546.36 166.853 548.716 166.853C551.072 166.853 552.981 164.818 552.981 162.308Z" fill="white"/>
        <path fill-rule="evenodd" clip-rule="evenodd" d="M515.965 162.308C515.965 159.797 514.056 157.763 511.7 157.763C509.344 157.763 507.434 159.797 507.434 162.308C507.434 164.818 509.344 166.853 511.7 166.853C514.056 166.853 515.965 164.818 515.965 162.308Z" fill="white"/>
        <path fill-rule="evenodd" clip-rule="evenodd" d="M478.949 162.308C478.949 159.797 477.039 157.763 474.684 157.763C472.328 157.763 470.418 159.797 470.418 162.308C470.418 164.818 472.328 166.853 474.684 166.853C477.039 166.853 478.949 164.818 478.949 162.308Z" fill="white"/>
        <path fill-rule="evenodd" clip-rule="evenodd" d="M441.933 162.308C441.933 159.797 440.023 157.763 437.668 157.763C435.312 157.763 433.402 159.797 433.402 162.308C433.402 164.818 435.312 166.853 437.668 166.853C440.023 166.853 441.933 164.818 441.933 162.308Z" fill="white"/>
        <path fill-rule="evenodd" clip-rule="evenodd" d="M404.917 162.308C404.917 159.797 403.007 157.763 400.652 157.763C398.296 157.763 396.386 159.797 396.386 162.308C396.386 164.818 398.296 166.853 400.652 166.853C403.007 166.853 404.917 164.818 404.917 162.308Z" fill="white"/>
        <path fill-rule="evenodd" clip-rule="evenodd" d="M367.901 162.308C367.901 159.797 365.991 157.763 363.636 157.763C361.28 157.763 359.37 159.797 359.37 162.308C359.37 164.818 361.28 166.853 363.636 166.853C365.991 166.853 367.901 164.818 367.901 162.308Z" fill="white"/>
        <path fill-rule="evenodd" clip-rule="evenodd" d="M330.885 162.308C330.885 159.797 328.975 157.763 326.62 157.763C324.264 157.763 322.354 159.797 322.354 162.308C322.354 164.818 324.264 166.853 326.62 166.853C328.975 166.853 330.885 164.818 330.885 162.308Z" fill="white"/>
        <path fill-rule="evenodd" clip-rule="evenodd" d="M293.87 162.308C293.87 159.797 291.959 157.763 289.604 157.763C287.248 157.763 285.339 159.797 285.339 162.308C285.339 164.818 287.248 166.853 289.604 166.853C291.959 166.853 293.87 164.818 293.87 162.308Z" fill="white"/>
        <path fill-rule="evenodd" clip-rule="evenodd" d="M256.854 162.308C256.854 159.797 254.943 157.763 252.587 157.763C250.232 157.763 248.322 159.797 248.322 162.308C248.322 164.818 250.232 166.853 252.587 166.853C254.943 166.853 256.854 164.818 256.854 162.308Z" fill="white"/>
        <path fill-rule="evenodd" clip-rule="evenodd" d="M219.837 162.308C219.837 159.797 217.928 157.763 215.572 157.763C213.216 157.763 211.306 159.797 211.306 162.308C211.306 164.818 213.216 166.853 215.572 166.853C217.928 166.853 219.837 164.818 219.837 162.308Z" fill="white"/>
        <path fill-rule="evenodd" clip-rule="evenodd" d="M182.821 162.308C182.821 159.797 180.912 157.763 178.556 157.763C176.2 157.763 174.29 159.797 174.29 162.308C174.29 164.818 176.2 166.853 178.556 166.853C180.912 166.853 182.821 164.818 182.821 162.308Z" fill="white"/>
        <path fill-rule="evenodd" clip-rule="evenodd" d="M145.805 162.308C145.805 159.797 143.896 157.763 141.54 157.763C139.184 157.763 137.274 159.797 137.274 162.308C137.274 164.818 139.184 166.853 141.54 166.853C143.896 166.853 145.805 164.818 145.805 162.308Z" fill="white"/>
        <path fill-rule="evenodd" clip-rule="evenodd" d="M108.79 162.308C108.79 159.797 106.879 157.763 104.524 157.763C102.168 157.763 100.258 159.797 100.258 162.308C100.258 164.818 102.168 166.853 104.524 166.853C106.879 166.853 108.79 164.818 108.79 162.308Z" fill="white"/>
        <path fill-rule="evenodd" clip-rule="evenodd" d="M71.7734 162.308C71.7734 159.797 69.8632 157.763 67.5079 157.763C65.152 157.763 63.2424 159.797 63.2424 162.308C63.2424 164.818 65.152 166.853 67.5079 166.853C69.8632 166.853 71.7734 164.818 71.7734 162.308Z" fill="white"/>
        <path fill-rule="evenodd" clip-rule="evenodd" d="M40.5991 162.308C40.5991 159.797 38.6889 157.763 36.3336 157.763C33.9777 157.763 32.0681 159.797 32.0681 162.308C32.0681 164.818 33.9777 166.853 36.3336 166.853C38.6889 166.853 40.5991 164.818 40.5991 162.308Z" fill="white"/>
        <path fill-rule="evenodd" clip-rule="evenodd" d="M9.4248 162.308C9.4248 159.797 7.5146 157.763 5.15869 157.763C2.80336 157.763 0.893738 159.797 0.893738 162.308C0.893737 164.818 2.80336 166.853 5.15869 166.853C7.5146 166.853 9.4248 164.818 9.4248 162.308Z" fill="white"/>
        <path fill-rule="evenodd" clip-rule="evenodd" d="M589.997 201.749C589.997 199.238 588.087 197.204 585.732 197.204C583.376 197.204 581.466 199.238 581.466 201.749C581.466 204.259 583.376 206.293 585.732 206.293C588.087 206.293 589.997 204.259 589.997 201.749Z" fill="white"/>
        <path fill-rule="evenodd" clip-rule="evenodd" d="M552.981 201.749C552.981 199.238 551.072 197.204 548.716 197.204C546.36 197.204 544.45 199.238 544.45 201.749C544.45 204.259 546.36 206.293 548.716 206.293C551.072 206.293 552.981 204.259 552.981 201.749Z" fill="white"/>
        <path fill-rule="evenodd" clip-rule="evenodd" d="M515.965 201.749C515.965 199.238 514.056 197.204 511.7 197.204C509.344 197.204 507.434 199.238 507.434 201.749C507.434 204.259 509.344 206.293 511.7 206.293C514.056 206.293 515.965 204.259 515.965 201.749Z" fill="white"/>
        <path fill-rule="evenodd" clip-rule="evenodd" d="M478.949 201.749C478.949 199.238 477.039 197.204 474.684 197.204C472.328 197.204 470.418 199.238 470.418 201.749C470.418 204.259 472.328 206.293 474.684 206.293C477.039 206.293 478.949 204.259 478.949 201.749Z" fill="white"/>
        <path fill-rule="evenodd" clip-rule="evenodd" d="M441.933 201.749C441.933 199.238 440.023 197.204 437.668 197.204C435.312 197.204 433.402 199.238 433.402 201.749C433.402 204.259 435.312 206.293 437.668 206.293C440.023 206.293 441.933 204.259 441.933 201.749Z" fill="white"/>
        <path fill-rule="evenodd" clip-rule="evenodd" d="M404.917 201.749C404.917 199.238 403.007 197.204 400.652 197.204C398.296 197.204 396.386 199.238 396.386 201.749C396.386 204.259 398.296 206.293 400.652 206.293C403.007 206.293 404.917 204.259 404.917 201.749Z" fill="white"/>
        <path fill-rule="evenodd" clip-rule="evenodd" d="M367.901 201.749C367.901 199.238 365.991 197.204 363.636 197.204C361.28 197.204 359.37 199.238 359.37 201.749C359.37 204.259 361.28 206.293 363.636 206.293C365.991 206.293 367.901 204.259 367.901 201.749Z" fill="white"/>
        <path fill-rule="evenodd" clip-rule="evenodd" d="M330.885 201.749C330.885 199.238 328.975 197.204 326.62 197.204C324.264 197.204 322.354 199.238 322.354 201.749C322.354 204.259 324.264 206.293 326.62 206.293C328.975 206.293 330.885 204.259 330.885 201.749Z" fill="white"/>
        <path fill-rule="evenodd" clip-rule="evenodd" d="M293.87 201.749C293.87 199.238 291.959 197.204 289.604 197.204C287.248 197.204 285.339 199.238 285.339 201.749C285.339 204.259 287.248 206.293 289.604 206.293C291.959 206.293 293.87 204.259 293.87 201.749Z" fill="white"/>
        <path fill-rule="evenodd" clip-rule="evenodd" d="M256.854 201.749C256.854 199.238 254.943 197.204 252.587 197.204C250.232 197.204 248.322 199.238 248.322 201.749C248.322 204.259 250.232 206.293 252.587 206.293C254.943 206.293 256.854 204.259 256.854 201.749Z" fill="white"/>
        <path fill-rule="evenodd" clip-rule="evenodd" d="M219.837 201.749C219.837 199.238 217.928 197.204 215.572 197.204C213.216 197.204 211.306 199.238 211.306 201.749C211.306 204.259 213.216 206.293 215.572 206.293C217.928 206.293 219.837 204.259 219.837 201.749Z" fill="white"/>
        <path fill-rule="evenodd" clip-rule="evenodd" d="M182.821 201.749C182.821 199.238 180.912 197.204 178.556 197.204C176.2 197.204 174.29 199.238 174.29 201.749C174.29 204.259 176.2 206.293 178.556 206.293C180.912 206.293 182.821 204.259 182.821 201.749Z" fill="white"/>
        <path fill-rule="evenodd" clip-rule="evenodd" d="M145.805 201.749C145.805 199.238 143.896 197.204 141.54 197.204C139.184 197.204 137.274 199.238 137.274 201.749C137.274 204.259 139.184 206.293 141.54 206.293C143.896 206.293 145.805 204.259 145.805 201.749Z" fill="white"/>
        <path fill-rule="evenodd" clip-rule="evenodd" d="M108.79 201.749C108.79 199.238 106.879 197.204 104.524 197.204C102.168 197.204 100.258 199.238 100.258 201.749C100.258 204.259 102.168 206.293 104.524 206.293C106.879 206.293 108.79 204.259 108.79 201.749Z" fill="white"/>
        <path fill-rule="evenodd" clip-rule="evenodd" d="M71.7734 201.749C71.7734 199.238 69.8632 197.204 67.5079 197.204C65.152 197.204 63.2424 199.238 63.2424 201.749C63.2424 204.259 65.152 206.293 67.5079 206.293C69.8632 206.293 71.7734 204.259 71.7734 201.749Z" fill="white"/>
        <path fill-rule="evenodd" clip-rule="evenodd" d="M40.5991 201.749C40.5991 199.238 38.6889 197.204 36.3336 197.204C33.9777 197.204 32.0681 199.238 32.0681 201.749C32.0681 204.259 33.9777 206.293 36.3336 206.293C38.6889 206.293 40.5991 204.259 40.5991 201.749Z" fill="white"/>
        <path fill-rule="evenodd" clip-rule="evenodd" d="M9.4248 201.749C9.4248 199.238 7.5146 197.204 5.15869 197.204C2.80336 197.204 0.893738 199.238 0.893738 201.749C0.893737 204.259 2.80336 206.293 5.15869 206.293C7.5146 206.293 9.4248 204.259 9.4248 201.749Z" fill="white"/>
        <path fill-rule="evenodd" clip-rule="evenodd" d="M589.997 241.189C589.997 238.679 588.087 236.644 585.732 236.644C583.376 236.644 581.466 238.679 581.466 241.189C581.466 243.699 583.376 245.734 585.732 245.734C588.087 245.734 589.997 243.699 589.997 241.189Z" fill="white"/>
        <path fill-rule="evenodd" clip-rule="evenodd" d="M552.981 241.189C552.981 238.679 551.072 236.644 548.716 236.644C546.36 236.644 544.45 238.679 544.45 241.189C544.45 243.699 546.36 245.734 548.716 245.734C551.072 245.734 552.981 243.699 552.981 241.189Z" fill="white"/>
        <path fill-rule="evenodd" clip-rule="evenodd" d="M515.965 241.189C515.965 238.679 514.056 236.644 511.7 236.644C509.344 236.644 507.434 238.679 507.434 241.189C507.434 243.699 509.344 245.734 511.7 245.734C514.056 245.734 515.965 243.699 515.965 241.189Z" fill="white"/>
        <path fill-rule="evenodd" clip-rule="evenodd" d="M478.949 241.189C478.949 238.679 477.039 236.644 474.684 236.644C472.328 236.644 470.418 238.679 470.418 241.189C470.418 243.699 472.328 245.734 474.684 245.734C477.039 245.734 478.949 243.699 478.949 241.189Z" fill="white"/>
        <path fill-rule="evenodd" clip-rule="evenodd" d="M441.933 241.189C441.933 238.679 440.023 236.644 437.668 236.644C435.312 236.644 433.402 238.679 433.402 241.189C433.402 243.699 435.312 245.734 437.668 245.734C440.023 245.734 441.933 243.699 441.933 241.189Z" fill="white"/>
        <path fill-rule="evenodd" clip-rule="evenodd" d="M404.917 241.189C404.917 238.679 403.007 236.644 400.652 236.644C398.296 236.644 396.386 238.679 396.386 241.189C396.386 243.699 398.296 245.734 400.652 245.734C403.007 245.734 404.917 243.699 404.917 241.189Z" fill="white"/>
        <path fill-rule="evenodd" clip-rule="evenodd" d="M367.901 241.189C367.901 238.679 365.991 236.644 363.636 236.644C361.28 236.644 359.37 238.679 359.37 241.189C359.37 243.699 361.28 245.734 363.636 245.734C365.991 245.734 367.901 243.699 367.901 241.189Z" fill="white"/>
        <path fill-rule="evenodd" clip-rule="evenodd" d="M330.885 241.189C330.885 238.679 328.975 236.644 326.62 236.644C324.264 236.644 322.354 238.679 322.354 241.189C322.354 243.699 324.264 245.734 326.62 245.734C328.975 245.734 330.885 243.699 330.885 241.189Z" fill="white"/>
        <path fill-rule="evenodd" clip-rule="evenodd" d="M293.87 241.189C293.87 238.679 291.959 236.644 289.604 236.644C287.248 236.644 285.339 238.679 285.339 241.189C285.339 243.699 287.248 245.734 289.604 245.734C291.959 245.734 293.87 243.699 293.87 241.189Z" fill="white"/>
        <path fill-rule="evenodd" clip-rule="evenodd" d="M256.854 241.189C256.854 238.679 254.943 236.644 252.587 236.644C250.232 236.644 248.322 238.679 248.322 241.189C248.322 243.699 250.232 245.734 252.587 245.734C254.943 245.734 256.854 243.699 256.854 241.189Z" fill="white"/>
        <path fill-rule="evenodd" clip-rule="evenodd" d="M219.837 241.189C219.837 238.679 217.928 236.644 215.572 236.644C213.216 236.644 211.306 238.679 211.306 241.189C211.306 243.699 213.216 245.734 215.572 245.734C217.928 245.734 219.837 243.699 219.837 241.189Z" fill="white"/>
        <path fill-rule="evenodd" clip-rule="evenodd" d="M182.821 241.189C182.821 238.679 180.912 236.644 178.556 236.644C176.2 236.644 174.29 238.679 174.29 241.189C174.29 243.699 176.2 245.734 178.556 245.734C180.912 245.734 182.821 243.699 182.821 241.189Z" fill="white"/>
        <path fill-rule="evenodd" clip-rule="evenodd" d="M145.805 241.189C145.805 238.679 143.896 236.644 141.54 236.644C139.184 236.644 137.274 238.679 137.274 241.189C137.274 243.699 139.184 245.734 141.54 245.734C143.896 245.734 145.805 243.699 145.805 241.189Z" fill="white"/>
        <path fill-rule="evenodd" clip-rule="evenodd" d="M108.79 241.189C108.79 238.679 106.879 236.644 104.524 236.644C102.168 236.644 100.258 238.679 100.258 241.189C100.258 243.699 102.168 245.734 104.524 245.734C106.879 245.734 108.79 243.699 108.79 241.189Z" fill="white"/>
        <path fill-rule="evenodd" clip-rule="evenodd" d="M71.7734 241.189C71.7734 238.679 69.8632 236.644 67.5079 236.644C65.152 236.644 63.2424 238.679 63.2424 241.189C63.2424 243.699 65.152 245.734 67.5079 245.734C69.8632 245.734 71.7734 243.699 71.7734 241.189Z" fill="white"/>
        <path fill-rule="evenodd" clip-rule="evenodd" d="M40.5991 241.189C40.5991 238.679 38.6889 236.644 36.3336 236.644C33.9777 236.644 32.0681 238.679 32.0681 241.189C32.0681 243.699 33.9777 245.734 36.3336 245.734C38.6889 245.734 40.5991 243.699 40.5991 241.189Z" fill="white"/>
        <path fill-rule="evenodd" clip-rule="evenodd" d="M9.4248 241.189C9.4248 238.679 7.5146 236.644 5.15869 236.644C2.80336 236.644 0.893738 238.679 0.893738 241.189C0.893737 243.699 2.80336 245.734 5.15869 245.734C7.5146 245.734 9.4248 243.699 9.4248 241.189Z" fill="white"/>
        <path fill-rule="evenodd" clip-rule="evenodd" d="M589.997 280.629C589.997 278.12 588.087 276.084 585.732 276.084C583.376 276.084 581.466 278.12 581.466 280.629C581.466 283.14 583.376 285.174 585.732 285.174C588.087 285.174 589.997 283.14 589.997 280.629Z" fill="white"/>
        <path fill-rule="evenodd" clip-rule="evenodd" d="M552.981 280.629C552.981 278.12 551.072 276.084 548.716 276.084C546.36 276.084 544.45 278.12 544.45 280.629C544.45 283.14 546.36 285.174 548.716 285.174C551.072 285.174 552.981 283.14 552.981 280.629Z" fill="white"/>
        <path fill-rule="evenodd" clip-rule="evenodd" d="M515.965 280.629C515.965 278.12 514.056 276.084 511.7 276.084C509.344 276.084 507.434 278.12 507.434 280.629C507.434 283.14 509.344 285.174 511.7 285.174C514.056 285.174 515.965 283.14 515.965 280.629Z" fill="white"/>
        <path fill-rule="evenodd" clip-rule="evenodd" d="M478.949 280.629C478.949 278.12 477.039 276.084 474.684 276.084C472.328 276.084 470.418 278.12 470.418 280.629C470.418 283.14 472.328 285.174 474.684 285.174C477.039 285.174 478.949 283.14 478.949 280.629Z" fill="white"/>
        <path fill-rule="evenodd" clip-rule="evenodd" d="M441.933 280.629C441.933 278.12 440.023 276.084 437.668 276.084C435.312 276.084 433.402 278.12 433.402 280.629C433.402 283.14 435.312 285.174 437.668 285.174C440.023 285.174 441.933 283.14 441.933 280.629Z" fill="white"/>
        <path fill-rule="evenodd" clip-rule="evenodd" d="M404.917 280.629C404.917 278.12 403.007 276.084 400.652 276.084C398.296 276.084 396.386 278.12 396.386 280.629C396.386 283.14 398.296 285.174 400.652 285.174C403.007 285.174 404.917 283.14 404.917 280.629Z" fill="white"/>
        <path fill-rule="evenodd" clip-rule="evenodd" d="M367.901 280.629C367.901 278.12 365.991 276.084 363.636 276.084C361.28 276.084 359.37 278.12 359.37 280.629C359.37 283.14 361.28 285.174 363.636 285.174C365.991 285.174 367.901 283.14 367.901 280.629Z" fill="white"/>
        <path fill-rule="evenodd" clip-rule="evenodd" d="M330.885 280.629C330.885 278.12 328.975 276.084 326.62 276.084C324.264 276.084 322.354 278.12 322.354 280.629C322.354 283.14 324.264 285.174 326.62 285.174C328.975 285.174 330.885 283.14 330.885 280.629Z" fill="white"/>
        <path fill-rule="evenodd" clip-rule="evenodd" d="M293.87 280.629C293.87 278.12 291.959 276.084 289.604 276.084C287.248 276.084 285.339 278.12 285.339 280.629C285.339 283.14 287.248 285.174 289.604 285.174C291.959 285.174 293.87 283.14 293.87 280.629Z" fill="white"/>
        <path fill-rule="evenodd" clip-rule="evenodd" d="M256.854 280.629C256.854 278.12 254.943 276.084 252.587 276.084C250.232 276.084 248.322 278.12 248.322 280.629C248.322 283.14 250.232 285.174 252.587 285.174C254.943 285.174 256.854 283.14 256.854 280.629Z" fill="white"/>
        <path fill-rule="evenodd" clip-rule="evenodd" d="M219.837 280.629C219.837 278.12 217.928 276.084 215.572 276.084C213.216 276.084 211.306 278.12 211.306 280.629C211.306 283.14 213.216 285.174 215.572 285.174C217.928 285.174 219.837 283.14 219.837 280.629Z" fill="white"/>
        <path fill-rule="evenodd" clip-rule="evenodd" d="M182.821 280.629C182.821 278.12 180.912 276.084 178.556 276.084C176.2 276.084 174.29 278.12 174.29 280.629C174.29 283.14 176.2 285.174 178.556 285.174C180.912 285.174 182.821 283.14 182.821 280.629Z" fill="white"/>
        <path fill-rule="evenodd" clip-rule="evenodd" d="M145.805 280.629C145.805 278.12 143.896 276.084 141.54 276.084C139.184 276.084 137.274 278.12 137.274 280.629C137.274 283.14 139.184 285.174 141.54 285.174C143.896 285.174 145.805 283.14 145.805 280.629Z" fill="white"/>
        <path fill-rule="evenodd" clip-rule="evenodd" d="M108.79 280.629C108.79 278.12 106.879 276.084 104.524 276.084C102.168 276.084 100.258 278.12 100.258 280.629C100.258 283.14 102.168 285.174 104.524 285.174C106.879 285.174 108.79 283.14 108.79 280.629Z" fill="white"/>
        <path fill-rule="evenodd" clip-rule="evenodd" d="M71.7734 280.629C71.7734 278.12 69.8632 276.084 67.5079 276.084C65.152 276.084 63.2424 278.12 63.2424 280.629C63.2424 283.14 65.152 285.174 67.5079 285.174C69.8632 285.174 71.7734 283.14 71.7734 280.629Z" fill="white"/>
        <path fill-rule="evenodd" clip-rule="evenodd" d="M40.5991 280.629C40.5991 278.12 38.6889 276.084 36.3336 276.084C33.9777 276.084 32.0681 278.12 32.0681 280.629C32.0681 283.14 33.9777 285.174 36.3336 285.174C38.6889 285.174 40.5991 283.14 40.5991 280.629Z" fill="white"/>
        <path fill-rule="evenodd" clip-rule="evenodd" d="M9.4248 280.629C9.4248 278.12 7.5146 276.084 5.15869 276.084C2.80336 276.084 0.893738 278.12 0.893738 280.629C0.893737 283.14 2.80336 285.174 5.15869 285.174C7.5146 285.174 9.4248 283.14 9.4248 280.629Z" fill="white"/>
        <path fill-rule="evenodd" clip-rule="evenodd" d="M589.997 320.07C589.997 317.56 588.087 315.525 585.732 315.525C583.376 315.525 581.466 317.56 581.466 320.07C581.466 322.58 583.376 324.615 585.732 324.615C588.087 324.615 589.997 322.58 589.997 320.07Z" fill="white"/>
        <path fill-rule="evenodd" clip-rule="evenodd" d="M552.981 320.07C552.981 317.56 551.072 315.525 548.716 315.525C546.36 315.525 544.45 317.56 544.45 320.07C544.45 322.58 546.36 324.615 548.716 324.615C551.072 324.615 552.981 322.58 552.981 320.07Z" fill="white"/>
        <path fill-rule="evenodd" clip-rule="evenodd" d="M515.965 320.07C515.965 317.56 514.056 315.525 511.7 315.525C509.344 315.525 507.434 317.56 507.434 320.07C507.434 322.58 509.344 324.615 511.7 324.615C514.056 324.615 515.965 322.58 515.965 320.07Z" fill="white"/>
        <path fill-rule="evenodd" clip-rule="evenodd" d="M478.949 320.07C478.949 317.56 477.039 315.525 474.684 315.525C472.328 315.525 470.418 317.56 470.418 320.07C470.418 322.58 472.328 324.615 474.684 324.615C477.039 324.615 478.949 322.58 478.949 320.07Z" fill="white"/>
        <path fill-rule="evenodd" clip-rule="evenodd" d="M441.933 320.07C441.933 317.56 440.023 315.525 437.668 315.525C435.312 315.525 433.402 317.56 433.402 320.07C433.402 322.58 435.312 324.615 437.668 324.615C440.023 324.615 441.933 322.58 441.933 320.07Z" fill="white"/>
        <path fill-rule="evenodd" clip-rule="evenodd" d="M404.917 320.07C404.917 317.56 403.007 315.525 400.652 315.525C398.296 315.525 396.386 317.56 396.386 320.07C396.386 322.58 398.296 324.615 400.652 324.615C403.007 324.615 404.917 322.58 404.917 320.07Z" fill="white"/>
        <path fill-rule="evenodd" clip-rule="evenodd" d="M367.901 320.07C367.901 317.56 365.991 315.525 363.636 315.525C361.28 315.525 359.37 317.56 359.37 320.07C359.37 322.58 361.28 324.615 363.636 324.615C365.991 324.615 367.901 322.58 367.901 320.07Z" fill="white"/>
        <path fill-rule="evenodd" clip-rule="evenodd" d="M330.885 320.07C330.885 317.56 328.975 315.525 326.62 315.525C324.264 315.525 322.354 317.56 322.354 320.07C322.354 322.58 324.264 324.615 326.62 324.615C328.975 324.615 330.885 322.58 330.885 320.07Z" fill="white"/>
        <path fill-rule="evenodd" clip-rule="evenodd" d="M293.87 320.07C293.87 317.56 291.959 315.525 289.604 315.525C287.248 315.525 285.339 317.56 285.339 320.07C285.339 322.58 287.248 324.615 289.604 324.615C291.959 324.615 293.87 322.58 293.87 320.07Z" fill="white"/>
        <path fill-rule="evenodd" clip-rule="evenodd" d="M256.854 320.07C256.854 317.56 254.943 315.525 252.587 315.525C250.232 315.525 248.322 317.56 248.322 320.07C248.322 322.58 250.232 324.615 252.587 324.615C254.943 324.615 256.854 322.58 256.854 320.07Z" fill="white"/>
        <path fill-rule="evenodd" clip-rule="evenodd" d="M219.837 320.07C219.837 317.56 217.928 315.525 215.572 315.525C213.216 315.525 211.306 317.56 211.306 320.07C211.306 322.58 213.216 324.615 215.572 324.615C217.928 324.615 219.837 322.58 219.837 320.07Z" fill="white"/>
        <path fill-rule="evenodd" clip-rule="evenodd" d="M182.821 320.07C182.821 317.56 180.912 315.525 178.556 315.525C176.2 315.525 174.29 317.56 174.29 320.07C174.29 322.58 176.2 324.615 178.556 324.615C180.912 324.615 182.821 322.58 182.821 320.07Z" fill="white"/>
        <path fill-rule="evenodd" clip-rule="evenodd" d="M145.805 320.07C145.805 317.56 143.896 315.525 141.54 315.525C139.184 315.525 137.274 317.56 137.274 320.07C137.274 322.58 139.184 324.615 141.54 324.615C143.896 324.615 145.805 322.58 145.805 320.07Z" fill="white"/>
        <path fill-rule="evenodd" clip-rule="evenodd" d="M108.79 320.07C108.79 317.56 106.879 315.525 104.524 315.525C102.168 315.525 100.258 317.56 100.258 320.07C100.258 322.58 102.168 324.615 104.524 324.615C106.879 324.615 108.79 322.58 108.79 320.07Z" fill="white"/>
        <path fill-rule="evenodd" clip-rule="evenodd" d="M71.7734 320.07C71.7734 317.56 69.8632 315.525 67.5079 315.525C65.152 315.525 63.2424 317.56 63.2424 320.07C63.2424 322.58 65.152 324.615 67.5079 324.615C69.8632 324.615 71.7734 322.58 71.7734 320.07Z" fill="white"/>
        <path fill-rule="evenodd" clip-rule="evenodd" d="M40.5991 320.07C40.5991 317.56 38.6889 315.525 36.3336 315.525C33.9777 315.525 32.0681 317.56 32.0681 320.07C32.0681 322.58 33.9777 324.615 36.3336 324.615C38.6889 324.615 40.5991 322.58 40.5991 320.07Z" fill="white"/>
        <path fill-rule="evenodd" clip-rule="evenodd" d="M9.4248 320.07C9.4248 317.56 7.5146 315.525 5.15869 315.525C2.80336 315.525 0.893738 317.56 0.893738 320.07C0.893737 322.58 2.80336 324.615 5.15869 324.615C7.5146 324.615 9.4248 322.58 9.4248 320.07Z" fill="white"/>
        <path fill-rule="evenodd" clip-rule="evenodd" d="M589.997 359.511C589.997 357.001 588.087 354.966 585.732 354.966C583.376 354.966 581.466 357.001 581.466 359.511C581.466 362.021 583.376 364.056 585.732 364.056C588.087 364.056 589.997 362.021 589.997 359.511Z" fill="white"/>
        <path fill-rule="evenodd" clip-rule="evenodd" d="M552.981 359.511C552.981 357.001 551.072 354.966 548.716 354.966C546.36 354.966 544.45 357.001 544.45 359.511C544.45 362.021 546.36 364.056 548.716 364.056C551.072 364.056 552.981 362.021 552.981 359.511Z" fill="white"/>
        <path fill-rule="evenodd" clip-rule="evenodd" d="M515.965 359.511C515.965 357.001 514.056 354.966 511.7 354.966C509.344 354.966 507.434 357.001 507.434 359.511C507.434 362.021 509.344 364.056 511.7 364.056C514.056 364.056 515.965 362.021 515.965 359.511Z" fill="white"/>
        <path fill-rule="evenodd" clip-rule="evenodd" d="M478.949 359.511C478.949 357.001 477.039 354.966 474.684 354.966C472.328 354.966 470.418 357.001 470.418 359.511C470.418 362.021 472.328 364.056 474.684 364.056C477.039 364.056 478.949 362.021 478.949 359.511Z" fill="white"/>
        <path fill-rule="evenodd" clip-rule="evenodd" d="M441.933 359.511C441.933 357.001 440.023 354.966 437.668 354.966C435.312 354.966 433.402 357.001 433.402 359.511C433.402 362.021 435.312 364.056 437.668 364.056C440.023 364.056 441.933 362.021 441.933 359.511Z" fill="white"/>
        <path fill-rule="evenodd" clip-rule="evenodd" d="M404.917 359.511C404.917 357.001 403.007 354.966 400.652 354.966C398.296 354.966 396.386 357.001 396.386 359.511C396.386 362.021 398.296 364.056 400.652 364.056C403.007 364.056 404.917 362.021 404.917 359.511Z" fill="white"/>
        <path fill-rule="evenodd" clip-rule="evenodd" d="M367.901 359.511C367.901 357.001 365.991 354.966 363.636 354.966C361.28 354.966 359.37 357.001 359.37 359.511C359.37 362.021 361.28 364.056 363.636 364.056C365.991 364.056 367.901 362.021 367.901 359.511Z" fill="white"/>
        <path fill-rule="evenodd" clip-rule="evenodd" d="M330.885 359.511C330.885 357.001 328.975 354.966 326.62 354.966C324.264 354.966 322.354 357.001 322.354 359.511C322.354 362.021 324.264 364.056 326.62 364.056C328.975 364.056 330.885 362.021 330.885 359.511Z" fill="white"/>
        <path fill-rule="evenodd" clip-rule="evenodd" d="M293.87 359.511C293.87 357.001 291.959 354.966 289.604 354.966C287.248 354.966 285.339 357.001 285.339 359.511C285.339 362.021 287.248 364.056 289.604 364.056C291.959 364.056 293.87 362.021 293.87 359.511Z" fill="white"/>
        <path fill-rule="evenodd" clip-rule="evenodd" d="M256.854 359.511C256.854 357.001 254.943 354.966 252.587 354.966C250.232 354.966 248.322 357.001 248.322 359.511C248.322 362.021 250.232 364.056 252.587 364.056C254.943 364.056 256.854 362.021 256.854 359.511Z" fill="white"/>
        <path fill-rule="evenodd" clip-rule="evenodd" d="M219.837 359.511C219.837 357.001 217.928 354.966 215.572 354.966C213.216 354.966 211.306 357.001 211.306 359.511C211.306 362.021 213.216 364.056 215.572 364.056C217.928 364.056 219.837 362.021 219.837 359.511Z" fill="white"/>
        <path fill-rule="evenodd" clip-rule="evenodd" d="M182.821 359.511C182.821 357.001 180.912 354.966 178.556 354.966C176.2 354.966 174.29 357.001 174.29 359.511C174.29 362.021 176.2 364.056 178.556 364.056C180.912 364.056 182.821 362.021 182.821 359.511Z" fill="white"/>
        <path fill-rule="evenodd" clip-rule="evenodd" d="M145.805 359.511C145.805 357.001 143.896 354.966 141.54 354.966C139.184 354.966 137.274 357.001 137.274 359.511C137.274 362.021 139.184 364.056 141.54 364.056C143.896 364.056 145.805 362.021 145.805 359.511Z" fill="white"/>
        <path fill-rule="evenodd" clip-rule="evenodd" d="M108.79 359.511C108.79 357.001 106.879 354.966 104.524 354.966C102.168 354.966 100.258 357.001 100.258 359.511C100.258 362.021 102.168 364.056 104.524 364.056C106.879 364.056 108.79 362.021 108.79 359.511Z" fill="white"/>
        <path fill-rule="evenodd" clip-rule="evenodd" d="M71.7734 359.511C71.7734 357.001 69.8632 354.966 67.5079 354.966C65.152 354.966 63.2424 357.001 63.2424 359.511C63.2424 362.021 65.152 364.056 67.5079 364.056C69.8632 364.056 71.7734 362.021 71.7734 359.511Z" fill="white"/>
        <path fill-rule="evenodd" clip-rule="evenodd" d="M40.5991 359.511C40.5991 357.001 38.6889 354.966 36.3336 354.966C33.9777 354.966 32.0681 357.001 32.0681 359.511C32.0681 362.021 33.9777 364.056 36.3336 364.056C38.6889 364.056 40.5991 362.021 40.5991 359.511Z" fill="white"/>
        <path fill-rule="evenodd" clip-rule="evenodd" d="M9.4248 359.511C9.4248 357.001 7.5146 354.966 5.15869 354.966C2.80336 354.966 0.893738 357.001 0.893738 359.511C0.893737 362.021 2.80336 364.056 5.15869 364.056C7.5146 364.056 9.4248 362.021 9.4248 359.511Z" fill="white"/>
        <path fill-rule="evenodd" clip-rule="evenodd" d="M589.997 398.952C589.997 396.442 588.087 394.406 585.732 394.406C583.376 394.406 581.466 396.442 581.466 398.952C581.466 401.461 583.376 403.497 585.732 403.497C588.087 403.497 589.997 401.461 589.997 398.952Z" fill="white"/>
        <path fill-rule="evenodd" clip-rule="evenodd" d="M552.981 398.952C552.981 396.442 551.072 394.406 548.716 394.406C546.36 394.406 544.45 396.442 544.45 398.952C544.45 401.461 546.36 403.497 548.716 403.497C551.072 403.497 552.981 401.461 552.981 398.952Z" fill="white"/>
        <path fill-rule="evenodd" clip-rule="evenodd" d="M515.965 398.952C515.965 396.442 514.056 394.406 511.7 394.406C509.344 394.406 507.434 396.442 507.434 398.952C507.434 401.461 509.344 403.497 511.7 403.497C514.056 403.497 515.965 401.461 515.965 398.952Z" fill="white"/>
        <path fill-rule="evenodd" clip-rule="evenodd" d="M478.949 398.952C478.949 396.442 477.039 394.406 474.684 394.406C472.328 394.406 470.418 396.442 470.418 398.952C470.418 401.461 472.328 403.497 474.684 403.497C477.039 403.497 478.949 401.461 478.949 398.952Z" fill="white"/>
        <path fill-rule="evenodd" clip-rule="evenodd" d="M441.933 398.952C441.933 396.442 440.023 394.406 437.668 394.406C435.312 394.406 433.402 396.442 433.402 398.952C433.402 401.461 435.312 403.497 437.668 403.497C440.023 403.497 441.933 401.461 441.933 398.952Z" fill="white"/>
        <path fill-rule="evenodd" clip-rule="evenodd" d="M404.917 398.952C404.917 396.442 403.007 394.406 400.652 394.406C398.296 394.406 396.386 396.442 396.386 398.952C396.386 401.461 398.296 403.497 400.652 403.497C403.007 403.497 404.917 401.461 404.917 398.952Z" fill="white"/>
        <path fill-rule="evenodd" clip-rule="evenodd" d="M367.901 398.952C367.901 396.442 365.991 394.406 363.636 394.406C361.28 394.406 359.37 396.442 359.37 398.952C359.37 401.461 361.28 403.497 363.636 403.497C365.991 403.497 367.901 401.461 367.901 398.952Z" fill="white"/>
        <path fill-rule="evenodd" clip-rule="evenodd" d="M330.885 398.952C330.885 396.442 328.975 394.406 326.62 394.406C324.264 394.406 322.354 396.442 322.354 398.952C322.354 401.461 324.264 403.497 326.62 403.497C328.975 403.497 330.885 401.461 330.885 398.952Z" fill="white"/>
        <path fill-rule="evenodd" clip-rule="evenodd" d="M293.87 398.952C293.87 396.442 291.959 394.406 289.604 394.406C287.248 394.406 285.339 396.442 285.339 398.952C285.339 401.461 287.248 403.497 289.604 403.497C291.959 403.497 293.87 401.461 293.87 398.952Z" fill="white"/>
        <path fill-rule="evenodd" clip-rule="evenodd" d="M256.854 398.952C256.854 396.442 254.943 394.406 252.587 394.406C250.232 394.406 248.322 396.442 248.322 398.952C248.322 401.461 250.232 403.497 252.587 403.497C254.943 403.497 256.854 401.461 256.854 398.952Z" fill="white"/>
        <path fill-rule="evenodd" clip-rule="evenodd" d="M219.837 398.952C219.837 396.442 217.928 394.406 215.572 394.406C213.216 394.406 211.306 396.442 211.306 398.952C211.306 401.461 213.216 403.497 215.572 403.497C217.928 403.497 219.837 401.461 219.837 398.952Z" fill="white"/>
        <path fill-rule="evenodd" clip-rule="evenodd" d="M182.821 398.952C182.821 396.442 180.912 394.406 178.556 394.406C176.2 394.406 174.29 396.442 174.29 398.952C174.29 401.461 176.2 403.497 178.556 403.497C180.912 403.497 182.821 401.461 182.821 398.952Z" fill="white"/>
        <path fill-rule="evenodd" clip-rule="evenodd" d="M145.805 398.952C145.805 396.442 143.896 394.406 141.54 394.406C139.184 394.406 137.274 396.442 137.274 398.952C137.274 401.461 139.184 403.497 141.54 403.497C143.896 403.497 145.805 401.461 145.805 398.952Z" fill="white"/>
        <path fill-rule="evenodd" clip-rule="evenodd" d="M108.79 398.952C108.79 396.442 106.879 394.406 104.524 394.406C102.168 394.406 100.258 396.442 100.258 398.952C100.258 401.461 102.168 403.497 104.524 403.497C106.879 403.497 108.79 401.461 108.79 398.952Z" fill="white"/>
        <path fill-rule="evenodd" clip-rule="evenodd" d="M71.7734 398.952C71.7734 396.442 69.8632 394.406 67.5079 394.406C65.152 394.406 63.2424 396.442 63.2424 398.952C63.2424 401.461 65.152 403.497 67.5079 403.497C69.8632 403.497 71.7734 401.461 71.7734 398.952Z" fill="white"/>
        <path fill-rule="evenodd" clip-rule="evenodd" d="M40.5991 398.952C40.5991 396.442 38.6889 394.406 36.3336 394.406C33.9777 394.406 32.0681 396.442 32.0681 398.952C32.0681 401.461 33.9777 403.497 36.3336 403.497C38.6889 403.497 40.5991 401.461 40.5991 398.952Z" fill="white"/>
        <path fill-rule="evenodd" clip-rule="evenodd" d="M9.4248 398.952C9.4248 396.442 7.5146 394.406 5.15869 394.406C2.80336 394.406 0.893738 396.442 0.893738 398.952C0.893737 401.461 2.80336 403.497 5.15869 403.497C7.5146 403.497 9.4248 401.461 9.4248 398.952Z" fill="white"/>
        <path fill-rule="evenodd" clip-rule="evenodd" d="M589.997 438.392C589.997 435.882 588.087 433.847 585.732 433.847C583.376 433.847 581.466 435.882 581.466 438.392C581.466 440.902 583.376 442.937 585.732 442.937C588.087 442.937 589.997 440.902 589.997 438.392Z" fill="white"/>
        <path fill-rule="evenodd" clip-rule="evenodd" d="M552.981 438.392C552.981 435.882 551.072 433.847 548.716 433.847C546.36 433.847 544.45 435.882 544.45 438.392C544.45 440.902 546.36 442.937 548.716 442.937C551.072 442.937 552.981 440.902 552.981 438.392Z" fill="white"/>
        <path fill-rule="evenodd" clip-rule="evenodd" d="M515.965 438.392C515.965 435.882 514.056 433.847 511.7 433.847C509.344 433.847 507.434 435.882 507.434 438.392C507.434 440.902 509.344 442.937 511.7 442.937C514.056 442.937 515.965 440.902 515.965 438.392Z" fill="white"/>
        <path fill-rule="evenodd" clip-rule="evenodd" d="M478.949 438.392C478.949 435.882 477.039 433.847 474.684 433.847C472.328 433.847 470.418 435.882 470.418 438.392C470.418 440.902 472.328 442.937 474.684 442.937C477.039 442.937 478.949 440.902 478.949 438.392Z" fill="white"/>
        <path fill-rule="evenodd" clip-rule="evenodd" d="M441.933 438.392C441.933 435.882 440.023 433.847 437.668 433.847C435.312 433.847 433.402 435.882 433.402 438.392C433.402 440.902 435.312 442.937 437.668 442.937C440.023 442.937 441.933 440.902 441.933 438.392Z" fill="white"/>
        <path fill-rule="evenodd" clip-rule="evenodd" d="M404.917 438.392C404.917 435.882 403.007 433.847 400.652 433.847C398.296 433.847 396.386 435.882 396.386 438.392C396.386 440.902 398.296 442.937 400.652 442.937C403.007 442.937 404.917 440.902 404.917 438.392Z" fill="white"/>
        <path fill-rule="evenodd" clip-rule="evenodd" d="M367.901 438.392C367.901 435.882 365.991 433.847 363.636 433.847C361.28 433.847 359.37 435.882 359.37 438.392C359.37 440.902 361.28 442.937 363.636 442.937C365.991 442.937 367.901 440.902 367.901 438.392Z" fill="white"/>
        <path fill-rule="evenodd" clip-rule="evenodd" d="M330.885 438.392C330.885 435.882 328.975 433.847 326.62 433.847C324.264 433.847 322.354 435.882 322.354 438.392C322.354 440.902 324.264 442.937 326.62 442.937C328.975 442.937 330.885 440.902 330.885 438.392Z" fill="white"/>
        <path fill-rule="evenodd" clip-rule="evenodd" d="M293.87 438.392C293.87 435.882 291.959 433.847 289.604 433.847C287.248 433.847 285.339 435.882 285.339 438.392C285.339 440.902 287.248 442.937 289.604 442.937C291.959 442.937 293.87 440.902 293.87 438.392Z" fill="white"/>
        <path fill-rule="evenodd" clip-rule="evenodd" d="M256.854 438.392C256.854 435.882 254.943 433.847 252.587 433.847C250.232 433.847 248.322 435.882 248.322 438.392C248.322 440.902 250.232 442.937 252.587 442.937C254.943 442.937 256.854 440.902 256.854 438.392Z" fill="white"/>
        <path fill-rule="evenodd" clip-rule="evenodd" d="M219.837 438.392C219.837 435.882 217.928 433.847 215.572 433.847C213.216 433.847 211.306 435.882 211.306 438.392C211.306 440.902 213.216 442.937 215.572 442.937C217.928 442.937 219.837 440.902 219.837 438.392Z" fill="white"/>
        <path fill-rule="evenodd" clip-rule="evenodd" d="M182.821 438.392C182.821 435.882 180.912 433.847 178.556 433.847C176.2 433.847 174.29 435.882 174.29 438.392C174.29 440.902 176.2 442.937 178.556 442.937C180.912 442.937 182.821 440.902 182.821 438.392Z" fill="white"/>
        <path fill-rule="evenodd" clip-rule="evenodd" d="M145.805 438.392C145.805 435.882 143.896 433.847 141.54 433.847C139.184 433.847 137.274 435.882 137.274 438.392C137.274 440.902 139.184 442.937 141.54 442.937C143.896 442.937 145.805 440.902 145.805 438.392Z" fill="white"/>
        <path fill-rule="evenodd" clip-rule="evenodd" d="M108.79 438.392C108.79 435.882 106.879 433.847 104.524 433.847C102.168 433.847 100.258 435.882 100.258 438.392C100.258 440.902 102.168 442.937 104.524 442.937C106.879 442.937 108.79 440.902 108.79 438.392Z" fill="white"/>
        <path fill-rule="evenodd" clip-rule="evenodd" d="M71.7734 438.392C71.7734 435.882 69.8632 433.847 67.5079 433.847C65.152 433.847 63.2424 435.882 63.2424 438.392C63.2424 440.902 65.152 442.937 67.5079 442.937C69.8632 442.937 71.7734 440.902 71.7734 438.392Z" fill="white"/>
        <path fill-rule="evenodd" clip-rule="evenodd" d="M40.5991 438.392C40.5991 435.882 38.6889 433.847 36.3336 433.847C33.9777 433.847 32.0681 435.882 32.0681 438.392C32.0681 440.902 33.9777 442.937 36.3336 442.937C38.6889 442.937 40.5991 440.902 40.5991 438.392Z" fill="white"/>
        <path fill-rule="evenodd" clip-rule="evenodd" d="M9.4248 438.392C9.4248 435.882 7.5146 433.847 5.15869 433.847C2.80336 433.847 0.893738 435.882 0.893738 438.392C0.893737 440.902 2.80336 442.937 5.15869 442.937C7.5146 442.937 9.4248 440.902 9.4248 438.392Z" fill="white"/>
        <path fill-rule="evenodd" clip-rule="evenodd" d="M589.997 477.833C589.997 475.323 588.087 473.288 585.732 473.288C583.376 473.288 581.466 475.323 581.466 477.833C581.466 480.343 583.376 482.378 585.732 482.378C588.087 482.378 589.997 480.343 589.997 477.833Z" fill="white"/>
        <path fill-rule="evenodd" clip-rule="evenodd" d="M552.981 477.833C552.981 475.323 551.072 473.288 548.716 473.288C546.36 473.288 544.45 475.323 544.45 477.833C544.45 480.343 546.36 482.378 548.716 482.378C551.072 482.378 552.981 480.343 552.981 477.833Z" fill="white"/>
        <path fill-rule="evenodd" clip-rule="evenodd" d="M515.965 477.833C515.965 475.323 514.056 473.288 511.7 473.288C509.344 473.288 507.434 475.323 507.434 477.833C507.434 480.343 509.344 482.378 511.7 482.378C514.056 482.378 515.965 480.343 515.965 477.833Z" fill="white"/>
        <path fill-rule="evenodd" clip-rule="evenodd" d="M478.949 477.833C478.949 475.323 477.039 473.288 474.684 473.288C472.328 473.288 470.418 475.323 470.418 477.833C470.418 480.343 472.328 482.378 474.684 482.378C477.039 482.378 478.949 480.343 478.949 477.833Z" fill="white"/>
        <path fill-rule="evenodd" clip-rule="evenodd" d="M441.933 477.833C441.933 475.323 440.023 473.288 437.668 473.288C435.312 473.288 433.402 475.323 433.402 477.833C433.402 480.343 435.312 482.378 437.668 482.378C440.023 482.378 441.933 480.343 441.933 477.833Z" fill="white"/>
        <path fill-rule="evenodd" clip-rule="evenodd" d="M404.917 477.833C404.917 475.323 403.007 473.288 400.652 473.288C398.296 473.288 396.386 475.323 396.386 477.833C396.386 480.343 398.296 482.378 400.652 482.378C403.007 482.378 404.917 480.343 404.917 477.833Z" fill="white"/>
        <path fill-rule="evenodd" clip-rule="evenodd" d="M367.901 477.833C367.901 475.323 365.991 473.288 363.636 473.288C361.28 473.288 359.37 475.323 359.37 477.833C359.37 480.343 361.28 482.378 363.636 482.378C365.991 482.378 367.901 480.343 367.901 477.833Z" fill="white"/>
        <path fill-rule="evenodd" clip-rule="evenodd" d="M330.885 477.833C330.885 475.323 328.975 473.288 326.62 473.288C324.264 473.288 322.354 475.323 322.354 477.833C322.354 480.343 324.264 482.378 326.62 482.378C328.975 482.378 330.885 480.343 330.885 477.833Z" fill="white"/>
        <path fill-rule="evenodd" clip-rule="evenodd" d="M293.87 477.833C293.87 475.323 291.959 473.288 289.604 473.288C287.248 473.288 285.339 475.323 285.339 477.833C285.339 480.343 287.248 482.378 289.604 482.378C291.959 482.378 293.87 480.343 293.87 477.833Z" fill="white"/>
        <path fill-rule="evenodd" clip-rule="evenodd" d="M256.854 477.833C256.854 475.323 254.943 473.288 252.587 473.288C250.232 473.288 248.322 475.323 248.322 477.833C248.322 480.343 250.232 482.378 252.587 482.378C254.943 482.378 256.854 480.343 256.854 477.833Z" fill="white"/>
        <path fill-rule="evenodd" clip-rule="evenodd" d="M219.837 477.833C219.837 475.323 217.928 473.288 215.572 473.288C213.216 473.288 211.306 475.323 211.306 477.833C211.306 480.343 213.216 482.378 215.572 482.378C217.928 482.378 219.837 480.343 219.837 477.833Z" fill="white"/>
        <path fill-rule="evenodd" clip-rule="evenodd" d="M182.821 477.833C182.821 475.323 180.912 473.288 178.556 473.288C176.2 473.288 174.29 475.323 174.29 477.833C174.29 480.343 176.2 482.378 178.556 482.378C180.912 482.378 182.821 480.343 182.821 477.833Z" fill="white"/>
        <path fill-rule="evenodd" clip-rule="evenodd" d="M145.805 477.833C145.805 475.323 143.896 473.288 141.54 473.288C139.184 473.288 137.274 475.323 137.274 477.833C137.274 480.343 139.184 482.378 141.54 482.378C143.896 482.378 145.805 480.343 145.805 477.833Z" fill="white"/>
        <path fill-rule="evenodd" clip-rule="evenodd" d="M108.79 477.833C108.79 475.323 106.879 473.288 104.524 473.288C102.168 473.288 100.258 475.323 100.258 477.833C100.258 480.343 102.168 482.378 104.524 482.378C106.879 482.378 108.79 480.343 108.79 477.833Z" fill="white"/>
        <path fill-rule="evenodd" clip-rule="evenodd" d="M71.7734 477.833C71.7734 475.323 69.8632 473.288 67.5079 473.288C65.152 473.288 63.2424 475.323 63.2424 477.833C63.2424 480.343 65.152 482.378 67.5079 482.378C69.8632 482.378 71.7734 480.343 71.7734 477.833Z" fill="white"/>
        <path fill-rule="evenodd" clip-rule="evenodd" d="M40.5991 477.833C40.5991 475.323 38.6889 473.288 36.3336 473.288C33.9777 473.288 32.0681 475.323 32.0681 477.833C32.0681 480.343 33.9777 482.378 36.3336 482.378C38.6889 482.378 40.5991 480.343 40.5991 477.833Z" fill="white"/>
        <path fill-rule="evenodd" clip-rule="evenodd" d="M9.4248 477.833C9.4248 475.323 7.5146 473.288 5.15869 473.288C2.80336 473.288 0.893738 475.323 0.893738 477.833C0.893737 480.343 2.80336 482.378 5.15869 482.378C7.5146 482.378 9.4248 480.343 9.4248 477.833Z" fill="white"/>
    </g>

    <g id="instagram">
        <path fill="#304ffe" d="M41.67,13.48c-0.4,0.26-0.97,0.5-1.21,0.77c-0.09,0.09-0.14,0.19-0.12,0.29v1.03l-0.3,1.01l-0.3,1l-0.33,1.1 l-0.68,2.25l-0.66,2.22l-0.5,1.67c0,0.26-0.01,0.52-0.03,0.77c-0.07,0.96-0.27,1.88-0.59,2.74c-0.19,0.53-0.42,1.04-0.7,1.52 c-0.1,0.19-0.22,0.38-0.34,0.56c-0.4,0.63-0.88,1.21-1.41,1.72c-0.41,0.41-0.86,0.79-1.35,1.11c0,0,0,0-0.01,0 c-0.08,0.07-0.17,0.13-0.27,0.18c-0.31,0.21-0.64,0.39-0.98,0.55c-0.23,0.12-0.46,0.22-0.7,0.31c-0.05,0.03-0.11,0.05-0.16,0.07 c-0.57,0.27-1.23,0.45-1.89,0.54c-0.04,0.01-0.07,0.01-0.11,0.02c-0.4,0.07-0.79,0.13-1.19,0.16c-0.18,0.02-0.37,0.03-0.55,0.03 l-0.71-0.04l-3.42-0.18c0-0.01-0.01,0-0.01,0l-1.72-0.09c-0.13,0-0.27,0-0.4-0.01c-0.54-0.02-1.06-0.08-1.58-0.19 c-0.01,0-0.01,0-0.01,0c-0.95-0.18-1.86-0.5-2.71-0.93c-0.47-0.24-0.93-0.51-1.36-0.82c-0.18-0.13-0.35-0.27-0.52-0.42 c-0.48-0.4-0.91-0.83-1.31-1.27c-0.06-0.06-0.11-0.12-0.16-0.18c-0.06-0.06-0.12-0.13-0.17-0.19c-0.38-0.48-0.7-0.97-0.96-1.49 c-0.24-0.46-0.43-0.95-0.58-1.49c-0.06-0.19-0.11-0.37-0.15-0.57c-0.01-0.01-0.02-0.03-0.02-0.05c-0.1-0.41-0.19-0.84-0.24-1.27 c-0.06-0.33-0.09-0.66-0.09-1c-0.02-0.13-0.02-0.27-0.02-0.4l1.91-2.95l1.87-2.88l0.85-1.31l0.77-1.18l0.26-0.41v-1.03 c0.02-0.23,0.03-0.47,0.02-0.69c-0.01-0.7-0.15-1.38-0.38-2.03c-0.22-0.69-0.53-1.34-0.85-1.94c-0.38-0.69-0.78-1.31-1.11-1.87 C14,7.4,13.66,6.73,13.75,6.26C14.47,6.09,15.23,6,16,6h16c4.18,0,7.78,2.6,9.27,6.26C41.43,12.65,41.57,13.06,41.67,13.48z"/><path fill="#4928f4" d="M42,16v0.27l-1.38,0.8l-0.88,0.51l-0.97,0.56l-1.94,1.13l-1.9,1.1l-1.94,1.12l-0.77,0.45 c0,0.48-0.12,0.92-0.34,1.32c-0.31,0.58-0.83,1.06-1.49,1.47c-0.67,0.41-1.49,0.74-2.41,0.98c0,0,0-0.01-0.01,0 c-3.56,0.92-8.42,0.5-10.78-1.26c-0.66-0.49-1.12-1.09-1.32-1.78c-0.06-0.23-0.09-0.48-0.09-0.73v-7.19 c0.01-0.15-0.09-0.3-0.27-0.45c-0.54-0.43-1.81-0.84-3.23-1.25c-1.11-0.31-2.3-0.62-3.3-0.92c-0.79-0.24-1.46-0.48-1.86-0.71 c0.18-0.35,0.39-0.7,0.61-1.03c1.4-2.05,3.54-3.56,6.02-4.13C14.47,6.09,15.23,6,16,6h10.8c5.37,0.94,10.32,3.13,14.47,6.26 c0.16,0.39,0.3,0.8,0.4,1.22c0.18,0.66,0.29,1.34,0.32,2.05C42,15.68,42,15.84,42,16z"/><path fill="#6200ea" d="M42,16v4.41l-0.22,0.68l-0.75,2.33l-0.78,2.4l-0.41,1.28l-0.38,1.19l-0.37,1.13l-0.36,1.12l-0.19,0.59 l-0.25,0.78c0,0.76-0.02,1.43-0.07,2c-0.01,0.06-0.02,0.12-0.02,0.18c-0.06,0.53-0.14,0.98-0.27,1.36 c-0.01,0.06-0.03,0.12-0.05,0.17c-0.26,0.72-0.65,1.18-1.23,1.48c-0.14,0.08-0.3,0.14-0.47,0.2c-0.53,0.18-1.2,0.27-2.02,0.32 c-0.6,0.04-1.29,0.05-2.07,0.05H31.4l-1.19-0.05L30,37.61l-2.17-0.09l-2.2-0.09l-7.25-0.3l-1.88-0.08h-0.26 c-0.78-0.01-1.45-0.06-2.03-0.14c-0.84-0.13-1.49-0.35-1.98-0.68c-0.7-0.45-1.11-1.11-1.35-2.03c-0.06-0.22-0.11-0.45-0.14-0.7 c-0.1-0.58-0.15-1.25-0.18-2c0-0.15,0-0.3-0.01-0.46c-0.01-0.01,0-0.01,0-0.01v-0.58c-0.01-0.29-0.01-0.59-0.01-0.9l0.05-1.61 l0.03-1.15l0.04-1.34v-0.19l0.07-2.46l0.07-2.46l0.07-2.31l0.06-2.27l0.02-0.6c0-0.31-1.05-0.49-2.22-0.64 c-0.93-0.12-1.95-0.23-2.56-0.37c0.05-0.23,0.1-0.46,0.16-0.68c0.18-0.72,0.45-1.4,0.79-2.05c0.18-0.35,0.39-0.7,0.61-1.03 c2.16-0.95,4.41-1.69,6.76-2.17c2.06-0.43,4.21-0.66,6.43-0.66c7.36,0,14.16,2.49,19.54,6.69c0.52,0.4,1.03,0.83,1.53,1.28 C42,15.68,42,15.84,42,16z"/><path fill="#673ab7" d="M42,18.37v4.54l-0.55,1.06l-1.05,2.05l-0.56,1.08l-0.51,0.99l-0.22,0.43c0,0.31,0,0.61-0.02,0.9 c0,0.43-0.02,0.84-0.05,1.22c-0.04,0.45-0.1,0.86-0.16,1.24c-0.15,0.79-0.36,1.47-0.66,2.03c-0.04,0.07-0.08,0.14-0.12,0.2 c-0.11,0.18-0.24,0.35-0.38,0.51c-0.18,0.22-0.38,0.41-0.61,0.57c-0.34,0.26-0.74,0.47-1.2,0.63c-0.57,0.21-1.23,0.35-2.01,0.43 c-0.51,0.05-1.07,0.08-1.68,0.08l-0.42,0.02l-2.08,0.12h-0.01L27.5,36.6l-2.25,0.13l-3.1,0.18l-3.77,0.22l-0.55,0.03 c-0.51,0-0.99-0.03-1.45-0.09c-0.05-0.01-0.09-0.02-0.14-0.02c-0.68-0.11-1.3-0.29-1.86-0.54c-0.68-0.3-1.27-0.7-1.77-1.18 c-0.44-0.43-0.82-0.92-1.13-1.47c-0.07-0.13-0.14-0.25-0.2-0.39c-0.3-0.59-0.54-1.25-0.72-1.97c-0.03-0.12-0.06-0.25-0.08-0.38 c-0.06-0.23-0.11-0.47-0.14-0.72c-0.11-0.64-0.17-1.32-0.2-2.03v-0.01c-0.01-0.29-0.02-0.57-0.02-0.87l-0.49-1.17l-0.07-0.18 L9.5,25.99L8.75,24.2l-0.12-0.29l-0.72-1.73l-0.8-1.93c0,0,0,0-0.01,0L6.29,18.3L6,17.59V16c0-0.63,0.06-1.25,0.17-1.85 c0.05-0.23,0.1-0.46,0.16-0.68c0.85-0.49,1.74-0.94,2.65-1.34c2.08-0.93,4.31-1.62,6.62-2.04c1.72-0.31,3.51-0.48,5.32-0.48 c7.31,0,13.94,2.65,19.12,6.97c0.2,0.16,0.39,0.32,0.58,0.49C41.09,17.48,41.55,17.91,42,18.37z"/><path fill="#8e24aa" d="M42,21.35v5.14l-0.57,1.19l-1.08,2.25l-0.01,0.03c0,0.43-0.02,0.82-0.05,1.17c-0.1,1.15-0.38,1.88-0.84,2.33 c-0.33,0.34-0.74,0.53-1.25,0.63c-0.03,0.01-0.07,0.01-0.1,0.02c-0.16,0.03-0.33,0.05-0.51,0.05c-0.62,0.06-1.35,0.02-2.19-0.04 c-0.09,0-0.19-0.01-0.29-0.02c-0.61-0.04-1.26-0.08-1.98-0.11c-0.39-0.01-0.8-0.02-1.22-0.02h-0.02l-1.01,0.08h-0.01l-2.27,0.16 l-2.59,0.2l-0.38,0.03l-3.03,0.22l-1.57,0.12l-1.55,0.11c-0.27,0-0.53,0-0.79-0.01c0,0-0.01-0.01-0.01,0 c-1.13-0.02-2.14-0.09-3.04-0.26c-0.83-0.14-1.56-0.36-2.18-0.69c-0.64-0.31-1.17-0.75-1.6-1.31c-0.41-0.55-0.71-1.24-0.9-2.07 c0-0.01,0-0.01,0-0.01c-0.14-0.67-0.22-1.45-0.22-2.33l-0.15-0.27L9.7,26.35l-0.13-0.22L9.5,25.99l-0.93-1.65l-0.46-0.83 l-0.58-1.03l-1-1.79L6,19.75v-3.68c0.88-0.58,1.79-1.09,2.73-1.55c1.14-0.58,2.32-1.07,3.55-1.47c1.34-0.44,2.74-0.79,4.17-1.02 c1.45-0.24,2.94-0.36,4.47-0.36c6.8,0,13.04,2.43,17.85,6.47c0.22,0.17,0.43,0.36,0.64,0.54c0.84,0.75,1.64,1.56,2.37,2.41 C41.86,21.18,41.94,21.26,42,21.35z"/><path fill="#c2185b" d="M42,24.71v7.23c-0.24-0.14-0.57-0.31-0.98-0.49c-0.22-0.11-0.47-0.22-0.73-0.32 c-0.38-0.17-0.79-0.33-1.25-0.49c-0.1-0.04-0.2-0.07-0.31-0.1c-0.18-0.07-0.37-0.13-0.56-0.19c-0.59-0.18-1.24-0.35-1.92-0.5 c-0.26-0.05-0.53-0.1-0.8-0.14c-0.87-0.15-1.8-0.24-2.77-0.25c-0.08-0.01-0.17-0.01-0.25-0.01l-2.57,0.02l-3.5,0.02h-0.01 l-7.49,0.06c-2.38,0-3.84,0.57-4.72,0.8c0,0-0.01,0-0.01,0.01c-0.93,0.24-1.22,0.09-1.3-1.54c-0.02-0.45-0.03-1.03-0.03-1.74 l-0.56-0.43l-0.98-0.74l-0.6-0.46l-0.12-0.09L8.88,24.1l-0.25-0.19l-0.52-0.4l-0.96-0.72L6,21.91v-3.4 c0.1-0.08,0.19-0.15,0.29-0.21c1.45-1,3-1.85,4.64-2.54c1.46-0.62,3-1.11,4.58-1.46c0.43-0.09,0.87-0.18,1.32-0.24 c1.33-0.23,2.7-0.34,4.09-0.34c6.01,0,11.53,2.09,15.91,5.55c0.66,0.52,1.3,1.07,1.9,1.66c0.82,0.78,1.59,1.61,2.3,2.49 c0.14,0.18,0.28,0.36,0.42,0.55C41.64,24.21,41.82,24.46,42,24.71z"/><path fill="#d81b60" d="M42,28.72V32c0,0.65-0.06,1.29-0.18,1.91c-0.18,0.92-0.49,1.8-0.91,2.62c-0.22,0.05-0.47,0.05-0.75,0.01 c-0.63-0.11-1.37-0.44-2.17-0.87c-0.04-0.01-0.08-0.03-0.11-0.05c-0.25-0.13-0.51-0.27-0.77-0.43c-0.53-0.29-1.09-0.61-1.65-0.91 c-0.12-0.06-0.24-0.12-0.35-0.18c-0.64-0.33-1.3-0.63-1.96-0.86c0,0,0,0-0.01,0c-0.14-0.05-0.29-0.1-0.44-0.14 c-0.57-0.16-1.15-0.26-1.71-0.26l-1.1-0.32l-4.87-1.41c0,0,0,0-0.01,0l-2.99-0.87h-0.01l-1.3-0.38c-3.76,0-6.07,1.6-7.19,0.99 c-0.44-0.23-0.7-0.81-0.79-1.95c-0.03-0.32-0.04-0.68-0.04-1.1l-1.17-0.57l-0.05-0.02h-0.01l-0.84-0.42L9.7,26.35l-0.07-0.03 l-0.17-0.09L7.5,25.28L6,24.55v-3.43c0.17-0.15,0.35-0.29,0.53-0.43c0.19-0.15,0.38-0.29,0.57-0.44c0.01,0,0.01,0,0.01,0 c1.18-0.85,2.43-1.6,3.76-2.22c1.55-0.74,3.2-1.31,4.91-1.68c0.25-0.06,0.51-0.12,0.77-0.16c1.42-0.27,2.88-0.41,4.37-0.41 c5.27,0,10.11,1.71,14.01,4.59c1.13,0.84,2.18,1.77,3.14,2.78c0.79,0.83,1.52,1.73,2.18,2.67c0.05,0.07,0.1,0.14,0.15,0.2 c0.37,0.54,0.71,1.09,1.03,1.66C41.64,28.02,41.82,28.37,42,28.72z"/><path fill="#f50057" d="M41.82,33.91c-0.18,0.92-0.49,1.8-0.91,2.62c-0.19,0.37-0.4,0.72-0.63,1.06c-0.14,0.21-0.29,0.41-0.44,0.6 c-0.36-0.14-0.89-0.34-1.54-0.56c0,0,0,0,0-0.01c-0.49-0.17-1.05-0.35-1.65-0.52c-0.17-0.05-0.34-0.1-0.52-0.15 c-0.71-0.19-1.45-0.36-2.17-0.46c-0.6-0.1-1.19-0.16-1.74-0.16l-0.46-0.13h-0.01l-2.42-0.7l-1.49-0.43l-1.66-0.48h-0.01l-0.54-0.15 l-6.53-1.88l-1.88-0.54l-1.4-0.33l-2.28-0.54l-0.28-0.07c0,0,0,0-0.01,0l-2.29-0.53c0-0.01,0-0.01,0-0.01l-0.41-0.09l-0.21-0.05 l-1.67-0.39l-0.19-0.05l-1.42-1.17L6,27.9v-4.08c0.37-0.36,0.75-0.7,1.15-1.03c0.12-0.11,0.25-0.21,0.38-0.31 c0.12-0.1,0.25-0.2,0.38-0.3c0.91-0.69,1.87-1.31,2.89-1.84c1.3-0.7,2.68-1.26,4.13-1.66c0.28-0.09,0.56-0.17,0.85-0.23 c1.64-0.41,3.36-0.62,5.14-0.62c4.47,0,8.63,1.35,12.07,3.66c1.71,1.15,3.25,2.53,4.55,4.1c0.66,0.79,1.26,1.62,1.79,2.5 c0.05,0.07,0.09,0.13,0.13,0.2c0.32,0.53,0.62,1.08,0.89,1.64c0.25,0.5,0.47,1,0.67,1.52C41.34,32.25,41.6,33.07,41.82,33.91z"/><path fill="#ff1744" d="M40.28,37.59c-0.14,0.21-0.29,0.41-0.44,0.6c-0.44,0.55-0.92,1.05-1.46,1.49c-0.47,0.39-0.97,0.74-1.5,1.04 c-0.2-0.05-0.4-0.11-0.61-0.19c-0.66-0.23-1.35-0.61-1.99-1.01c-0.96-0.61-1.79-1.27-2.16-1.57c-0.14-0.12-0.21-0.18-0.21-0.18 l-1.7-0.15L30,37.6l-2.2-0.19l-2.28-0.2l-3.37-0.3l-5.34-0.47l-0.02-0.01l-1.88-0.91l-1.9-0.92l-1.53-0.74l-0.33-0.16l-0.41-0.2 l-1.42-0.69L7.43,31.9l-0.59-0.29L6,31.35v-4.47c0.47-0.56,0.97-1.09,1.5-1.6c0.34-0.32,0.7-0.64,1.07-0.94 c0.06-0.05,0.12-0.1,0.18-0.14c0.04-0.05,0.09-0.08,0.13-0.1c0.59-0.48,1.21-0.91,1.85-1.3c0.74-0.47,1.52-0.89,2.33-1.24 c0.87-0.39,1.78-0.72,2.72-0.97c1.63-0.46,3.36-0.7,5.14-0.7c4.08,0,7.85,1.24,10.96,3.37c1.99,1.36,3.71,3.08,5.07,5.07 c0.45,0.64,0.85,1.32,1.22,2.02c0.13,0.26,0.26,0.52,0.37,0.78c0.12,0.25,0.23,0.5,0.34,0.75c0.21,0.52,0.4,1.04,0.57,1.58 c0.32,1,0.56,2.02,0.71,3.08C40.21,36.89,40.25,37.24,40.28,37.59z"/><path fill="#ff5722" d="M38.39,39.42c0,0.08,0,0.17-0.01,0.26c-0.47,0.39-0.97,0.74-1.5,1.04c-0.22,0.12-0.44,0.24-0.67,0.34 c-0.23,0.11-0.46,0.21-0.7,0.3c-0.34-0.18-0.8-0.4-1.29-0.61c-0.69-0.31-1.44-0.59-2.02-0.68c-0.14-0.03-0.27-0.04-0.39-0.04 l-1.64-0.21h-0.02l-2.04-0.27l-2.06-0.27l-0.96-0.12l-7.56-0.98c-0.49,0-1.01-0.03-1.55-0.1c-0.66-0.06-1.35-0.16-2.04-0.3 c-0.68-0.12-1.37-0.28-2.03-0.45c-0.69-0.16-1.37-0.35-2-0.53c-0.73-0.22-1.41-0.43-1.98-0.62c-0.47-0.15-0.87-0.29-1.18-0.4 c-0.18-0.43-0.33-0.88-0.44-1.34C6.1,33.66,6,32.84,6,32v-1.67c0.32-0.53,0.67-1.05,1.06-1.54c0.71-0.94,1.52-1.8,2.4-2.56 c0.03-0.04,0.07-0.07,0.1-0.09l0.01-0.01c0.31-0.28,0.63-0.53,0.97-0.77c0.04-0.04,0.08-0.07,0.12-0.1 c0.16-0.12,0.33-0.24,0.51-0.35c1.43-0.97,3.01-1.73,4.7-2.24c1.6-0.48,3.29-0.73,5.05-0.73c3.49,0,6.75,1.03,9.47,2.79 c2.01,1.29,3.74,2.99,5.06,4.98c0.16,0.23,0.31,0.46,0.46,0.7c0.69,1.17,1.26,2.43,1.68,3.75c0.05,0.15,0.09,0.3,0.13,0.46 c0.08,0.27,0.15,0.55,0.21,0.83c0.02,0.07,0.04,0.14,0.06,0.22c0.14,0.63,0.24,1.29,0.31,1.95c0,0.01,0,0.01,0,0.01 C38.36,38.22,38.39,38.82,38.39,39.42z"/><path fill="#ff6f00" d="M36.33,39.42c0,0.35-0.02,0.73-0.06,1.11c-0.02,0.18-0.04,0.36-0.06,0.53c-0.23,0.11-0.46,0.21-0.7,0.3 c-0.45,0.17-0.91,0.31-1.38,0.41c-0.32,0.07-0.65,0.13-0.98,0.16h-0.01c-0.31-0.19-0.67-0.42-1.04-0.68 c-0.67-0.47-1.37-1-1.93-1.43c-0.01-0.01-0.01-0.01-0.02-0.02c-0.59-0.45-1.01-0.79-1.01-0.79l-1.06,0.04l-2.04,0.07l-0.95,0.04 l-3.82,0.14l-3.23,0.12c-0.21,0.01-0.46,0.01-0.77,0h-0.01c-0.42-0.01-0.92-0.04-1.47-0.09c-0.64-0.05-1.34-0.11-2.05-0.18 c-0.69-0.08-1.39-0.16-2.06-0.24c-0.74-0.08-1.44-0.17-2.04-0.25c-0.47-0.06-0.88-0.11-1.21-0.15c-0.28-0.32-0.53-0.65-0.77-1.01 c-0.36-0.54-0.67-1.11-0.91-1.72c-0.18-0.43-0.33-0.88-0.44-1.34c0.29-0.89,0.67-1.73,1.12-2.54c0.36-0.66,0.78-1.29,1.24-1.89 c0.45-0.59,0.94-1.14,1.47-1.64v-0.01c0.15-0.15,0.3-0.29,0.45-0.42c0.28-0.26,0.57-0.5,0.87-0.73h0.01 c0.01-0.02,0.02-0.02,0.03-0.03c0.24-0.19,0.49-0.36,0.74-0.53c1.48-1.01,3.15-1.76,4.95-2.2c1.19-0.29,2.44-0.45,3.73-0.45 c2.54,0,4.94,0.61,7.05,1.71h0.01c1.81,0.93,3.41,2.21,4.7,3.75c0.71,0.82,1.32,1.72,1.82,2.67c0.35,0.64,0.65,1.31,0.9,1.99 c0.02,0.06,0.04,0.11,0.06,0.16c0.17,0.5,0.32,1.02,0.45,1.54c0.09,0.37,0.16,0.75,0.22,1.13c0.02,0.12,0.04,0.23,0.05,0.35 C36.28,37.99,36.33,38.7,36.33,39.42z"/><path fill="#ff9800" d="M34.28,39.42v0.1c0,0.34-0.03,0.77-0.06,1.23c-0.03,0.34-0.06,0.69-0.09,1.02c-0.32,0.07-0.65,0.13-0.98,0.16 h-0.01C32.76,41.98,32.39,42,32,42h-1.75l-0.38-0.11l-1.97-0.6l-2-0.6l-4.63-1.39l-2-0.6c0,0-0.83,0.33-2,0.72h-0.01 c-0.45,0.15-0.94,0.31-1.46,0.47c-0.65,0.19-1.34,0.38-2.02,0.53c-0.7,0.16-1.39,0.28-2.01,0.33c-0.19,0.02-0.38,0.03-0.55,0.03 c-0.56-0.31-1.1-0.68-1.59-1.09c-0.43-0.36-0.83-0.75-1.2-1.18c-0.28-0.32-0.53-0.65-0.77-1.01c0.07-0.45,0.15-0.89,0.27-1.32 c0.3-1.19,0.77-2.33,1.39-3.37c0.34-0.59,0.72-1.16,1.16-1.69c0.01-0.03,0.04-0.06,0.07-0.08c-0.01-0.01,0-0.01,0-0.01 c0.13-0.17,0.27-0.33,0.41-0.48c0-0.01,0-0.01,0-0.01c0.41-0.44,0.83-0.86,1.29-1.25c0.16-0.13,0.31-0.26,0.48-0.39 c0.03-0.03,0.06-0.05,0.1-0.08c2.25-1.72,5.06-2.76,8.09-2.76c3.44,0,6.57,1.29,8.94,3.41c1.14,1.03,2.11,2.26,2.84,3.63 c0.06,0.1,0.12,0.21,0.17,0.32c0.09,0.18,0.18,0.37,0.26,0.57c0.33,0.72,0.59,1.48,0.77,2.26c0.02,0.08,0.04,0.16,0.06,0.24 c0.08,0.37,0.15,0.75,0.2,1.13C34.24,38.21,34.28,38.81,34.28,39.42z"/><path fill="#ffc107" d="M32.22,39.42c0,0.2-0.01,0.42-0.02,0.65c-0.02,0.37-0.05,0.77-0.1,1.18c-0.02,0.25-0.06,0.5-0.1,0.75h-5.48 l-1.06-0.17l-4.14-0.66l-0.59-0.09l-1.35-0.22c-0.59,0-1.87,0.26-3.22,0.51c-0.71,0.13-1.43,0.27-2.08,0.36 c-0.08,0.01-0.16,0.02-0.23,0.03h-0.01c-0.7-0.15-1.38-0.38-2.02-0.68c-0.2-0.09-0.4-0.19-0.6-0.3c-0.56-0.31-1.1-0.68-1.59-1.09 c-0.01-0.12-0.02-0.22-0.02-0.27c0-0.26,0.01-0.51,0.03-0.76c0.04-0.64,0.13-1.26,0.27-1.86c0.22-0.91,0.54-1.79,0.97-2.6 c0.08-0.17,0.17-0.34,0.27-0.5c0.04-0.08,0.09-0.15,0.13-0.23c0.18-0.29,0.38-0.57,0.58-0.85c0.42-0.55,0.89-1.07,1.39-1.54 c0.01,0,0.01,0,0.01,0c0.04-0.04,0.08-0.08,0.12-0.11c0.05-0.04,0.09-0.09,0.14-0.12c0.2-0.18,0.4-0.34,0.61-0.49 c0-0.01,0.01-0.01,0.01-0.01c1.89-1.41,4.23-2.24,6.78-2.24c1.98,0,3.82,0.5,5.43,1.38h0.01c1.38,0.76,2.58,1.79,3.53,3.03 c0.37,0.48,0.7,0.99,0.98,1.53h0.01c0.05,0.1,0.1,0.2,0.15,0.3c0.3,0.59,0.54,1.21,0.72,1.85h0.01c0.01,0.05,0.03,0.1,0.04,0.15 c0.12,0.43,0.22,0.87,0.29,1.32c0.01,0.09,0.02,0.19,0.03,0.28C32.19,38.43,32.22,38.92,32.22,39.42z"/><path fill="#ffd54f" d="M30.17,39.31c0,0.16,0,0.33-0.02,0.49v0.01c0,0.01,0,0.01,0,0.01c-0.02,0.72-0.12,1.43-0.28,2.07 c0,0.04-0.01,0.07-0.03,0.11h-4.67l-3.85-0.83l-0.51-0.11l-0.08,0.02l-4.27,0.88L16.27,42H16c-0.64,0-1.27-0.06-1.88-0.18 c-0.09-0.02-0.18-0.04-0.27-0.06h-0.01c-0.7-0.15-1.38-0.38-2.02-0.68c-0.02-0.11-0.04-0.22-0.05-0.33 c-0.07-0.43-0.1-0.88-0.1-1.33c0-0.17,0-0.34,0.01-0.51c0.03-0.54,0.11-1.07,0.23-1.58c0.08-0.38,0.19-0.75,0.32-1.1 c0.11-0.31,0.24-0.61,0.38-0.9c0.12-0.25,0.26-0.49,0.4-0.73c0.14-0.23,0.29-0.45,0.45-0.67c0.4-0.55,0.87-1.06,1.39-1.51 c0.3-0.26,0.63-0.51,0.97-0.73c1.46-0.96,3.21-1.52,5.1-1.52c0.37,0,0.73,0.02,1.08,0.07h0.02c1.07,0.12,2.07,0.42,2.99,0.87 c0.01,0,0.01,0,0.01,0c1.45,0.71,2.68,1.78,3.58,3.1c0.15,0.22,0.3,0.46,0.43,0.7c0.11,0.19,0.21,0.39,0.3,0.59 c0.14,0.31,0.27,0.64,0.38,0.97h0.01c0.11,0.37,0.21,0.74,0.28,1.13v0.01C30.11,38.16,30.17,38.73,30.17,39.31z"/><path fill="#ffe082" d="M28.11,39.52v0.03c0,0.59-0.07,1.17-0.21,1.74c-0.05,0.24-0.12,0.48-0.21,0.71h-4.48l-2.29-0.63L18.63,42H16 c-0.64,0-1.27-0.06-1.88-0.18c-0.02-0.03-0.03-0.06-0.04-0.09c-0.14-0.43-0.25-0.86-0.3-1.31c-0.04-0.29-0.06-0.59-0.06-0.9 c0-0.12,0-0.25,0.02-0.37c0.01-0.47,0.08-0.93,0.2-1.37c0.06-0.3,0.15-0.59,0.27-0.87c0.04-0.14,0.1-0.27,0.17-0.4 c0.15-0.34,0.33-0.67,0.53-0.99c0.22-0.32,0.46-0.62,0.73-0.9c0.32-0.36,0.68-0.69,1.09-0.96c0.7-0.51,1.5-0.89,2.37-1.1 c0.58-0.16,1.19-0.24,1.82-0.24c2,0,3.79,0.8,5.09,2.09c0.05,0.05,0.11,0.11,0.16,0.18h0.01c0.14,0.15,0.27,0.3,0.4,0.47 c0.37,0.47,0.68,0.98,0.92,1.54c0.12,0.26,0.22,0.53,0.3,0.81c0.01,0.04,0.02,0.07,0.03,0.11c0.14,0.49,0.23,1,0.25,1.53 C28.1,39.2,28.11,39.36,28.11,39.52z"/><path fill="#ffecb3" d="M26.06,39.52c0,0.41-0.05,0.8-0.16,1.17c-0.1,0.4-0.25,0.78-0.44,1.14c-0.03,0.06-0.1,0.17-0.1,0.17h-8.88 c-0.01-0.01-0.02-0.03-0.02-0.04c-0.12-0.19-0.22-0.38-0.3-0.59c-0.2-0.46-0.32-0.96-0.36-1.48c-0.02-0.12-0.02-0.25-0.02-0.37 c0-0.06,0-0.13,0.01-0.19c0.01-0.44,0.07-0.86,0.19-1.25c0.1-0.36,0.23-0.69,0.4-1.01c0,0,0.01-0.01,0.01-0.02 c0.12-0.21,0.25-0.42,0.4-0.62c0.49-0.66,1.14-1.2,1.89-1.55c0.01,0,0.01,0,0.01,0c0.24-0.12,0.49-0.22,0.75-0.29c0,0,0,0,0.01,0 c0.46-0.14,0.96-0.21,1.47-0.21c0.59,0,1.16,0.09,1.68,0.28c0.19,0.05,0.37,0.13,0.55,0.22c0,0,0,0,0.01,0 c0.86,0.41,1.59,1.05,2.09,1.85c0.1,0.15,0.19,0.31,0.27,0.48c0.04,0.07,0.08,0.15,0.11,0.22c0.23,0.52,0.37,1.09,0.41,1.69 c0.01,0.05,0.01,0.1,0.01,0.16C26.06,39.36,26.06,39.44,26.06,39.52z"/><g><path fill="none" stroke="#fff" stroke-linecap="round" stroke-linejoin="round" stroke-miterlimit="10" stroke-width="2" d="M30,11H18c-3.9,0-7,3.1-7,7v12c0,3.9,3.1,7,7,7h12c3.9,0,7-3.1,7-7V18C37,14.1,33.9,11,30,11z"/><circle cx="31" cy="16" r="1" fill="#fff"/></g><g><circle cx="24" cy="24" r="6" fill="none" stroke="#fff" stroke-linecap="round" stroke-linejoin="round" stroke-miterlimit="10" stroke-width="2"/></g>
    </g>
    <g id="whatsapp">
        <path fill="#fff" d="M4.868,43.303l2.694-9.835C5.9,30.59,5.026,27.324,5.027,23.979C5.032,13.514,13.548,5,24.014,5c5.079,0.002,9.845,1.979,13.43,5.566c3.584,3.588,5.558,8.356,5.556,13.428c-0.004,10.465-8.522,18.98-18.986,18.98c-0.001,0,0,0,0,0h-0.008c-3.177-0.001-6.3-0.798-9.073-2.311L4.868,43.303z"/><path fill="#fff" d="M4.868,43.803c-0.132,0-0.26-0.052-0.355-0.148c-0.125-0.127-0.174-0.312-0.127-0.483l2.639-9.636c-1.636-2.906-2.499-6.206-2.497-9.556C4.532,13.238,13.273,4.5,24.014,4.5c5.21,0.002,10.105,2.031,13.784,5.713c3.679,3.683,5.704,8.577,5.702,13.781c-0.004,10.741-8.746,19.48-19.486,19.48c-3.189-0.001-6.344-0.788-9.144-2.277l-9.875,2.589C4.953,43.798,4.911,43.803,4.868,43.803z"/><path fill="#cfd8dc" d="M24.014,5c5.079,0.002,9.845,1.979,13.43,5.566c3.584,3.588,5.558,8.356,5.556,13.428c-0.004,10.465-8.522,18.98-18.986,18.98h-0.008c-3.177-0.001-6.3-0.798-9.073-2.311L4.868,43.303l2.694-9.835C5.9,30.59,5.026,27.324,5.027,23.979C5.032,13.514,13.548,5,24.014,5 M24.014,42.974C24.014,42.974,24.014,42.974,24.014,42.974C24.014,42.974,24.014,42.974,24.014,42.974 M24.014,42.974C24.014,42.974,24.014,42.974,24.014,42.974C24.014,42.974,24.014,42.974,24.014,42.974 M24.014,4C24.014,4,24.014,4,24.014,4C12.998,4,4.032,12.962,4.027,23.979c-0.001,3.367,0.849,6.685,2.461,9.622l-2.585,9.439c-0.094,0.345,0.002,0.713,0.254,0.967c0.19,0.192,0.447,0.297,0.711,0.297c0.085,0,0.17-0.011,0.254-0.033l9.687-2.54c2.828,1.468,5.998,2.243,9.197,2.244c11.024,0,19.99-8.963,19.995-19.98c0.002-5.339-2.075-10.359-5.848-14.135C34.378,6.083,29.357,4.002,24.014,4L24.014,4z"/><path fill="#40c351" d="M35.176,12.832c-2.98-2.982-6.941-4.625-11.157-4.626c-8.704,0-15.783,7.076-15.787,15.774c-0.001,2.981,0.833,5.883,2.413,8.396l0.376,0.597l-1.595,5.821l5.973-1.566l0.577,0.342c2.422,1.438,5.2,2.198,8.032,2.199h0.006c8.698,0,15.777-7.077,15.78-15.776C39.795,19.778,38.156,15.814,35.176,12.832z"/><path fill="#fff" fill-rule="evenodd" d="M19.268,16.045c-0.355-0.79-0.729-0.806-1.068-0.82c-0.277-0.012-0.593-0.011-0.909-0.011c-0.316,0-0.83,0.119-1.265,0.594c-0.435,0.475-1.661,1.622-1.661,3.956c0,2.334,1.7,4.59,1.937,4.906c0.237,0.316,3.282,5.259,8.104,7.161c4.007,1.58,4.823,1.266,5.693,1.187c0.87-0.079,2.807-1.147,3.202-2.255c0.395-1.108,0.395-2.057,0.277-2.255c-0.119-0.198-0.435-0.316-0.909-0.554s-2.807-1.385-3.242-1.543c-0.435-0.158-0.751-0.237-1.068,0.238c-0.316,0.474-1.225,1.543-1.502,1.859c-0.277,0.317-0.554,0.357-1.028,0.119c-0.474-0.238-2.002-0.738-3.815-2.354c-1.41-1.257-2.362-2.81-2.639-3.285c-0.277-0.474-0.03-0.731,0.208-0.968c0.213-0.213,0.474-0.554,0.712-0.831c0.237-0.277,0.316-0.475,0.474-0.791c0.158-0.317,0.079-0.594-0.04-0.831C20.612,19.329,19.69,16.983,19.268,16.045z" clip-rule="evenodd"/>
    </g>
    <g id="telegram">
        <path fill="#29b6f6" d="M24 4A20 20 0 1 0 24 44A20 20 0 1 0 24 4Z"/><path fill="#fff" d="M33.95,15l-3.746,19.126c0,0-0.161,0.874-1.245,0.874c-0.576,0-0.873-0.274-0.873-0.274l-8.114-6.733 l-3.97-2.001l-5.095-1.355c0,0-0.907-0.262-0.907-1.012c0-0.625,0.933-0.923,0.933-0.923l21.316-8.468 c-0.001-0.001,0.651-0.235,1.126-0.234C33.667,14,34,14.125,34,14.5C34,14.75,33.95,15,33.95,15z"/><path fill="#b0bec5" d="M23,30.505l-3.426,3.374c0,0-0.149,0.115-0.348,0.12c-0.069,0.002-0.143-0.009-0.219-0.043 l0.964-5.965L23,30.505z"/><path fill="#cfd8dc" d="M29.897,18.196c-0.169-0.22-0.481-0.26-0.701-0.093L16,26c0,0,2.106,5.892,2.427,6.912 c0.322,1.021,0.58,1.045,0.58,1.045l0.964-5.965l9.832-9.096C30.023,18.729,30.064,18.416,29.897,18.196z"/>
    </g>
</svg>