<?xml version="1.0" standalone="no"?>
<svg version="1.0" xmlns="http://www.w3.org/2000/svg"
 width="1350.000000pt" height="1188.000000pt" viewBox="0 0 1350.000000 1188.000000"
 preserveAspectRatio="xMidYMid meet">
<metadata>
Created by potrace 1.10, written by Peter Selinger 2001-2011
</metadata>
<g transform="translate(0.000000,1188.000000) scale(0.100000,-0.100000)"
fill="#FFFFFF99" stroke="none">
<path d="M6717 11853 c-3 -17 4 -46 19 -77 13 -28 22 -56 20 -63 -3 -7 1 -10
10 -6 21 8 52 -34 70 -97 9 -30 23 -62 30 -71 8 -8 14 -25 14 -37 0 -14 6 -22
16 -22 14 0 16 -7 11 -40 -3 -22 -2 -42 2 -45 5 -2 11 -37 15 -76 3 -40 12
-79 18 -87 7 -8 12 -35 13 -60 0 -55 16 -64 33 -19 16 45 15 82 -3 101 -11 11
-15 38 -15 101 0 77 -3 90 -25 119 -14 18 -25 38 -25 44 0 6 -9 16 -20 22 -28
15 -27 76 2 107 25 27 22 33 -21 38 -17 2 -38 11 -47 20 -8 8 -20 15 -25 15
-16 0 -49 82 -49 123 0 29 -4 37 -19 37 -12 0 -20 -9 -24 -27z"/>
<path d="M6842 11833 c3 -42 6 -48 42 -66 21 -11 55 -26 75 -32 20 -7 40 -22
46 -34 11 -24 20 -27 31 -9 4 6 0 16 -9 23 -10 7 -17 17 -17 23 0 6 -9 13 -19
17 -11 3 -22 12 -25 20 -3 8 -14 15 -25 15 -19 0 -51 48 -51 77 0 7 -11 13
-26 13 -24 0 -25 -2 -22 -47z"/>
<path d="M196 11683 c-4 -5 -31 -9 -59 -10 -29 -1 -71 -4 -94 -8 -42 -7 -43
-8 -43 -45 l0 -38 32 15 c18 9 37 22 41 30 4 7 22 13 40 14 18 0 41 4 52 8 20
8 76 -10 104 -33 9 -7 62 -11 145 -11 118 0 136 -2 180 -24 27 -13 64 -24 82
-23 27 1 39 -6 68 -41 l35 -42 35 19 c25 13 45 17 70 12 33 -6 40 -3 93 49 31
30 64 55 73 55 22 0 30 9 23 26 -3 8 -16 14 -29 14 -17 0 -24 -6 -24 -20 0
-13 -7 -20 -20 -20 -11 0 -20 -4 -20 -10 0 -15 -57 -41 -87 -38 -16 1 -38 -4
-50 -10 -32 -18 -49 -15 -77 13 -17 17 -36 25 -61 25 -20 0 -52 8 -73 19 -53
27 -97 35 -179 32 -39 -1 -81 3 -92 9 -15 8 -26 7 -40 -2 -16 -10 -23 -9 -39
5 -10 9 -26 17 -35 17 -9 0 -19 5 -22 10 -7 12 -19 13 -29 3z"/>
<path d="M6977 11635 c-15 -19 -27 -37 -27 -40 0 -4 16 -26 35 -49 19 -24 35
-46 35 -50 0 -4 7 -14 15 -22 11 -11 15 -38 15 -94 0 -62 6 -94 26 -147 33
-86 42 -160 20 -169 -19 -7 -39 -67 -31 -93 5 -17 -2 -42 -28 -99 -10 -21 -7
-27 31 -59 23 -19 42 -40 42 -47 0 -20 39 -66 56 -66 8 0 14 9 14 19 0 11 11
33 24 48 24 27 27 28 148 31 162 5 186 -2 215 -57 12 -24 29 -49 37 -55 20
-16 39 -83 32 -111 -9 -36 9 -71 45 -89 43 -22 46 -21 58 17 11 32 26 43 121
94 25 13 50 30 56 38 5 8 22 17 37 20 28 7 35 19 17 30 -12 7 -120 -43 -120
-56 0 -14 -38 -11 -42 3 -3 8 -21 -4 -47 -30 -48 -48 -71 -54 -71 -18 0 16 -7
27 -20 31 -12 4 -20 14 -18 23 2 18 -28 88 -48 112 -8 8 -26 31 -43 50 l-29
34 -145 -1 c-112 -1 -154 -5 -178 -17 -42 -21 -42 -21 -80 13 l-32 29 8 86 c4
47 11 88 16 92 15 9 11 159 -6 190 -8 16 -15 50 -15 76 0 26 -4 50 -10 53 -5
3 -10 30 -10 59 0 35 -5 58 -15 66 -8 7 -15 19 -15 28 0 8 -7 24 -17 34 -10
11 -17 37 -17 67 -1 27 -4 52 -6 55 -3 3 -18 -10 -33 -29z"/>
<path d="M925 11621 c-3 -5 -1 -12 5 -16 12 -7 30 2 30 16 0 12 -27 12 -35 0z"/>
<path d="M1107 11604 c-3 -4 2 -23 13 -43 10 -20 26 -54 35 -76 27 -67 37 -83
66 -111 24 -23 31 -25 44 -14 8 7 15 18 15 26 0 7 10 25 23 40 21 23 33 27
121 36 107 10 90 15 229 -61 31 -17 66 -31 76 -31 19 0 51 30 51 48 0 19 -32
30 -60 21 -25 -9 -58 0 -110 30 -67 38 -89 42 -197 29 -66 -8 -107 -17 -110
-25 -6 -16 -35 -17 -51 -1 -9 9 -15 9 -24 -1 -10 -11 -10 -14 0 -18 6 -3 12
-12 12 -21 0 -13 -5 -11 -20 8 -11 14 -20 30 -20 37 0 7 -11 33 -25 59 -37 70
-52 84 -68 68z"/>
<path d="M115 11559 c-11 -5 -33 -18 -50 -29 -16 -11 -38 -23 -48 -26 -26 -9
-21 -28 5 -20 108 33 136 35 213 21 42 -8 121 -15 176 -15 87 0 101 -2 120
-21 14 -14 29 -19 46 -16 31 6 93 -12 93 -27 0 -15 29 -32 68 -41 18 -3 32
-11 32 -16 0 -14 58 -11 63 4 3 9 7 9 20 -1 13 -11 21 -10 48 4 25 13 37 14
51 5 10 -6 30 -11 45 -10 l28 0 -25 12 c-35 16 -36 17 -20 27 30 19 65 11 83
-19 9 -16 17 -36 17 -45 0 -9 5 -16 10 -16 6 0 10 5 10 10 0 6 5 10 10 10 6 0
10 -11 10 -24 0 -16 7 -27 20 -31 11 -3 20 -11 20 -16 0 -5 7 -9 15 -9 9 0 27
-12 40 -26 19 -20 30 -25 49 -20 35 9 24 29 -27 50 -45 19 -117 88 -117 111 0
8 -4 16 -9 19 -5 4 -17 31 -27 61 -20 66 -30 75 -51 46 -38 -56 -61 -73 -103
-83 -25 -5 -55 -9 -66 -9 -12 0 -27 -6 -34 -14 -18 -22 -53 -18 -81 8 -66 60
-89 75 -109 70 -21 -6 -84 20 -96 38 -4 7 -51 10 -128 9 -161 -3 -160 -3 -186
20 -25 21 -80 26 -115 9z"/>
<path d="M3260 11550 c0 -5 15 -13 33 -18 29 -7 32 -12 35 -50 2 -23 7 -42 13
-42 5 0 9 -6 9 -14 0 -7 10 -33 23 -57 16 -30 22 -55 19 -80 -2 -24 1 -39 12
-48 9 -8 16 -25 16 -38 0 -14 14 -41 30 -60 18 -19 30 -45 30 -61 0 -15 11
-40 23 -56 21 -26 30 -29 85 -30 46 -1 69 -7 91 -24 24 -17 44 -22 94 -22 36
0 80 -7 99 -15 29 -12 38 -12 54 -1 48 33 90 23 107 -26 8 -22 33 -23 41 -3 9
23 73 20 86 -5 6 -11 17 -20 25 -20 12 0 15 -14 15 -58 l0 -59 41 -19 c24 -10
51 -33 64 -54 27 -43 74 -90 89 -90 6 0 18 5 26 10 13 9 12 13 -7 29 -15 12
-20 25 -16 40 4 15 1 21 -11 21 -9 0 -16 -4 -16 -10 0 -5 -5 -10 -11 -10 -6 0
-9 9 -6 20 4 15 0 20 -14 20 -10 0 -23 9 -29 20 -6 11 -20 20 -31 20 -19 0
-44 43 -34 59 8 13 -34 85 -65 113 -19 16 -38 24 -50 21 -10 -3 -47 4 -82 15
-84 26 -145 35 -154 21 -11 -18 -198 8 -230 33 -6 4 -32 11 -58 14 -31 5 -50
13 -57 25 -5 11 -16 19 -24 19 -9 0 -17 15 -21 40 -4 22 -13 45 -20 51 -8 6
-14 24 -14 39 0 15 -9 37 -20 50 -11 13 -20 37 -20 54 0 39 -21 100 -43 124
-9 10 -17 31 -17 45 0 22 -9 31 -50 52 -55 28 -60 29 -60 15z m663 -595 c1 -5
-6 -11 -15 -13 -11 -2 -18 3 -18 13 0 17 30 18 33 0z"/>
<path d="M3172 11520 c-25 -18 -54 -30 -73 -30 -24 0 -30 -4 -27 -17 3 -15 14
-18 57 -17 59 2 85 20 96 67 9 35 -2 34 -53 -3z"/>
<path d="M1785 11449 c-11 -16 -6 -17 85 -20 110 -3 116 -4 130 -39 9 -23 17
-29 34 -25 27 6 72 8 116 7 26 -2 47 -12 77 -39 126 -115 162 -142 190 -143
28 0 158 68 158 83 0 17 -54 21 -73 5 -54 -43 -105 -50 -122 -18 -6 11 -17 20
-24 20 -7 0 -26 11 -42 25 -16 13 -45 38 -64 55 -19 16 -44 30 -55 30 -11 0
-29 6 -40 13 -27 19 -78 28 -95 17 -9 -5 -30 0 -59 16 -38 20 -60 24 -128 24
-47 0 -85 -5 -88 -11z"/>
<path d="M3010 11445 c-6 -8 -22 -17 -33 -21 -26 -8 -67 -43 -67 -58 -1 -16
-42 -62 -63 -69 -13 -5 -16 -13 -12 -27 5 -16 2 -20 -14 -20 -13 0 -21 6 -21
17 0 13 -3 14 -12 5 -13 -13 -50 -17 -45 -4 3 11 -10 13 -39 6 -24 -6 -24 -7
-7 -26 10 -11 30 -29 46 -40 l27 -19 48 23 c55 26 126 100 136 141 4 17 13 27
24 27 17 0 72 54 72 71 0 14 -26 10 -40 -6z"/>
<path d="M3241 11421 c-32 -32 -79 -50 -115 -44 -28 4 -35 2 -40 -15 -4 -11
-23 -30 -42 -41 -19 -11 -38 -31 -44 -43 -15 -38 -96 -117 -136 -134 -21 -9
-43 -22 -49 -30 -16 -22 -75 0 -128 46 -25 22 -53 40 -64 40 -10 0 -47 -19
-83 -41 -50 -32 -77 -42 -120 -46 -53 -4 -57 -3 -104 36 -52 44 -67 49 -86 26
-10 -11 -6 -17 22 -30 18 -8 48 -25 66 -36 42 -27 137 -34 177 -13 15 8 36 14
46 14 10 0 22 8 28 17 9 17 13 17 76 0 36 -10 75 -27 86 -38 13 -13 27 -18 37
-14 9 4 43 13 75 20 38 8 66 21 82 39 13 14 30 26 37 26 16 0 68 57 68 74 0
15 74 88 82 81 3 -4 25 3 49 14 55 27 58 27 71 -9 7 -23 15 -29 28 -25 15 5
19 -2 24 -40 4 -25 11 -45 16 -45 5 0 11 -14 15 -31 4 -17 13 -33 21 -36 10
-4 11 -10 3 -24 -12 -23 -4 -39 17 -39 12 0 14 -7 9 -29 -4 -21 -1 -34 12 -48
11 -10 24 -30 31 -46 6 -15 22 -31 34 -36 13 -5 32 -19 43 -31 33 -37 52 -42
79 -24 17 11 35 14 56 9 35 -8 37 -12 13 -32 -16 -12 -15 -13 14 -8 18 4 42 1
54 -5 17 -9 30 -10 58 -1 31 10 42 9 76 -8 22 -10 45 -16 50 -11 14 11 80 7
96 -6 8 -6 31 -19 52 -29 28 -13 40 -26 44 -47 4 -22 10 -27 24 -23 11 4 19 2
19 -5 0 -16 54 -66 89 -81 17 -8 31 -20 31 -27 0 -17 72 -88 122 -122 21 -14
38 -33 38 -42 0 -24 17 -31 28 -12 7 13 13 14 31 5 24 -13 26 -23 9 -52 -11
-17 -10 -22 12 -40 14 -10 33 -17 42 -15 10 2 20 -3 23 -15 3 -10 15 -21 26
-24 11 -4 19 -15 19 -28 0 -12 9 -28 20 -35 11 -7 20 -18 20 -25 0 -7 14 -27
30 -45 17 -18 30 -37 30 -42 0 -5 6 -13 13 -17 14 -9 35 -41 44 -66 3 -10 18
-24 34 -33 30 -15 38 -38 17 -48 -7 -3 -1 -3 13 0 18 4 28 1 32 -10 4 -9 15
-16 25 -16 10 0 27 -9 37 -20 19 -21 50 -26 60 -10 3 6 13 10 21 10 17 0 19
-40 2 -41 -14 -1 45 -16 100 -26 30 -5 32 -8 32 -47 0 -29 -13 -67 -41 -125
-31 -62 -40 -90 -35 -112 4 -22 -2 -44 -25 -84 -20 -35 -28 -61 -24 -77 3 -12
1 -29 -4 -37 -8 -12 -12 -13 -26 -1 -14 12 -15 9 -9 -28 4 -25 2 -53 -5 -70
-17 -41 9 -102 44 -102 13 0 28 -7 33 -16 6 -10 25 -16 58 -17 27 -1 56 -7 64
-12 8 -6 28 -14 45 -20 41 -14 41 -35 0 -65 -19 -14 -37 -37 -40 -53 -4 -15
-15 -32 -26 -37 -10 -6 -19 -17 -19 -25 0 -19 -10 -19 -24 0 -7 9 -28 14 -61
13 -27 0 -87 0 -132 1 -86 1 -141 -17 -176 -57 -23 -27 -39 -89 -32 -123 9
-39 -16 -89 -56 -112 -16 -9 -34 -28 -39 -42 -5 -14 -17 -25 -26 -25 -9 0 -30
-6 -47 -14 -18 -8 -74 -16 -124 -18 -81 -4 -96 -7 -114 -27 -16 -17 -24 -20
-35 -10 -17 14 -19 -2 -4 -31 8 -15 2 -27 -35 -67 -25 -26 -45 -53 -45 -59 0
-6 -6 -17 -13 -23 -8 -6 -19 -30 -26 -53 -7 -24 -22 -53 -32 -67 -18 -23 -49
-110 -49 -138 0 -7 9 -13 20 -13 16 0 20 7 20 31 0 43 34 95 70 107 28 10 28
12 27 72 l-2 62 48 42 c31 27 47 49 47 64 0 34 57 82 97 82 17 0 35 -4 38 -10
8 -12 46 -13 77 -1 13 5 51 17 86 27 62 19 64 20 109 93 42 66 46 80 45 129
-2 60 7 83 47 124 21 22 35 27 74 28 26 0 47 -4 47 -8 0 -5 19 -15 41 -22 39
-13 43 -13 59 8 25 30 65 28 109 -7 35 -28 52 -35 77 -32 6 0 14 31 17 67 4
38 13 74 22 83 8 9 27 30 42 48 18 20 41 34 65 38 91 17 89 65 -3 77 -30 5
-64 13 -76 19 -12 7 -30 8 -40 5 -17 -7 -17 -8 0 -21 21 -15 9 -28 -13 -14 -8
5 -34 9 -56 9 -51 0 -130 34 -145 62 -13 24 -5 75 16 98 8 9 16 30 17 46 1 16
5 34 9 39 4 6 10 25 14 43 4 22 16 37 36 47 32 17 36 32 14 61 -18 24 -19 68
-2 86 84 90 87 95 87 163 0 70 -11 85 -63 85 -13 0 -46 12 -73 26 -27 15 -78
33 -113 41 -63 13 -120 51 -121 79 0 6 -7 18 -17 25 -16 14 -93 114 -103 134
-3 5 -27 43 -55 83 -27 41 -54 81 -60 90 -28 47 -81 106 -105 116 -63 27 -157
101 -198 156 -29 40 -56 65 -87 79 -51 24 -68 54 -63 111 3 39 -19 53 -42 25
-20 -24 -49 -18 -80 17 -27 29 -31 31 -54 19 -15 -9 -37 -11 -58 -7 -18 4 -74
10 -124 14 -69 5 -97 12 -113 26 -20 18 -42 18 -100 0 -18 -5 -22 -4 -16 6 9
15 -11 30 -42 30 -29 0 -62 48 -80 117 -9 34 -24 63 -37 74 -15 11 -26 34 -30
60 -4 22 -13 54 -21 70 -8 15 -15 42 -15 58 0 19 -7 35 -19 43 -15 9 -18 19
-14 50 6 43 -6 49 -36 19z m1277 -1069 c2 -15 -2 -22 -12 -22 -11 0 -16 9 -16
26 0 31 23 28 28 -4z"/>
<path d="M1386 11380 c-22 -4 -32 -13 -40 -38 -7 -19 -23 -42 -36 -53 l-25
-19 34 0 c35 0 81 37 81 65 0 16 109 16 131 -1 22 -16 85 -44 102 -44 8 0 20
-7 27 -15 16 -20 79 -19 130 1 33 13 46 14 69 4 24 -10 33 -9 56 6 17 11 25
24 23 38 -3 18 -11 21 -61 24 -53 3 -59 1 -83 -27 -37 -44 -72 -41 -180 16
-91 48 -143 58 -228 43z"/>
<path d="M4697 11323 c-3 -5 -4 -48 -3 -98 l1 -90 55 -6 c47 -6 57 -4 73 14
16 18 16 22 4 35 -11 11 -19 11 -35 3 -34 -18 -45 8 -37 84 l7 65 -30 0 c-17
0 -33 -3 -35 -7z"/>
<path d="M5212 11303 c2 -23 7 -27 26 -25 21 3 22 0 22 -71 0 -80 11 -98 51
-77 16 9 18 18 12 72 -5 51 -3 63 11 74 10 7 25 10 33 7 11 -4 14 0 11 18 -3
23 -7 24 -86 27 l-83 3 3 -28z"/>
<path d="M5496 11321 c-7 -11 43 -141 63 -165 21 -25 41 -19 48 14 3 17 10 33
14 36 5 3 9 12 9 21 0 8 9 26 20 40 30 38 27 65 -7 61 -25 -3 -29 -9 -37 -50
-4 -27 -12 -48 -17 -48 -4 0 -14 21 -21 48 -11 39 -18 48 -40 50 -14 2 -29 -1
-32 -7z"/>
<path d="M5795 11230 l0 -101 30 3 29 3 1 95 0 95 -30 3 -30 3 0 -101z"/>
<path d="M5013 11313 c-7 -2 -13 -18 -13 -33 0 -16 -5 -32 -11 -35 -5 -4 -14
-17 -20 -28 -5 -12 -14 -29 -21 -38 -15 -22 -3 -49 21 -49 14 0 23 9 27 28 10
47 14 54 25 50 7 -2 17 -19 23 -38 9 -27 17 -36 39 -38 17 -2 27 1 27 10 0 16
-22 78 -34 97 -5 8 -12 28 -15 45 -7 30 -23 40 -48 29z"/>
<path d="M6049 11293 c-6 -16 -15 -36 -20 -45 -5 -10 -9 -24 -9 -32 0 -7 -7
-19 -15 -26 -22 -18 -20 -60 3 -60 26 0 42 20 42 52 0 39 17 35 37 -9 19 -40
56 -56 66 -29 3 8 -5 43 -18 78 -13 35 -26 71 -29 81 -9 27 -45 21 -57 -10z"/>
<path d="M2572 11299 c5 -17 98 -26 98 -10 0 6 -15 11 -34 11 -19 0 -42 3 -52
7 -12 4 -15 2 -12 -8z"/>
<path d="M2020 11288 c-73 -10 -75 -11 -66 -34 5 -12 13 -15 34 -9 15 4 53 9
85 12 52 4 57 3 57 -16 0 -17 4 -20 30 -14 19 3 30 1 30 -6 0 -6 -7 -11 -15
-11 -8 0 -15 -7 -15 -15 0 -9 9 -15 25 -15 14 0 25 5 25 10 0 6 7 10 15 10 25
0 17 26 -15 54 -28 23 -91 48 -115 45 -5 -1 -39 -6 -75 -11z"/>
<path d="M7010 11151 c0 -5 -6 -16 -13 -23 -6 -7 -28 -46 -47 -85 -19 -40 -40
-73 -47 -73 -6 0 -15 -9 -18 -20 -3 -11 -12 -20 -19 -20 -8 0 -40 -16 -72 -35
-32 -19 -65 -35 -74 -35 -9 0 -29 -14 -46 -31 -16 -17 -38 -35 -50 -39 -16 -7
-19 -15 -16 -44 3 -27 1 -36 -11 -36 -8 0 -17 -7 -21 -15 -3 -8 -17 -15 -31
-15 -16 0 -25 -6 -25 -15 0 -19 -28 -49 -55 -59 -20 -7 -20 -8 -1 -21 16 -12
17 -17 6 -30 -7 -8 -21 -15 -31 -15 -11 0 -19 -6 -19 -14 0 -7 -7 -19 -15 -26
-12 -10 -18 -10 -30 0 -20 16 -32 5 -16 -14 10 -12 8 -20 -12 -40 -19 -18 -28
-43 -36 -91 -5 -37 -7 -73 -4 -80 5 -16 -48 -75 -67 -75 -7 0 -9 8 -5 20 5 16
2 20 -15 20 -17 0 -20 -4 -15 -20 5 -17 2 -20 -20 -20 -22 0 -25 3 -20 21 6
19 4 20 -31 13 -31 -6 -39 -3 -55 17 -15 20 -21 22 -41 12 -31 -16 -95 -11
-110 8 -23 29 -75 42 -136 35 -31 -4 -81 -9 -110 -12 -29 -4 -55 -10 -58 -15
-3 -5 -13 -9 -22 -9 -9 0 -24 -15 -33 -32 -10 -20 -27 -36 -50 -43 -28 -10
-34 -17 -34 -41 0 -18 -6 -30 -16 -32 -8 -1 -19 -17 -25 -35 -5 -18 -19 -36
-31 -42 -14 -6 -23 -18 -23 -32 0 -26 -25 -31 -34 -8 -3 8 -17 15 -31 15 -14
0 -25 5 -25 10 0 26 -75 6 -116 -32 -18 -16 -23 -17 -33 -4 -10 12 -16 13 -32
3 -15 -9 -23 -9 -39 1 -11 6 -26 12 -34 12 -23 0 -31 22 -12 35 15 11 15 13 1
19 -9 3 -18 -1 -21 -9 -9 -21 -41 -18 -65 6 -11 11 -27 18 -37 15 -13 -4 -26
10 -52 56 -19 33 -47 70 -62 81 -15 11 -29 33 -33 53 -3 19 -10 34 -16 34 -5
0 -15 11 -21 25 -6 13 -19 27 -30 30 -24 8 -23 31 2 38 25 6 26 23 3 31 -11 4
-22 1 -29 -8 -6 -9 -16 -16 -23 -16 -14 0 -15 27 -1 35 16 10 11 25 -8 25 -19
0 -52 29 -52 46 0 17 -61 63 -76 57 -8 -3 -23 5 -35 21 -25 31 -40 33 -57 6
-12 -20 -9 -23 51 -50 36 -16 74 -42 88 -60 13 -17 39 -47 56 -68 18 -20 33
-43 33 -50 0 -7 6 -15 14 -18 8 -3 17 -16 20 -30 4 -13 11 -24 16 -24 6 0 10
-7 10 -15 0 -8 4 -15 9 -15 5 0 14 -12 19 -27 6 -16 22 -41 36 -58 14 -16 46
-58 70 -92 52 -71 71 -84 132 -88 28 -2 60 -13 89 -33 77 -51 97 -51 148 2 24
25 50 46 58 46 8 0 26 -11 40 -24 36 -33 47 -34 102 -7 39 19 53 33 67 67 10
23 16 52 13 63 -4 15 -1 21 12 21 21 0 85 68 85 91 0 24 46 39 112 37 42 -1
63 3 76 15 23 21 56 22 72 2 7 -8 18 -15 25 -15 7 0 32 -23 57 -51 l44 -50 29
41 c31 45 48 46 91 3 15 -15 31 -22 41 -19 8 4 21 2 27 -3 6 -5 27 -11 46 -14
19 -3 47 -9 61 -12 22 -6 29 -2 47 30 18 29 22 52 22 121 0 80 1 86 29 112 57
54 130 112 140 112 6 0 11 19 11 43 1 40 4 44 62 87 51 37 64 53 75 90 10 36
20 49 48 63 20 9 45 17 56 17 12 0 35 8 52 18 28 15 45 29 105 82 15 14 19 14
32 -3 13 -16 17 -16 35 -3 18 13 18 18 8 48 -10 26 -10 41 1 71 7 21 18 43 24
49 15 15 16 55 2 63 -5 3 -10 2 -10 -4z"/>
<path d="M6906 10826 c-16 -25 -108 -78 -130 -75 -26 3 -36 -2 -36 -20 0 -10
-7 -24 -15 -31 -8 -7 -15 -18 -15 -26 0 -7 -14 -23 -31 -35 l-31 -22 23 -18
c22 -17 25 -17 37 -2 6 9 12 23 12 31 0 19 29 41 54 42 15 0 17 5 12 26 -7 26
-6 27 34 20 37 -6 41 -5 36 12 -9 27 52 45 86 26 13 -7 32 -18 44 -24 11 -7
28 -24 37 -40 15 -24 97 -99 97 -88 0 14 -42 88 -50 88 -6 0 -10 9 -10 19 0
11 -18 34 -40 51 -22 18 -47 45 -56 61 -18 35 -37 37 -58 5z"/>
<path d="M7263 10705 c-27 -11 -33 -20 -33 -45 0 -18 -6 -33 -15 -36 -8 -4
-15 -10 -15 -15 0 -18 22 -8 49 20 28 30 91 44 119 27 8 -4 16 -5 20 -1 4 4 1
10 -6 12 -15 6 -6 23 13 23 28 0 96 -54 102 -82 3 -14 13 -35 22 -45 10 -10
17 -34 17 -55 0 -38 34 -88 60 -88 6 0 14 -7 18 -15 3 -8 16 -15 30 -15 14 0
28 -4 31 -10 19 -31 155 5 155 41 0 27 48 62 93 68 33 5 42 10 42 26 0 13 7
20 20 20 14 0 19 -6 17 -17 -4 -26 34 -23 41 2 3 11 12 20 20 20 21 0 29 -38
10 -49 -23 -13 -6 -34 17 -21 28 15 76 12 90 -5 7 -8 27 -15 44 -15 17 0 42
-9 56 -19 20 -16 22 -21 11 -35 -12 -14 -10 -16 13 -16 27 0 36 -22 15 -36 -6
-4 -9 -19 -5 -36 4 -18 0 -38 -10 -53 -12 -19 -15 -45 -13 -116 4 -85 6 -92
32 -114 15 -13 27 -27 27 -30 0 -4 21 -28 48 -55 26 -26 52 -56 57 -65 8 -12
17 -16 32 -11 21 7 21 8 4 25 -10 10 -37 44 -60 74 -22 31 -50 59 -62 62 -11
4 -27 22 -35 41 -16 39 -19 151 -3 156 12 4 28 69 29 115 0 23 8 38 31 56 l32
24 -23 23 c-13 13 -29 20 -40 17 -11 -3 -27 1 -37 9 -10 7 -32 14 -49 14 -40
0 -94 18 -119 40 -31 27 -79 49 -125 56 -35 6 -52 2 -89 -17 -25 -13 -52 -30
-59 -36 -7 -7 -20 -13 -29 -13 -19 0 -52 -39 -53 -62 -1 -47 -82 -77 -116 -43
-9 8 -25 15 -37 15 -13 0 -34 15 -52 37 -23 29 -30 49 -33 97 -4 48 -12 71
-36 106 -17 25 -35 48 -41 52 -18 14 -188 8 -222 -7z"/>
<path d="M7997 10685 c-8 -18 0 -23 51 -31 23 -4 47 -13 53 -20 6 -8 20 -14
31 -14 11 0 37 -13 58 -30 26 -21 49 -30 74 -30 56 0 157 -38 193 -73 55 -52
54 -127 -2 -141 -23 -6 -25 -11 -25 -66 0 -44 -4 -61 -16 -68 -10 -5 -18 -27
-21 -54 -5 -43 -4 -47 37 -79 23 -19 50 -49 59 -68 22 -47 35 -48 62 -4 29 46
76 89 138 125 81 47 88 49 128 33 44 -19 43 -19 43 3 1 9 14 40 29 67 22 38
36 51 56 53 14 2 29 10 32 18 7 20 150 20 172 0 9 -8 32 -17 51 -21 31 -6 40
-2 72 29 48 47 95 50 130 8 18 -23 39 -32 101 -46 138 -29 187 -61 187 -120 0
-19 5 -26 20 -26 26 0 56 -17 98 -54 35 -33 39 -47 17 -66 -12 -10 -12 -15 1
-34 12 -20 21 -22 64 -18 49 4 50 4 65 -31 8 -20 15 -48 15 -62 0 -36 23 -41
65 -15 45 28 127 24 149 -6 13 -17 34 -212 28 -259 -1 -10 -11 -29 -22 -40
-27 -28 -25 -36 10 -70 23 -22 30 -38 30 -65 0 -31 -8 -44 -53 -87 -29 -27
-63 -70 -75 -93 -12 -24 -20 -44 -19 -45 28 -12 87 -62 87 -75 0 -10 7 -23 15
-30 8 -7 15 -20 15 -30 0 -9 20 -36 45 -59 25 -23 45 -48 45 -55 0 -7 8 -21
19 -30 14 -13 17 -26 13 -61 -3 -32 0 -52 13 -71 21 -33 25 -134 6 -158 -10
-12 -23 -15 -47 -10 -30 5 -34 4 -34 -15 0 -12 7 -24 15 -27 22 -9 18 -46 -8
-71 -13 -11 -41 -26 -62 -32 -64 -18 -73 -26 -51 -50 27 -29 15 -90 -24 -129
-41 -42 -43 -97 -2 -115 15 -7 54 -30 87 -52 82 -54 97 -64 116 -71 26 -10 52
-63 45 -95 -5 -25 -1 -31 18 -41 15 -6 36 -7 53 -2 82 23 142 -16 143 -93 0
-36 -6 -48 -44 -86 -24 -25 -47 -59 -51 -76 -4 -17 -11 -31 -16 -31 -5 0 -9
-9 -9 -19 0 -21 32 -37 50 -26 19 12 57 -4 63 -25 3 -12 14 -20 26 -20 26 0
71 -65 71 -101 0 -22 36 -88 78 -144 4 -5 8 -46 9 -89 2 -86 24 -146 54 -146
9 0 22 -7 29 -15 7 -8 20 -15 30 -15 9 0 47 -27 83 -60 57 -52 70 -60 105 -60
31 0 49 -8 82 -35 24 -20 50 -33 59 -31 74 22 82 19 110 -47 19 -44 22 -47 42
-37 15 9 24 9 32 1 15 -15 37 -14 37 3 0 7 -25 32 -55 55 -30 23 -55 46 -55
52 0 5 -11 7 -24 3 -19 -4 -32 1 -51 21 -20 19 -30 23 -40 15 -15 -12 -45 -3
-61 19 -8 11 -26 15 -58 13 -26 -1 -46 3 -46 9 0 13 -66 79 -80 79 -16 0 -47
33 -51 54 -5 24 -29 34 -29 12 0 -17 -17 -21 -39 -7 -8 5 -11 16 -6 31 6 20 4
21 -16 15 -21 -7 -22 -6 -11 8 7 9 9 18 4 21 -5 3 -12 31 -14 63 -3 31 -10 59
-16 61 -7 2 -12 17 -12 32 0 16 -4 31 -9 35 -5 3 -7 21 -4 40 5 29 1 38 -25
62 -34 32 -66 89 -57 103 3 6 -1 10 -9 10 -9 0 -21 9 -28 20 -7 11 -17 20 -23
20 -14 1 -55 36 -55 48 0 6 6 23 14 39 30 61 46 105 46 129 0 57 -64 133 -112
134 -19 0 -28 5 -28 16 0 13 -3 14 -15 4 -8 -6 -19 -9 -24 -6 -16 10 -71 96
-71 111 0 21 -19 29 -26 11 -3 -9 -13 -16 -21 -16 -11 0 -13 7 -8 31 7 31 7
32 -24 26 -24 -5 -33 -2 -41 13 -6 11 -20 20 -30 20 -22 0 -27 16 -8 22 6 2 8
10 4 17 -6 9 -11 8 -20 -5 -7 -9 -18 -14 -24 -10 -19 12 -14 44 8 51 23 7 27
35 5 35 -18 0 -20 27 -3 32 6 2 14 26 17 53 5 45 10 52 50 79 24 16 49 43 57
61 7 17 20 37 28 44 10 8 14 22 10 36 -4 17 0 24 15 28 15 3 21 13 21 31 0 14
5 26 10 26 6 0 10 13 10 29 0 17 -4 33 -10 36 -5 3 -10 28 -10 55 0 33 -5 50
-15 54 -17 6 -21 36 -5 36 13 0 13 37 0 45 -16 10 -130 163 -130 175 0 13 -41
72 -58 83 -8 5 -9 14 -3 25 6 11 6 24 0 34 -10 18 -2 48 12 48 5 0 9 -9 9 -20
0 -11 5 -20 11 -20 7 0 9 12 5 34 -6 29 -3 37 13 46 11 6 26 29 32 51 11 35
10 48 -6 95 -15 44 -16 59 -7 79 14 30 16 181 3 189 -5 3 -11 33 -13 65 -5 77
-34 108 -94 104 -66 -4 -103 7 -142 41 -20 19 -54 41 -75 50 -30 12 -37 20
-32 34 6 21 -35 73 -67 85 -10 3 -18 13 -18 21 0 9 -12 22 -27 30 -16 8 -43
32 -61 55 -23 28 -41 41 -58 41 -13 0 -27 7 -30 15 -4 8 -19 15 -34 15 -16 0
-31 4 -34 9 -3 4 -19 11 -36 14 -16 4 -46 17 -67 30 -45 28 -158 43 -171 23
-11 -20 -74 -47 -86 -38 -19 15 -119 31 -173 29 -45 -2 -52 -5 -47 -19 4 -15
-1 -18 -25 -18 -47 0 -80 -19 -83 -49 -3 -23 -7 -26 -45 -27 -31 0 -52 -8 -80
-30 -21 -16 -50 -35 -65 -42 -16 -6 -28 -16 -28 -22 0 -5 -4 -10 -10 -10 -5 0
-26 -11 -46 -25 -21 -14 -45 -23 -54 -20 -11 3 -20 -1 -24 -10 -9 -24 -21 -18
-49 26 -33 49 -34 65 -6 72 18 5 20 11 15 34 -20 78 -20 89 -3 75 21 -18 40
-6 31 20 -4 13 2 28 16 43 17 18 21 31 16 52 -8 33 -48 113 -57 113 -3 0 -18
11 -33 25 -15 14 -37 25 -50 25 -13 0 -35 9 -49 20 -29 23 -40 24 -68 8 -17
-11 -22 -10 -30 5 -6 9 -19 17 -29 17 -10 0 -22 4 -25 10 -3 5 -23 17 -43 26
-20 8 -52 22 -70 30 -42 18 -78 18 -85 -1z m833 -474 c0 -13 -27 -21 -45 -15
-25 10 -17 24 15 24 17 0 30 -4 30 -9z"/>
<path d="M6607 10593 c-4 -3 -7 -23 -7 -42 0 -26 -8 -46 -29 -69 -17 -17 -35
-32 -41 -32 -6 0 -18 -6 -25 -12 -8 -7 -30 -26 -49 -42 -36 -28 -36 -29 -36
-106 0 -68 -4 -84 -33 -139 -40 -76 -105 -117 -121 -76 -4 11 -21 15 -59 15
-29 0 -57 4 -62 9 -6 5 -30 17 -55 25 -44 16 -45 16 -65 -9 -15 -18 -30 -25
-55 -25 -29 0 -40 7 -64 41 -37 53 -86 77 -121 61 -14 -7 -46 -12 -70 -12 -51
0 -75 -8 -75 -24 -1 -16 -32 -51 -52 -59 -10 -3 -18 -15 -18 -26 0 -10 -7 -32
-15 -47 -8 -16 -15 -37 -15 -46 0 -11 -14 -24 -34 -32 -18 -8 -37 -19 -40 -25
-4 -6 -15 -11 -25 -11 -10 0 -24 -7 -31 -15 -18 -21 -66 -19 -99 6 -41 30 -66
22 -64 -21 1 -19 2 -70 3 -112 0 -75 -1 -80 -37 -128 -20 -27 -41 -50 -45 -50
-15 0 -8 -58 7 -64 9 -3 15 -18 15 -40 0 -27 -7 -39 -30 -56 -31 -22 -60 -76
-60 -112 0 -10 -9 -31 -20 -46 -12 -17 -18 -35 -14 -45 12 -32 108 -31 129 2
9 15 47 14 70 -3 11 -7 44 -15 73 -18 44 -4 59 -11 87 -39 28 -28 34 -42 35
-76 0 -52 -23 -83 -63 -83 -21 0 -44 -15 -88 -57 -58 -55 -59 -57 -59 -112 0
-79 -17 -101 -81 -101 -27 0 -49 5 -49 10 0 6 -10 15 -22 20 -13 6 -30 15 -39
22 -13 9 -22 7 -44 -10 -32 -26 -74 -22 -138 11 -36 19 -39 19 -57 2 -16 -14
-20 -31 -20 -76 0 -55 -26 -129 -51 -145 -5 -3 -9 -13 -9 -22 0 -10 -16 -34
-36 -55 -38 -39 -39 -44 -14 -47 28 -4 40 0 40 13 0 17 42 57 59 57 10 0 11 3
2 14 -9 10 -9 21 1 42 7 16 17 32 21 35 5 4 12 27 14 53 5 44 15 57 28 36 10
-17 24 -2 18 20 -4 15 0 20 14 20 10 0 24 -5 30 -11 9 -9 16 -8 28 4 17 18 45
12 45 -9 0 -18 12 -18 54 2 33 16 35 16 61 -5 32 -24 47 -26 76 -8 17 10 22 9
30 -6 13 -22 32 -12 24 14 -4 13 -2 19 9 19 19 0 50 56 42 76 -5 14 32 94 49
105 32 21 92 68 121 95 30 28 34 38 34 81 0 45 -4 53 -47 96 -42 42 -51 47
-92 47 -25 0 -55 7 -65 15 -12 9 -42 15 -77 15 -32 0 -60 4 -63 9 -7 11 33
131 50 152 8 8 14 21 14 27 0 6 8 15 17 21 13 7 14 12 6 23 -6 7 -7 21 -2 33
4 11 8 37 8 57 1 20 5 39 10 43 18 10 39 64 34 84 -3 13 4 29 23 47 19 17 25
28 17 31 -15 5 -18 33 -4 33 5 0 11 -5 13 -12 3 -7 12 -9 22 -5 15 6 16 10 6
22 -10 13 -8 15 13 15 14 0 32 7 41 15 8 8 24 15 35 15 11 0 26 7 35 15 8 8
21 15 28 15 8 0 24 11 36 25 12 14 26 25 32 25 5 0 10 11 10 24 0 16 7 27 20
31 13 4 20 15 20 31 0 29 62 89 95 90 12 1 33 4 48 8 21 5 29 2 38 -16 11 -21
12 -21 26 -2 12 16 15 17 23 4 5 -8 10 -18 10 -22 0 -14 79 -48 110 -48 17 0
39 5 49 12 14 8 32 8 76 0 31 -7 61 -9 67 -6 5 3 14 1 21 -4 7 -5 40 -12 75
-16 61 -7 64 -6 100 25 20 18 50 55 66 83 24 44 27 58 23 104 -5 51 -5 52 19
46 21 -5 24 -3 24 21 0 22 -4 26 -20 22 -11 -3 -22 -2 -25 3 -3 4 4 10 15 13
11 3 23 1 26 -4 7 -12 34 -11 34 1 0 6 -7 10 -15 10 -25 0 -17 17 20 39 19 11
35 25 35 30 0 5 13 14 29 19 24 8 28 14 24 36 -4 21 -2 26 16 26 25 0 39 43
21 65 -13 16 -42 20 -53 8z"/>
<path d="M9206 10393 c-11 -11 -6 -23 9 -23 8 0 15 4 15 9 0 13 -16 22 -24 14z"/>
<path d="M9309 10247 c-9 -12 -28 -29 -43 -36 -24 -13 -34 -12 -109 12 -88 29
-127 29 -180 -2 -23 -13 -47 -60 -47 -93 0 -21 45 -4 74 28 32 35 36 36 97 36
35 0 77 -5 92 -11 37 -14 104 -3 127 21 21 23 44 15 37 -12 -4 -15 1 -17 33
-13 26 4 46 0 61 -11 13 -9 35 -16 49 -16 14 0 31 -9 38 -20 7 -11 19 -20 27
-20 8 0 22 -11 31 -25 9 -14 22 -25 28 -25 7 0 27 -14 44 -31 25 -24 32 -40
32 -70 0 -27 5 -39 18 -43 9 -3 26 -19 37 -36 12 -18 29 -30 43 -30 24 0 82
-46 82 -66 0 -7 17 -23 38 -35 20 -13 39 -26 42 -30 3 -5 25 -3 50 2 38 9 46
7 64 -11 17 -17 19 -24 10 -49 -8 -19 -8 -34 -1 -46 7 -13 6 -24 -2 -36 -14
-23 -14 -49 -1 -49 6 0 19 14 29 30 15 25 18 48 15 128 -3 119 -1 109 -19 116
-8 3 -28 -6 -44 -20 -22 -18 -43 -25 -80 -27 -27 -1 -52 1 -56 5 -4 4 -10 31
-14 60 l-6 53 -45 3 c-25 2 -52 9 -60 16 -8 7 -23 16 -32 19 -9 3 -21 23 -27
44 -9 30 -8 39 4 46 8 4 15 12 15 17 0 10 -80 50 -99 50 -6 0 -11 4 -11 9 0 5
-9 13 -20 16 -16 5 -20 15 -20 46 0 34 -3 39 -24 39 -30 0 -166 34 -192 48
-11 6 -26 18 -34 26 -17 22 -32 20 -51 -7z"/>
<path d="M5520 10224 c0 -9 5 -14 12 -12 18 6 21 28 4 28 -9 0 -16 -7 -16 -16z"/>
<path d="M8906 10097 c-3 -13 -16 -28 -29 -34 -19 -9 -28 -6 -51 14 -32 27
-48 25 -111 -15 -40 -25 -135 -119 -135 -134 0 -4 -14 -21 -31 -38 -29 -27
-30 -30 -11 -30 31 0 72 18 72 31 0 13 67 79 80 79 5 0 11 14 15 30 7 30 26
41 70 38 113 -7 169 11 163 55 -4 29 -25 32 -32 4z"/>
<path d="M2510 9615 c-9 -11 -11 -32 -6 -69 5 -44 3 -56 -13 -70 -40 -36 -67
4 -56 84 6 43 4 49 -14 55 -34 11 -41 -3 -41 -81 0 -80 14 -107 63 -119 26 -7
96 28 98 48 9 102 8 146 -5 156 -10 9 -16 8 -26 -4z"/>
<path d="M835 9607 c-3 -7 -5 -52 -3 -98 l3 -84 61 -3 c45 -2 64 1 73 12 20
23 3 39 -35 33 -39 -7 -38 -8 -39 83 0 63 -1 65 -28 68 -16 2 -29 -2 -32 -11z"/>
<path d="M1217 9613 c-3 -7 -2 -161 2 -185 2 -13 61 -9 62 5 5 55 -5 173 -14
179 -16 10 -45 10 -50 1z"/>
<path d="M1522 9591 c2 -20 8 -25 25 -23 28 4 37 -24 28 -88 -7 -54 1 -66 42
-55 25 6 25 8 19 66 -7 56 -6 60 18 68 29 12 38 24 31 43 -4 11 -26 14 -86 15
l-80 0 3 -26z"/>
<path d="M1937 9603 c-2 -10 -4 -54 -3 -98 1 -68 4 -80 19 -83 27 -5 49 18 42
45 -4 18 0 26 20 35 32 15 47 -2 38 -44 -4 -21 -1 -29 12 -34 24 -10 51 9 46
32 -2 11 -4 51 -5 89 -1 64 -3 70 -23 73 -23 3 -38 -25 -29 -55 10 -31 -7 -45
-38 -33 -24 9 -27 14 -22 36 4 15 2 32 -5 40 -16 20 -47 18 -52 -3z"/>
<path d="M3213 9613 c-9 -3 -13 -33 -13 -99 l0 -94 26 0 c28 0 28 2 8 83 -5
20 -3 27 9 27 13 0 36 -24 88 -87 5 -7 19 -13 30 -13 18 0 20 6 18 53 -2 28 1
66 5 83 8 35 -11 59 -39 48 -12 -5 -15 -13 -10 -28 26 -82 14 -86 -45 -16 -40
48 -51 54 -77 43z"/>
<path d="M3659 9618 c-1 -2 -3 -45 -4 -96 -3 -89 -2 -92 20 -98 13 -3 28 -3
33 0 5 3 10 49 10 101 l1 95 -30 0 c-16 0 -30 -1 -30 -2z"/>
<path d="M4030 9594 c-6 -14 -10 -31 -10 -37 0 -7 -11 -30 -25 -52 -32 -53
-33 -88 -3 -83 13 2 24 11 26 23 2 11 11 28 21 39 15 17 16 17 27 -20 8 -31
16 -40 36 -42 33 -4 43 21 23 56 -8 15 -24 53 -36 85 -22 62 -43 73 -59 31z"/>
<path d="M2852 9598 c-7 -7 -12 -21 -12 -31 0 -19 -24 -69 -49 -99 -18 -23 -7
-50 21 -46 15 2 24 13 30 36 5 17 12 32 16 32 16 0 29 -16 36 -42 7 -30 23
-35 49 -15 16 11 15 16 -8 62 -13 28 -25 58 -25 67 -1 44 -31 63 -58 36z"/>
<path d="M10075 9470 c-4 -6 -1 -18 6 -26 10 -13 9 -21 -6 -47 -10 -18 -23
-35 -28 -38 -12 -8 -37 -77 -37 -100 0 -9 -7 -19 -15 -23 -22 -8 -19 -115 4
-123 27 -10 61 -45 61 -64 0 -9 7 -20 16 -23 12 -5 14 -14 8 -38 -6 -30 -5
-31 10 -19 15 12 20 10 46 -19 16 -18 33 -48 36 -67 3 -18 10 -36 15 -39 5 -3
9 -32 9 -64 0 -48 -4 -61 -21 -74 -34 -24 -53 -56 -40 -69 6 -6 11 -20 11 -30
0 -14 -5 -18 -19 -14 -10 2 -25 1 -32 -3 -10 -7 -10 -11 0 -24 9 -11 10 -16 2
-16 -13 0 -15 -26 -3 -34 14 -8 75 4 96 19 18 13 18 15 -4 60 -19 39 -21 51
-11 72 11 23 15 24 62 18 50 -7 51 -7 44 16 -4 13 -16 37 -27 52 -14 21 -19
39 -15 65 5 42 -19 90 -65 133 -15 14 -28 30 -28 36 0 6 -7 16 -15 23 -8 7
-15 21 -15 32 0 20 -60 88 -78 88 -33 0 -48 75 -21 105 5 5 9 15 9 22 0 21 62
99 93 118 33 20 34 41 2 78 -26 29 -40 34 -50 17z"/>
<path d="M12443 9358 c-5 -7 -9 -51 -8 -98 l0 -85 33 0 33 0 2 89 c2 84 1 89
-21 97 -29 11 -28 11 -39 -3z"/>
<path d="M10847 9351 c-2 -3 -2 -44 -2 -91 l2 -85 29 0 c22 0 30 5 32 23 4 29
16 28 36 -3 18 -28 56 -34 56 -10 0 9 -10 29 -22 45 -18 25 -20 33 -9 56 14
31 7 61 -17 68 -24 6 -102 5 -105 -3z"/>
<path d="M11247 9353 c-3 -4 -2 -41 0 -81 5 -64 9 -75 31 -90 33 -21 85 -19
110 6 20 20 47 145 36 164 -8 13 -40 9 -53 -6 -9 -11 -10 -20 -1 -35 8 -16 7
-31 -3 -63 -16 -46 -24 -53 -47 -38 -10 6 -15 28 -15 77 0 66 -1 68 -27 71
-14 2 -28 0 -31 -5z"/>
<path d="M11698 9349 c-12 -6 -18 -22 -18 -44 0 -27 6 -37 30 -51 16 -10 32
-24 34 -31 8 -21 -12 -25 -39 -7 -35 23 -57 4 -30 -26 25 -28 76 -26 103 3 30
32 28 50 -13 86 -19 17 -35 33 -35 36 0 3 13 5 28 5 35 0 45 9 31 27 -13 15
-66 17 -91 2z"/>
<path d="M12067 9342 c-25 -27 -21 -43 19 -86 26 -27 33 -41 25 -49 -7 -7 -16
-5 -31 8 -24 22 -42 10 -34 -23 5 -18 13 -22 45 -22 22 0 47 7 59 17 34 30 21
89 -23 106 -21 8 -17 34 4 29 30 -8 34 -6 34 13 0 29 -74 34 -98 7z"/>
<path d="M12818 9349 c-10 -5 -18 -19 -18 -30 0 -10 -13 -43 -30 -72 -16 -30
-30 -59 -30 -65 0 -7 14 -12 30 -12 27 0 30 3 30 31 0 26 3 30 22 27 14 -2 24
-12 28 -28 4 -16 14 -26 29 -28 36 -6 46 12 27 49 -9 18 -16 40 -16 50 0 10
-4 20 -9 23 -4 3 -11 19 -14 36 -7 31 -20 36 -49 19z"/>
<path d="M62 8976 c-44 -6 -62 -13 -62 -24 0 -12 13 -14 78 -10 73 5 132 -4
232 -33 31 -9 42 -7 79 11 35 19 52 22 97 16 42 -5 55 -3 52 6 -3 7 -20 16
-39 21 -19 4 -44 11 -56 14 -13 3 -28 -2 -42 -16 -24 -24 -96 -30 -103 -9 -3
8 -33 14 -84 16 -43 3 -81 7 -84 11 -3 3 -33 2 -68 -3z"/>
<path d="M10107 8924 c-8 -8 1 -24 14 -24 5 0 9 7 9 15 0 15 -12 20 -23 9z"/>
<path d="M540 8881 c0 -16 7 -45 16 -66 8 -20 14 -56 12 -79 -3 -38 -1 -41 22
-42 55 -1 129 -56 130 -96 0 -10 20 -29 45 -44 43 -25 45 -28 45 -74 0 -27 5
-71 12 -99 10 -45 9 -55 -8 -86 -10 -20 -33 -45 -50 -56 -18 -11 -39 -31 -48
-44 -9 -14 -23 -25 -31 -25 -8 0 -25 -22 -38 -49 -20 -38 -24 -58 -20 -95 5
-37 2 -51 -13 -67 -15 -16 -18 -34 -17 -76 2 -32 -3 -63 -11 -76 -8 -12 -17
-57 -20 -100 -6 -69 -5 -81 14 -104 11 -14 20 -38 20 -53 0 -15 7 -33 16 -41
13 -11 19 -9 37 13 23 27 73 42 83 26 3 -5 16 -13 27 -19 12 -5 30 -14 39 -21
14 -10 24 -10 49 -1 42 16 62 1 54 -38 -6 -24 -2 -30 34 -51 42 -24 53 -52 29
-76 -18 -18 -2 -26 42 -24 30 2 40 -1 40 -13 0 -9 9 -15 23 -15 26 0 56 -24
79 -61 12 -19 28 -28 56 -31 43 -6 86 -38 108 -80 21 -41 34 -34 34 16 0 46
-11 56 -65 56 -14 0 -24 10 -32 29 -8 22 -16 28 -30 25 -13 -4 -32 8 -61 35
-23 23 -47 41 -53 41 -6 0 -32 20 -57 45 -25 25 -49 45 -54 45 -5 0 -6 9 -3
21 6 18 4 20 -14 14 -17 -5 -21 -2 -21 18 0 16 -13 34 -40 56 -34 27 -45 31
-75 25 -30 -5 -34 -4 -29 10 5 12 0 16 -19 16 -14 0 -29 5 -32 10 -3 6 -23 10
-44 10 -31 0 -40 4 -44 22 -6 21 -7 21 -26 4 -18 -17 -20 -16 -35 6 -9 12 -16
35 -16 50 0 28 24 131 35 148 3 5 2 18 -3 27 -5 10 -6 29 -2 43 l7 25 8 -27
c4 -16 11 -28 16 -28 12 0 11 57 -1 65 -15 9 -12 51 5 65 17 14 20 40 5 40
-16 0 -12 47 5 54 8 3 15 15 15 26 0 12 9 24 24 30 13 4 26 20 30 34 4 16 13
26 24 26 17 0 72 60 72 80 0 6 6 21 14 33 11 17 12 34 4 77 -5 30 -11 72 -15
92 -3 21 -11 42 -19 49 -8 6 -14 17 -14 23 0 6 -9 19 -20 29 -11 10 -20 29
-20 46 0 22 -6 30 -24 35 -13 3 -38 19 -56 36 -18 16 -38 30 -45 30 -8 0 -17
10 -20 23 -8 26 -32 85 -45 109 -6 10 -10 25 -10 33 0 8 -7 15 -15 15 -10 0
-15 -10 -15 -29z"/>
<path d="M73 8862 c-56 -2 -73 -6 -73 -17 0 -15 59 -21 160 -16 26 1 58 -4 75
-13 34 -18 71 -21 80 -6 16 26 -125 57 -242 52z"/>
<path d="M406 8845 c-3 -8 -16 -15 -30 -15 -29 0 -43 -17 -28 -32 8 -8 16 -7
26 2 24 19 48 5 40 -25 -5 -22 -3 -25 20 -25 30 0 33 -15 14 -67 -12 -33 -11
-35 22 -61 19 -15 45 -37 57 -49 12 -12 30 -19 40 -17 12 3 23 -5 35 -26 9
-16 23 -30 30 -30 19 0 34 -28 48 -92 l13 -55 -42 -41 c-22 -22 -41 -45 -41
-51 0 -6 -12 -16 -26 -21 -19 -8 -24 -15 -19 -29 4 -14 0 -23 -15 -31 -14 -7
-20 -21 -20 -44 0 -19 -7 -39 -15 -46 -11 -9 -13 -16 -5 -24 12 -12 13 -48 1
-61 -10 -12 -38 -102 -40 -130 0 -11 -4 -68 -7 -127 -4 -69 -3 -108 4 -108 14
0 22 36 22 103 0 32 6 68 13 80 6 12 12 47 12 78 0 40 5 63 18 76 12 14 17 36
17 80 0 42 5 64 15 73 8 7 15 27 15 45 0 27 5 34 27 40 15 3 42 24 60 45 19
21 42 42 53 45 33 10 43 40 25 74 -8 17 -15 49 -15 73 0 41 -2 44 -42 63 -33
15 -44 26 -46 47 -4 36 -26 52 -73 54 -73 4 -82 17 -85 126 -1 53 -5 101 -9
107 -10 16 -62 13 -69 -4z"/>
<path d="M170 8800 c0 -5 7 -10 15 -10 8 0 15 5 15 10 0 6 -7 10 -15 10 -8 0
-15 -4 -15 -10z"/>
<path d="M10046 8512 c-4 -15 -9 -59 -12 -98 -3 -42 -15 -98 -29 -135 -32 -81
-31 -107 3 -149 16 -19 31 -42 34 -51 4 -9 22 -19 42 -23 19 -4 49 -20 65 -36
16 -17 40 -30 53 -30 18 0 29 -9 41 -35 9 -19 14 -41 11 -50 -4 -8 1 -17 9
-21 8 -3 20 -18 26 -32 8 -18 29 -36 60 -51 41 -19 50 -28 54 -54 3 -18 -1
-39 -7 -47 -14 -17 -36 -88 -36 -117 0 -29 57 -103 79 -103 10 0 21 -7 25 -15
3 -8 16 -15 29 -15 33 0 66 -39 106 -127 6 -13 15 -23 21 -23 5 0 10 -10 10
-23 0 -13 5 -28 10 -33 7 -7 7 -21 -1 -42 -9 -25 -8 -38 5 -63 9 -18 16 -39
16 -49 0 -9 6 -22 12 -28 7 -7 17 -30 23 -50 8 -27 17 -38 33 -40 12 -2 27
-12 32 -23 6 -11 21 -19 36 -19 30 0 83 -38 138 -97 33 -37 45 -43 78 -43 28
0 47 -7 66 -25 15 -14 34 -25 44 -25 9 0 20 -4 23 -10 3 -5 17 -10 30 -10 33
0 120 -77 121 -107 1 -13 8 -31 18 -41 20 -23 20 -36 -1 -68 -13 -21 -14 -30
-5 -45 17 -27 15 -53 -7 -73 -10 -9 -22 -32 -25 -49 -16 -74 -18 -97 -10 -97
15 1 54 70 54 94 0 13 7 29 15 36 10 8 15 31 15 70 0 37 5 62 14 69 15 13 19
102 5 138 -6 17 -17 23 -38 23 -24 0 -34 8 -60 50 -25 41 -35 50 -54 46 -12
-3 -34 -7 -49 -11 -22 -4 -28 -2 -28 11 0 27 -42 53 -85 54 -45 0 -63 10 -125
70 -43 41 -64 55 -140 90 -49 23 -79 55 -80 83 0 10 -9 36 -21 58 -18 37 -19
46 -9 91 12 48 11 50 -18 87 -16 20 -38 63 -48 94 -12 39 -24 59 -38 63 -12 4
-31 18 -44 31 -12 13 -27 21 -33 18 -12 -8 -66 12 -91 33 -22 19 -24 78 -3 86
8 3 15 14 15 25 0 19 71 134 90 146 5 3 10 15 10 27 0 20 -4 20 -80 14 -80 -7
-80 -7 -110 23 -22 22 -30 39 -30 65 0 22 -7 42 -17 52 -32 27 -143 104 -152
104 -5 0 -14 7 -21 15 -7 8 -20 15 -29 15 -19 0 -54 35 -64 62 -3 9 -2 29 3
45 5 15 12 40 15 54 2 15 16 37 30 50 29 28 32 55 9 88 -12 16 -15 37 -12 72
6 54 -6 75 -16 31z"/>
<path d="M4535 8418 c-46 -15 -74 -18 -122 -13 -58 6 -63 5 -63 -13 0 -11 -7
-25 -15 -32 -8 -7 -15 -17 -15 -23 0 -5 -16 -24 -35 -41 -34 -30 -35 -32 -29
-88 4 -32 11 -58 15 -58 5 0 9 5 9 10 0 6 11 20 25 32 14 12 25 29 25 37 -1
14 -3 13 -14 -1 -18 -24 -26 -22 -26 6 0 13 7 26 15 30 8 3 15 12 15 21 0 9 9
15 21 15 12 0 34 14 49 30 29 32 58 38 78 18 9 -9 12 -9 12 0 0 7 -4 12 -10
12 -5 0 -10 6 -10 13 0 13 104 17 117 4 12 -12 33 -7 33 8 0 8 11 17 25 21 14
3 25 12 25 20 0 20 -52 16 -125 -8z"/>
<path d="M565 8291 c-7 -12 12 -24 25 -16 11 7 4 25 -10 25 -5 0 -11 -4 -15
-9z"/>
<path d="M169 8223 c-8 -71 -3 -168 9 -180 19 -18 36 -12 40 15 4 29 15 28 47
-4 46 -46 71 -15 29 36 -23 27 -26 35 -16 51 17 27 15 60 -5 75 -19 14 -102
19 -104 7z"/>
<path d="M4205 8111 c-23 -5 -31 -12 -33 -32 -2 -14 4 -31 12 -39 21 -17 20
-69 -1 -92 -22 -25 -22 -132 1 -157 27 -30 25 -117 -3 -150 -11 -13 -21 -26
-23 -31 -2 -4 -26 -19 -54 -33 -47 -24 -52 -29 -57 -68 -3 -24 -3 -64 0 -89 5
-46 4 -49 -45 -100 -62 -65 -84 -107 -71 -132 5 -10 14 -18 20 -18 20 0 87 40
93 55 4 12 10 13 24 6 12 -6 23 -6 33 0 11 8 8 15 -18 38 -33 27 -45 71 -20
71 9 0 13 18 14 56 1 35 7 60 15 65 7 5 13 21 13 36 0 24 4 28 33 31 28 3 31
5 22 23 -14 25 13 38 37 18 15 -13 16 -11 10 19 -5 25 -2 40 14 61 16 22 18
32 10 53 -5 15 -7 42 -4 61 3 19 1 50 -5 68 -15 48 6 210 32 238 19 21 16 52
-6 50 -7 -1 -26 -4 -43 -8z"/>
<path d="M352 8087 c-16 -19 -3 -57 19 -57 24 0 36 27 22 48 -13 22 -28 25
-41 9z"/>
<path d="M4077 8012 c-12 -13 -16 -35 -16 -73 1 -30 -1 -73 -3 -97 -3 -23 -2
-45 3 -48 5 -3 6 -26 2 -52 -6 -47 -35 -92 -59 -92 -13 0 -33 -31 -55 -83 -8
-21 -16 -26 -30 -22 -13 5 -19 1 -19 -10 0 -12 6 -15 20 -10 29 9 26 -19 -5
-53 -30 -32 -32 -52 -5 -52 17 0 18 -3 8 -25 -6 -14 -22 -32 -34 -40 -16 -10
-26 -29 -30 -54 -5 -32 -11 -41 -33 -46 -14 -4 -53 -33 -87 -65 -34 -33 -72
-62 -85 -65 -14 -3 -51 -2 -84 3 -33 5 -65 7 -72 5 -18 -7 -16 -23 2 -23 9 0
28 -8 42 -17 19 -13 46 -18 90 -17 68 1 93 16 113 70 10 25 14 26 60 22 l50
-5 0 32 c0 17 7 40 15 51 8 10 15 27 15 36 0 9 20 36 45 60 l45 43 0 85 c0
114 14 136 118 184 30 14 32 18 32 65 0 34 -6 55 -17 67 -14 14 -17 31 -14 78
2 34 9 73 17 88 30 58 9 102 -29 60z"/>
<path d="M450 7605 c-10 -12 -9 -22 4 -54 18 -47 13 -52 -51 -51 -27 0 -128 1
-226 1 -154 0 -177 -2 -177 -15 0 -14 20 -16 148 -16 81 0 194 -7 252 -15 144
-20 160 -19 160 4 0 26 -47 115 -75 141 -19 18 -23 19 -35 5z"/>
<path d="M671 7440 c-15 -26 -31 -42 -49 -46 -15 -3 -40 -10 -57 -15 -18 -6
-137 -7 -297 -3 l-268 7 0 -22 c0 -21 2 -21 228 -23 362 -2 355 -3 360 10 2 7
19 12 38 12 19 0 47 9 62 20 36 27 94 18 113 -17 7 -13 21 -29 31 -34 10 -5
18 -17 18 -25 0 -9 11 -30 25 -46 14 -16 22 -34 19 -40 -4 -5 4 -9 17 -8 45 4
50 1 43 -25 -7 -27 7 -33 25 -11 18 21 61 8 58 -18 -2 -17 3 -21 25 -19 19 1
29 -4 33 -18 7 -22 45 -26 45 -4 0 8 -11 25 -25 37 -14 12 -25 30 -25 40 0 12
-7 18 -23 18 -13 0 -32 7 -43 15 -10 8 -34 15 -52 15 -43 0 -82 41 -82 86 0
23 -5 34 -18 39 -11 3 -24 16 -29 28 -7 15 -30 31 -59 42 -27 10 -53 24 -57
32 -14 23 -33 14 -56 -27z"/>
<path d="M4135 7220 c-13 -21 8 -81 36 -104 16 -14 29 -31 29 -39 0 -8 7 -20
15 -27 9 -8 15 -30 15 -56 0 -32 -4 -44 -15 -44 -10 0 -15 -10 -15 -29 0 -16
6 -31 15 -35 26 -10 16 -38 -27 -77 -36 -32 -45 -36 -66 -28 -19 7 -34 5 -62
-10 -32 -16 -51 -19 -116 -14 -95 7 -110 14 -119 54 -4 18 -15 33 -25 36 -27
7 -32 30 -11 45 24 17 41 51 41 80 0 13 5 29 12 36 9 9 8 16 -5 30 -9 10 -17
26 -17 34 0 37 -30 26 -65 -23 l-36 -50 -82 4 c-45 2 -92 7 -104 12 -21 7 -23
4 -23 -28 0 -60 -84 -163 -156 -193 -18 -8 -35 -18 -39 -24 -14 -22 -74 -11
-106 21 -28 27 -37 30 -76 26 -37 -3 -51 -11 -79 -42 -19 -21 -34 -41 -34 -43
0 -3 12 -29 26 -58 21 -44 24 -60 18 -101 -8 -54 -45 -97 -94 -108 -16 -3 -34
-13 -41 -21 -7 -9 -16 -11 -23 -6 -6 5 -23 12 -37 16 -15 3 -29 15 -32 26 -4
17 -11 19 -58 13 -46 -5 -66 -15 -133 -67 -175 -135 -190 -142 -225 -105 -15
17 -27 20 -51 16 -47 -10 -80 7 -80 41 0 41 -46 101 -79 102 -7 0 -22 -11 -33
-25 -18 -23 -26 -25 -107 -25 -61 0 -93 4 -107 15 -27 20 -57 18 -77 -5 -15
-18 -25 -20 -67 -14 -38 5 -53 3 -65 -10 -18 -17 -75 -22 -75 -6 0 18 -27 10
-55 -16 -26 -24 -29 -24 -59 -10 -17 8 -40 28 -51 45 -16 25 -52 51 -70 51 -3
0 -5 -11 -5 -25 0 -14 5 -25 10 -25 6 0 10 -7 10 -15 0 -9 7 -30 16 -46 13
-25 14 -42 5 -97 -9 -55 -8 -69 4 -82 8 -9 15 -21 15 -27 0 -6 6 -16 14 -23
11 -8 16 -42 19 -123 4 -110 28 -284 47 -341 6 -16 10 -46 10 -66 0 -21 7 -43
15 -50 8 -7 15 -17 15 -22 0 -6 7 -26 16 -46 9 -21 22 -52 30 -70 8 -18 14
-43 14 -56 0 -13 7 -29 15 -36 10 -8 15 -31 15 -69 1 -61 23 -136 58 -191 12
-19 21 -45 20 -57 -2 -12 6 -32 18 -45 11 -13 28 -41 38 -64 l18 -41 -31 -58
c-39 -72 -39 -98 0 -170 29 -55 30 -61 19 -99 -9 -29 -9 -41 -1 -44 16 -5 13
-48 -5 -63 -11 -9 -14 -23 -10 -48 4 -20 6 -43 5 -51 0 -8 -2 -89 -4 -180 -4
-165 -17 -240 -41 -240 -7 0 -17 -6 -21 -14 -4 -7 -19 -19 -33 -26 -41 -21
-134 -84 -147 -100 -8 -11 -32 -15 -87 -15 -47 0 -80 -5 -87 -12 -7 -7 -19
-13 -26 -13 -11 0 -100 -42 -153 -72 -8 -4 -24 -12 -35 -17 -34 -15 -185 -183
-185 -206 0 -7 -7 -18 -15 -25 -16 -14 -21 -50 -6 -50 25 0 43 16 61 54 10 22
32 56 49 75 17 19 31 38 31 42 0 5 11 19 23 33 19 20 26 23 37 13 10 -10 12
-9 7 6 -5 12 -1 17 14 17 11 0 27 7 35 15 9 8 26 15 40 15 14 0 27 7 30 15 4
9 19 15 35 15 18 0 29 5 29 14 0 17 27 26 105 36 86 11 165 41 165 63 0 24 30
34 42 14 5 -10 13 -17 18 -17 15 0 12 28 -2 33 -22 7 0 20 45 26 31 5 43 11
46 26 2 11 14 30 27 42 21 19 23 28 18 63 -5 28 -2 47 10 64 18 29 21 72 5 82
-7 4 -8 20 -5 43 21 116 24 187 10 216 -13 27 -13 31 2 42 12 9 15 21 11 47
-3 20 -2 38 2 40 17 11 -2 122 -29 174 -15 28 -24 54 -20 57 13 8 40 109 40
148 0 20 -8 50 -17 69 -9 18 -23 46 -30 61 -9 16 -12 39 -8 57 5 23 2 31 -14
40 -27 14 -46 61 -55 133 -3 32 -13 72 -22 88 -8 16 -12 34 -9 39 5 8 -32 110
-69 195 -29 65 -66 232 -66 299 0 17 -6 43 -14 58 -10 18 -15 60 -15 124 0 65
-4 103 -14 117 -17 26 -28 133 -16 163 9 26 102 54 180 54 35 0 63 6 78 17 19
13 28 14 42 5 24 -16 51 -15 73 1 13 9 36 11 84 6 36 -4 102 -5 147 -3 l82 4
24 -35 c13 -19 30 -35 37 -35 7 0 24 -12 38 -27 23 -25 28 -26 56 -15 26 9 34
8 58 -10 27 -19 30 -20 45 -4 9 9 26 16 37 16 11 0 47 21 80 46 33 25 71 50
84 56 13 6 21 15 18 20 -10 15 27 21 53 7 22 -12 26 -11 34 4 13 23 45 22 76
-3 14 -11 30 -17 36 -13 6 4 23 6 38 5 15 -1 29 4 32 12 3 7 23 16 45 20 30 4
43 12 48 28 3 12 13 29 21 37 10 10 13 25 8 48 -4 22 -1 40 9 54 12 18 12 24
0 47 -16 32 -18 71 -4 92 9 13 12 13 25 -4 13 -17 16 -17 45 -2 29 14 34 14
56 0 63 -42 216 28 284 129 27 40 42 52 64 54 16 1 38 11 50 23 32 29 91 28
101 -2 l7 -23 7 25 c9 31 37 38 46 11 4 -13 -2 -31 -16 -50 -19 -26 -21 -34
-11 -56 6 -14 17 -25 24 -25 7 0 18 -8 23 -18 44 -80 47 -82 108 -82 32 0 68
-5 79 -11 14 -8 23 -8 31 0 6 6 21 11 34 11 12 0 26 7 31 16 6 11 11 13 16 5
9 -13 40 -14 64 -2 9 5 24 12 33 14 24 8 60 93 60 140 -1 23 2 60 5 83 4 31 1
51 -15 80 -32 60 -45 78 -58 87 -7 4 -13 21 -13 36 0 29 -24 49 -35 31z"/>
<path d="M3860 7138 c0 -21 37 -76 59 -88 12 -6 28 -25 37 -43 l17 -32 15 33
c18 37 28 39 60 13 25 -22 31 -71 7 -71 -20 0 -19 -26 2 -34 32 -13 -3 -28
-46 -21 -32 5 -41 11 -41 27 0 10 -5 28 -10 39 -15 27 -34 14 -63 -42 -30 -55
-19 -79 35 -79 19 0 39 -5 45 -11 9 -9 19 -6 41 10 19 13 45 21 70 21 43 0 62
14 43 33 -16 16 -14 52 4 67 8 7 15 25 15 39 0 27 -32 71 -51 71 -5 0 -17 16
-25 36 -12 30 -17 34 -30 23 -22 -18 -118 -15 -148 5 -30 19 -36 20 -36 4z"/>
<path d="M1155 7120 c-3 -6 10 -25 29 -44 20 -18 36 -39 36 -46 0 -7 7 -20 15
-29 46 -47 75 -87 75 -102 0 -10 6 -24 14 -32 22 -22 37 -90 30 -141 -6 -42
-5 -46 13 -46 26 0 48 50 38 87 -4 16 -11 57 -15 92 -8 59 -12 67 -59 112 -29
27 -55 49 -60 49 -5 0 -7 9 -4 20 11 42 -91 115 -112 80z"/>
<path d="M3433 7095 c-3 -9 -3 -18 0 -22 10 -10 37 6 37 22 0 20 -29 20 -37 0z"/>
<path d="M1357 7093 c-21 -21 19 -88 47 -77 17 7 27 -8 37 -55 4 -20 17 -70
28 -111 25 -93 27 -153 4 -171 -9 -8 -24 -27 -34 -43 -14 -23 -15 -33 -6 -55
14 -32 26 -41 53 -41 12 0 35 -15 51 -33 40 -46 48 -49 77 -36 31 14 33 25 7
39 -11 5 -27 18 -37 27 -10 10 -27 18 -38 18 -17 0 -21 6 -21 30 0 24 -4 30
-21 29 -19 0 -20 2 -10 30 6 17 18 36 25 42 13 10 13 21 2 75 -26 131 -29 154
-19 167 6 7 8 15 4 19 -3 3 -6 1 -6 -5 0 -7 -9 -12 -20 -12 -17 0 -20 7 -20
48 0 40 -5 52 -36 85 -34 36 -53 44 -67 30z"/>
<path d="M3380 7056 c0 -8 5 -18 10 -21 6 -3 10 -19 10 -34 0 -38 -87 -97
-128 -86 -45 12 -121 17 -147 11 -42 -11 -28 -26 24 -26 42 0 54 -5 79 -30 17
-16 34 -30 38 -30 4 0 28 9 53 21 31 14 58 37 84 72 41 57 45 76 21 112 -18
27 -44 33 -44 11z"/>
<path d="M3050 6915 c-7 -8 -27 -15 -45 -15 -27 0 -33 -4 -38 -28 -3 -15 -19
-41 -36 -57 -35 -34 -40 -75 -16 -121 16 -31 18 -67 6 -98 -6 -17 -9 -15 -20
12 -14 33 -25 40 -36 22 -3 -5 -15 -10 -27 -10 -80 0 -208 -52 -245 -100 -9
-12 -14 -13 -24 -2 -20 18 -29 15 -29 -12 0 -30 -16 -42 -35 -26 -14 12 -20 6
-15 -15 1 -5 -2 -7 -6 -2 -4 4 -16 -1 -26 -10 -17 -15 -20 -15 -28 -3 -6 8
-10 23 -10 32 0 23 -19 33 -26 14 -9 -23 -23 -20 -30 7 -13 51 -142 108 -178
78 -7 -6 -35 -14 -62 -17 -27 -4 -55 -11 -62 -17 -8 -7 -18 -5 -30 6 -22 20
-173 28 -180 9 -2 -8 -16 -10 -43 -6 -21 4 -45 2 -51 -3 -7 -6 -28 -11 -45
-11 -18 0 -37 -3 -43 -7 -17 -10 -11 -34 11 -45 16 -9 24 -8 38 4 13 12 35 15
85 14 55 -3 70 0 80 15 17 23 57 22 103 -3 22 -12 57 -20 83 -20 37 0 51 6 83
35 36 33 87 48 87 25 0 -5 15 -16 33 -23 40 -17 58 -38 66 -80 6 -28 11 -32
41 -35 18 -2 45 -12 58 -23 13 -10 29 -16 36 -12 17 10 88 65 116 90 14 13 28
23 32 23 3 0 23 16 42 35 31 30 43 35 85 35 31 0 53 5 61 15 20 24 36 18 59
-20 21 -37 28 -39 80 -29 30 6 31 8 31 65 0 48 -5 66 -30 102 -16 25 -30 47
-30 50 0 16 109 115 131 121 27 6 44 30 33 47 -8 13 -20 11 -34 -6z"/>
<path d="M11292 6899 c2 -6 8 -10 13 -10 5 0 11 4 13 10 2 6 -4 11 -13 11 -9
0 -15 -5 -13 -11z"/>
<path d="M11437 6734 c-4 -4 -7 -20 -7 -36 0 -30 20 -38 39 -14 9 10 7 19 -6
35 -10 12 -22 19 -26 15z"/>
<path d="M1320 6630 c-7 -14 -7 -26 -1 -39 6 -10 13 -56 17 -102 3 -46 13 -99
21 -118 11 -24 13 -48 8 -87 -5 -42 -2 -71 15 -125 12 -38 20 -76 17 -83 -3
-7 1 -39 9 -72 7 -32 14 -76 14 -96 0 -20 5 -40 10 -43 6 -3 10 -32 10 -63 1
-33 7 -65 15 -76 10 -14 11 -22 3 -36 -9 -14 -7 -29 10 -69 12 -27 25 -79 29
-113 5 -47 13 -72 33 -98 20 -25 35 -69 55 -155 15 -66 32 -126 38 -133 5 -7
7 -29 4 -49 -5 -28 -3 -33 5 -25 21 21 25 14 31 -47 3 -33 12 -70 21 -83 18
-26 22 -123 6 -177 -7 -27 -5 -48 13 -105 22 -68 23 -83 20 -331 -2 -153 -7
-263 -13 -269 -6 -6 -10 -17 -10 -26 0 -23 -60 -77 -95 -86 -16 -4 -37 -12
-45 -19 -28 -22 -83 -39 -121 -36 -25 1 -40 -3 -46 -14 -11 -19 -83 -33 -83
-16 0 6 -7 11 -15 11 -8 0 -15 -8 -15 -19 0 -19 -82 -76 -126 -87 -13 -3 -33
-18 -45 -32 -17 -22 -23 -24 -40 -14 -17 11 -19 9 -19 -12 0 -13 -15 -40 -32
-60 -18 -20 -46 -54 -62 -76 -17 -22 -33 -40 -37 -40 -5 0 -29 -40 -55 -90
-25 -49 -50 -90 -55 -90 -5 0 -9 -7 -9 -15 0 -8 -9 -23 -20 -32 -11 -10 -20
-23 -20 -31 0 -8 -7 -11 -18 -8 -16 5 -19 1 -18 -31 1 -20 7 -38 14 -41 7 -2
12 1 12 6 0 5 11 22 25 38 34 39 34 38 88 125 26 42 54 82 62 89 8 7 15 21 15
32 0 10 7 21 15 25 9 3 23 20 32 37 15 30 94 112 159 166 31 25 49 35 164 88
130 60 135 62 188 55 47 -5 54 -3 94 28 49 39 74 55 103 68 11 5 29 19 40 31
18 20 20 37 21 184 1 88 2 168 3 176 0 8 -2 34 -5 58 -5 33 -2 48 12 63 15 16
15 23 5 43 -11 19 -11 30 0 59 10 29 10 39 0 51 -44 53 -67 156 -40 183 6 6
20 30 30 52 l18 41 -40 52 c-25 34 -38 60 -35 72 6 22 -10 57 -30 69 -9 5 -14
26 -14 55 -1 26 -7 58 -15 72 -8 14 -14 42 -15 63 0 22 -6 51 -14 65 -16 33
-35 85 -46 132 -5 19 -14 36 -19 38 -6 2 -11 12 -11 22 0 11 -7 34 -14 52 -8
18 -18 54 -21 80 -3 26 -10 50 -16 53 -5 4 -9 44 -9 91 0 66 -3 86 -15 90 -12
5 -15 28 -15 119 0 88 -3 115 -15 125 -8 7 -15 20 -15 29 0 9 -7 25 -15 35
-17 22 -20 92 -5 101 6 3 10 19 10 35 0 16 -4 32 -10 35 -5 3 -10 18 -10 32 0
15 -7 35 -16 44 -15 17 -15 20 0 43 20 31 20 50 1 66 -8 7 -18 34 -21 61 -7
53 -17 61 -34 29z"/>
<path d="M11459 6613 c-1 -21 -1 -55 0 -75 2 -27 -2 -40 -13 -44 -12 -5 -16
-20 -16 -59 0 -42 -8 -69 -35 -121 -37 -70 -39 -94 -8 -94 10 0 29 -9 43 -20
33 -25 34 -25 87 10 31 21 56 30 85 30 25 0 49 7 60 17 13 12 36 17 71 17 45
0 57 -5 86 -32 24 -23 43 -32 67 -32 22 0 37 -6 40 -15 4 -10 21 -15 55 -15
46 0 49 -2 68 -39 23 -44 44 -56 61 -35 17 19 33 18 80 -6 48 -24 94 -88 84
-116 -12 -32 -36 -54 -82 -74 -24 -11 -42 -23 -40 -27 2 -5 10 -21 17 -38 7
-16 18 -40 24 -52 6 -13 38 -36 74 -54 35 -17 71 -42 80 -55 14 -22 20 -24 63
-18 45 6 49 4 66 -22 23 -36 35 -45 54 -39 37 11 64 -50 50 -110 -13 -53 -13
-132 0 -140 16 -10 12 -53 -7 -75 -14 -16 -30 -20 -79 -20 -55 0 -62 -2 -72
-24 -8 -19 -23 -27 -67 -36 -55 -11 -57 -13 -53 -40 3 -20 -9 -55 -37 -112
-42 -83 -61 -101 -117 -113 -17 -3 -29 -14 -36 -33 -17 -48 -61 -93 -90 -90
-20 2 -27 -2 -32 -22 -5 -21 -12 -25 -42 -25 -24 0 -45 -8 -60 -23 -31 -28
-119 -34 -147 -8 -22 20 -41 20 -67 1 -30 -23 -107 -19 -130 6 -15 17 -26 20
-61 14 -35 -5 -45 -3 -59 14 -19 22 -44 87 -44 116 0 15 -11 24 -40 33 -22 6
-49 12 -60 12 -12 0 -30 5 -41 10 -15 9 -24 6 -45 -15 -29 -29 -91 -34 -138
-10 -48 25 -61 19 -85 -36 -25 -61 -25 -67 -6 -106 20 -41 7 -73 -39 -98 -22
-12 -39 -30 -43 -45 -3 -14 -13 -33 -22 -43 -14 -17 -14 -20 9 -38 14 -10 28
-19 33 -19 10 0 43 -34 55 -57 6 -10 13 -40 17 -66 10 -63 67 -113 135 -119
52 -4 66 13 23 26 -20 6 -34 20 -42 40 l-12 31 -17 -23 c-19 -24 -32 -20 -32
10 0 10 -7 30 -16 43 -9 14 -14 34 -11 45 3 11 2 20 -3 20 -4 0 -11 12 -15 28
-3 15 -15 36 -25 47 -26 28 -37 75 -17 75 26 0 55 78 59 157 2 40 7 75 11 79
7 8 159 6 185 -2 15 -5 15 -4 0 6 -32 20 -19 29 42 27 59 -1 60 -2 60 -29 0
-22 7 -31 34 -42 22 -9 40 -27 51 -50 10 -20 27 -42 39 -48 11 -6 24 -16 28
-22 5 -8 11 -7 20 2 17 17 68 16 68 -2 0 -9 10 -13 28 -12 15 0 80 -3 145 -7
78 -6 122 -5 130 2 8 6 18 6 27 1 9 -6 23 -1 43 16 16 13 39 24 52 24 13 0 28
6 32 13 4 7 32 23 61 36 35 17 52 30 52 43 0 11 11 23 26 28 20 8 24 15 19 31
-5 16 -3 20 12 18 30 -5 79 28 93 61 10 23 17 29 32 24 17 -5 19 -2 13 30 -5
26 -3 40 9 51 9 9 16 22 16 30 0 7 7 15 15 19 8 3 15 15 15 26 0 25 26 37 50
22 25 -15 33 -2 14 19 -16 17 -16 19 0 25 10 4 25 -1 36 -11 17 -15 22 -16 36
-4 19 16 50 34 82 48 12 6 22 17 22 25 0 7 7 16 15 20 10 3 14 18 13 43 0 21
2 56 5 78 6 37 6 38 -5 13 -7 -16 -15 -28 -20 -28 -13 0 -9 55 7 87 21 42 8
101 -32 146 -18 21 -38 37 -46 37 -7 0 -28 11 -47 25 -19 14 -46 25 -60 25
-14 0 -35 7 -47 15 -14 10 -24 12 -28 5 -12 -19 -27 -10 -23 14 4 22 2 24 -26
19 -27 -4 -33 -1 -44 26 -8 17 -21 38 -29 46 -15 16 -13 20 50 95 19 23 12
116 -12 146 -28 36 -88 74 -116 74 -14 0 -25 5 -25 12 0 6 -7 3 -15 -8 -14
-18 -16 -18 -29 -1 -7 9 -17 17 -22 17 -5 0 -20 12 -33 25 -16 18 -30 24 -43
19 -24 -7 -177 65 -177 84 -1 15 -53 16 -68 1 -7 -7 -13 -7 -17 -1 -3 6 -2 13
4 17 16 10 11 25 -9 25 -20 0 -65 -38 -73 -61 -4 -12 -7 -12 -21 -1 -18 15
-92 8 -114 -10 -7 -6 -20 -7 -29 -4 -9 4 -23 1 -31 -6 -23 -18 -36 11 -18 39
17 25 48 211 49 292 1 35 -3 56 -11 58 -9 3 -13 -8 -14 -34z"/>
<path d="M6145 6380 c-6 -11 0 -239 7 -245 4 -4 62 -8 130 -8 l122 -2 1 130 0
130 -128 0 c-71 0 -130 -2 -132 -5z m158 -68 c10 -4 24 -20 32 -36 13 -24 13
-31 0 -57 -9 -16 -27 -32 -41 -35 -33 -9 -74 11 -74 35 0 10 -3 33 -6 50 -5
26 -3 32 17 40 28 11 48 12 72 3z"/>
<path d="M7315 6365 c-5 -2 -22 -6 -37 -9 -20 -5 -30 -15 -36 -39 -12 -44 4
-74 50 -98 21 -11 38 -26 38 -33 0 -17 -27 -28 -49 -21 -25 7 -44 -10 -36 -34
5 -17 14 -21 49 -21 43 0 75 22 89 61 10 28 -23 77 -59 89 -23 8 -34 18 -34
31 0 18 6 20 55 23 23 1 33 35 13 47 -13 9 -25 10 -43 4z"/>
<path d="M7539 6339 c-16 -17 -29 -35 -29 -40 0 -5 -9 -9 -19 -9 -15 0 -19 7
-17 33 1 26 -3 33 -21 35 -27 4 -26 9 -23 -128 2 -111 9 -132 35 -110 12 10
15 23 10 47 -10 53 19 39 68 -31 11 -16 27 -26 43 -26 44 0 40 28 -10 79 -25
26 -46 51 -46 57 0 6 18 27 40 47 44 39 54 77 19 77 -12 0 -34 -14 -50 -31z"/>
<path d="M6588 6253 c-4 -111 2 -143 27 -143 23 0 33 32 28 84 -5 43 -4 48 13
44 14 -2 21 -15 26 -51 15 -108 63 -102 87 11 16 77 35 70 36 -14 1 -54 15
-78 40 -71 6 2 10 52 10 123 0 107 -2 119 -18 122 -32 6 -67 -7 -67 -26 -1
-25 -37 -127 -46 -127 -6 0 -30 67 -50 143 -2 7 -20 12 -43 12 l-39 0 -4 -107z"/>
<path d="M6915 6352 c-5 -4 -11 -55 -12 -114 -2 -97 -1 -109 17 -118 10 -5 21
-7 24 -2 2 4 6 55 7 113 3 119 -5 144 -36 121z"/>
<path d="M7007 6353 c-9 -14 -11 -196 -3 -220 19 -58 49 -4 40 72 -6 47 -4 55
10 55 9 0 16 -6 16 -14 0 -7 6 -19 13 -25 8 -6 19 -29 26 -51 13 -42 52 -73
71 -54 10 10 17 230 7 240 -3 3 -15 3 -28 -1 -20 -7 -21 -11 -15 -73 7 -65 7
-65 -15 -51 -12 8 -31 39 -43 69 -18 45 -27 56 -48 58 -14 2 -28 -1 -31 -5z"/>
<path d="M11248 6224 c-13 -19 22 -89 55 -111 20 -14 61 -26 105 -33 64 -9 78
-8 115 9 66 29 108 40 167 42 80 2 90 1 90 -16 0 -21 39 -40 53 -26 16 16 54
13 61 -4 3 -8 15 -15 26 -15 22 0 110 -67 110 -84 0 -5 8 -15 18 -23 16 -13
16 -14 -5 -29 -29 -21 -29 -29 3 -62 23 -25 25 -33 21 -97 -2 -38 -2 -55 0
-37 5 34 33 46 33 13 0 -11 16 -39 35 -63 19 -23 43 -53 52 -65 l18 -23 18 23
c13 15 20 18 24 10 9 -23 140 -147 164 -155 19 -7 31 -65 18 -90 -5 -10 -15
-15 -22 -12 -7 2 -28 -7 -47 -21 -40 -29 -103 -49 -130 -40 -20 6 -63 -23 -54
-36 3 -5 18 -6 34 -2 17 3 51 0 75 -7 40 -11 48 -11 64 4 11 10 17 25 14 35
-4 16 4 20 64 26 l68 7 1 94 c2 90 1 94 -20 94 -11 0 -28 -4 -36 -9 -19 -13
-44 22 -34 51 6 19 4 20 -25 15 -39 -8 -60 0 -71 28 -8 21 -77 65 -103 65 -18
0 -77 56 -77 73 0 8 -7 20 -15 27 -8 7 -15 22 -15 34 0 12 -7 31 -15 42 -8 10
-15 27 -15 38 0 23 42 64 75 72 39 10 51 31 30 54 -21 23 -42 25 -64 6 -10 -9
-29 -12 -50 -9 -27 5 -36 13 -48 42 -18 43 -31 53 -59 46 -13 -3 -32 3 -47 15
-30 24 -65 26 -73 5 -9 -23 -27 -18 -21 6 4 16 -1 23 -23 30 -16 6 -31 17 -34
25 -7 18 -36 18 -63 -1 -12 -8 -43 -18 -70 -22 -28 -4 -64 -18 -87 -35 -21
-15 -50 -28 -63 -28 -25 0 -73 26 -86 47 -11 17 -32 16 -47 -2 -17 -20 -39
-19 -47 3 -3 9 -12 24 -18 32 -7 8 -15 24 -17 35 -2 12 -6 16 -10 9z"/>
<path d="M12076 6221 c-3 -5 1 -14 8 -20 16 -13 32 2 21 19 -8 12 -22 13 -29
1z"/>
<path d="M12287 5804 c-9 -10 2 -24 18 -24 9 0 12 6 9 15 -6 16 -17 19 -27 9z"/>
<path d="M3303 5594 c-24 -10 -14 -42 17 -53 l30 -10 -2 -183 -3 -183 -27 -13
c-29 -14 -37 -37 -15 -44 6 -2 71 -2 143 1 123 6 133 8 166 33 79 60 77 169
-3 205 -45 21 -49 36 -15 58 47 31 53 98 13 142 -30 33 -76 45 -169 42 -46 -1
-92 0 -103 4 -11 3 -26 4 -32 1z m226 -80 c12 -15 21 -37 21 -49 0 -30 -34
-71 -66 -79 -42 -11 -52 6 -49 82 2 37 3 68 4 70 1 1 16 2 35 2 25 0 40 -7 55
-26z m-16 -174 c56 -25 76 -68 57 -124 -18 -54 -91 -87 -117 -53 -15 18 -24
157 -12 179 12 23 16 23 72 -2z"/>
<path d="M4335 5581 c-7 -25 1 -41 20 -41 8 0 19 -9 25 -19 11 -22 14 -330 2
-347 -4 -6 -17 -16 -29 -23 -25 -13 -31 -46 -10 -54 6 -2 20 0 30 5 9 5 83 7
163 5 154 -4 174 1 174 43 0 10 5 22 10 25 6 3 10 20 10 36 0 26 -3 30 -22 27
-12 -2 -27 -13 -33 -24 -22 -44 -36 -53 -102 -60 -86 -9 -96 1 -101 100 -5 85
1 90 79 80 41 -5 50 -11 55 -30 4 -15 14 -24 25 -24 17 0 19 8 19 69 0 48 -4
72 -15 81 -12 10 -17 7 -26 -14 -13 -27 -52 -40 -105 -34 -27 3 -29 6 -32 54
-2 27 2 62 7 77 10 24 15 27 61 27 63 0 85 -11 98 -50 12 -32 32 -39 51 -17 8
10 7 27 -5 66 l-15 53 -137 -3 c-75 -2 -149 0 -164 4 -22 7 -27 5 -33 -12z"/>
<path d="M5366 5591 c-10 -15 10 -49 34 -56 19 -6 20 -15 20 -190 l0 -183 -30
-11 c-31 -10 -38 -25 -20 -36 15 -9 324 -15 337 -7 6 4 20 28 32 55 17 37 19
52 11 67 -14 25 -30 17 -62 -30 -20 -29 -32 -36 -76 -44 -36 -6 -61 -5 -78 2
l-24 12 2 177 3 178 28 13 c19 9 27 21 27 38 0 25 -2 25 -42 18 -52 -10 -83
-10 -124 0 -20 5 -34 4 -38 -3z"/>
<path d="M6547 5588 c-9 -7 -26 -38 -36 -68 -11 -30 -31 -79 -45 -107 -14 -29
-26 -58 -26 -64 0 -6 -6 -23 -14 -37 -8 -15 -26 -53 -40 -84 -16 -39 -34 -62
-51 -70 -18 -8 -25 -18 -23 -32 3 -19 10 -21 78 -21 72 0 100 7 100 26 0 5
-11 14 -25 19 -29 11 -32 33 -9 89 17 43 27 49 91 53 49 2 68 -11 76 -55 4
-17 9 -42 13 -54 5 -18 1 -25 -21 -33 -49 -19 -23 -35 66 -40 82 -6 119 1 119
21 0 5 -11 14 -25 19 -16 6 -33 27 -46 57 -12 27 -25 55 -28 63 -4 8 -18 49
-30 90 -12 41 -29 90 -37 108 -8 18 -14 45 -14 60 0 31 -25 72 -44 72 -7 0
-20 -6 -29 -12z m27 -177 c25 -76 23 -81 -29 -81 -40 0 -45 2 -45 23 0 28 36
107 48 107 5 0 17 -22 26 -49z"/>
<path d="M7393 5594 c-21 -9 -15 -28 17 -56 l30 -26 0 -164 c0 -89 -4 -168 -8
-174 -4 -6 -17 -16 -29 -23 -13 -6 -23 -20 -23 -29 0 -15 11 -17 98 -16 88 2
97 4 100 22 2 13 -4 21 -17 25 -28 7 -42 50 -39 116 3 49 6 56 25 59 24 3 56
-39 119 -156 30 -56 40 -61 114 -65 38 -2 45 1 48 18 2 13 -7 25 -26 36 -31
18 -142 158 -142 180 0 8 17 28 37 46 36 29 38 34 37 86 0 60 -11 80 -58 104
-29 16 -54 17 -191 11 -11 0 -33 2 -50 5 -16 3 -36 4 -42 1z m236 -82 c50 -55
2 -152 -75 -152 l-34 0 0 78 c0 42 4 82 8 88 20 31 66 25 101 -14z"/>
<path d="M8422 5581 c-3 -8 8 -25 26 -40 l32 -26 0 -160 0 -161 30 -32 c92
-101 262 -92 335 18 29 43 29 48 33 197 4 147 5 153 28 168 13 8 24 24 24 35
0 18 -7 20 -80 20 -66 0 -82 -3 -87 -16 -4 -11 3 -23 20 -36 l27 -20 0 -149 0
-149 -34 -38 c-32 -34 -39 -37 -90 -37 -47 0 -59 4 -85 29 l-31 30 0 156 0
156 31 23 c49 36 34 46 -75 46 -77 1 -99 -2 -104 -14z"/>
<path d="M9637 5575 c-51 -36 -71 -76 -62 -133 8 -52 31 -78 123 -138 68 -45
72 -50 72 -91 0 -89 -156 -83 -173 7 -5 24 -12 30 -31 30 -32 0 -40 -15 -28
-48 6 -15 13 -39 16 -54 5 -20 16 -30 53 -42 97 -33 188 -6 230 69 45 80 22
144 -76 207 -116 74 -135 104 -91 148 40 40 112 17 133 -42 8 -21 45 -24 53
-4 9 23 -15 95 -36 106 -10 5 -47 10 -82 10 -51 0 -70 -5 -101 -25z"/>
<path d="M12154 5216 c-3 -8 -1 -23 5 -35 18 -32 13 -51 -16 -62 -27 -10 -28
-11 -8 -25 17 -13 18 -16 5 -24 -8 -5 -20 -10 -26 -10 -16 0 -114 -100 -114
-117 0 -17 -46 -36 -70 -28 -9 3 -24 -3 -35 -15 -10 -11 -23 -20 -29 -20 -6 0
-17 -9 -24 -20 -7 -11 -19 -20 -27 -20 -8 0 -15 9 -15 20 0 24 -22 26 -44 5
-19 -19 -80 -19 -96 0 -10 12 -16 13 -27 4 -27 -23 -158 55 -176 105 -11 31
-79 56 -170 61 -24 2 -43 10 -52 21 -13 19 -14 19 -51 -1 -30 -16 -57 -20
-128 -20 -85 0 -94 -2 -128 -29 -39 -29 -62 -65 -73 -115 -3 -16 -13 -35 -21
-42 -18 -15 -18 -39 2 -53 21 -16 8 -46 -19 -43 -16 1 -23 -4 -25 -20 -2 -12
-10 -27 -18 -33 -8 -7 -14 -27 -14 -45 0 -18 -7 -38 -15 -45 -8 -7 -15 -16
-15 -21 0 -15 19 -10 40 11 11 11 24 20 30 20 5 0 12 17 16 38 8 44 20 61 52
73 18 7 22 14 17 27 -23 52 -17 88 33 190 27 56 104 80 148 47 27 -21 60 -18
95 7 30 22 30 22 113 5 46 -9 97 -17 112 -17 23 0 34 -8 52 -40 13 -23 22 -56
22 -81 0 -39 2 -41 24 -35 13 3 31 8 39 12 9 3 28 -7 47 -26 35 -34 60 -33 93
1 23 24 62 24 79 1 28 -39 108 -37 127 4 6 14 19 24 30 24 11 0 25 9 31 20 8
15 21 20 54 20 39 0 45 3 56 30 7 17 16 30 20 30 5 0 11 14 15 30 6 26 11 30
39 30 35 0 69 28 81 68 3 12 11 22 16 22 15 0 11 70 -5 76 -8 3 -17 16 -20 30
-7 27 -24 32 -32 10z"/>
<path d="M11032 4834 c4 -21 22 -23 26 -1 2 10 -3 17 -13 17 -10 0 -15 -6 -13
-16z"/>
<path d="M10730 4545 c0 -8 9 -19 20 -25 11 -6 20 -17 20 -25 0 -8 9 -15 19
-15 13 0 21 -9 26 -29 3 -16 17 -39 31 -51 13 -13 24 -31 24 -40 0 -9 7 -25
15 -35 8 -11 28 -37 45 -59 16 -21 30 -43 30 -47 0 -5 8 -9 19 -9 10 0 24 -7
31 -15 7 -8 28 -15 48 -15 35 0 35 0 16 -21 -16 -17 -16 -22 -4 -29 8 -6 18
-10 23 -10 4 0 7 -16 7 -35 0 -22 6 -38 15 -41 23 -9 18 -27 -20 -69 -37 -42
-39 -53 -7 -36 12 6 30 11 41 11 59 0 66 127 10 184 -16 17 -29 40 -29 53 0
19 -5 23 -28 23 -68 0 -182 118 -182 188 0 32 -6 44 -37 70 -64 53 -133 93
-133 77z"/>
<path d="M11030 4444 c0 -9 5 -14 12 -12 18 6 21 28 4 28 -9 0 -16 -7 -16 -16z"/>
<path d="M505 4353 c-72 -37 -87 -109 -34 -162 52 -53 135 -34 164 37 15 33
14 40 0 73 -11 23 -30 42 -51 53 -42 19 -41 19 -79 -1z m77 -58 c14 -19 8 -54
-14 -80 -22 -24 -24 -25 -45 -10 -32 22 -32 87 -1 109 22 16 39 10 60 -19z"/>
<path d="M265 4350 c-9 -14 -12 -168 -4 -182 3 -5 17 -8 30 -6 20 2 24 9 27
46 3 37 6 42 27 42 38 0 62 64 33 88 -21 16 -105 26 -113 12z m75 -55 c0 -8
-4 -15 -10 -15 -5 0 -10 7 -10 15 0 8 5 15 10 15 6 0 10 -7 10 -15z"/>
<path d="M716 4352 c-10 -16 -5 -166 6 -179 6 -7 32 -13 59 -13 47 0 69 15 69
49 0 16 -31 13 -51 -5 -17 -15 -18 -14 -24 20 -4 20 -4 52 -1 72 5 22 3 41 -5
50 -12 15 -45 19 -53 6z"/>
<path d="M1125 4350 c-3 -5 -3 -31 1 -58 4 -31 2 -57 -5 -71 -16 -29 -5 -61
21 -61 18 0 20 5 16 44 -8 64 6 79 38 41 70 -83 78 -88 89 -56 9 30 -5 70 -27
77 -11 3 -39 26 -62 50 -43 44 -60 52 -71 34z"/>
<path d="M1250 4333 c0 -45 13 -57 35 -33 21 23 12 52 -19 58 -12 3 -16 -4
-16 -25z"/>
<path d="M1420 4352 c-19 -2 -38 -7 -43 -11 -4 -4 -3 -29 2 -56 6 -30 5 -58
-1 -74 -7 -20 -6 -28 8 -38 49 -36 150 3 167 64 23 79 -31 127 -133 115z m49
-31 c39 -39 42 -56 18 -92 -12 -18 -27 -34 -33 -36 -20 -7 -31 73 -18 125 8
27 9 27 33 3z"/>
<path d="M944 4323 c-4 -15 -18 -49 -31 -74 -28 -52 -27 -84 1 -84 13 0 23 11
31 35 14 43 26 44 40 5 5 -16 14 -33 20 -37 35 -26 56 22 31 71 -9 17 -20 47
-24 68 -6 31 -13 39 -35 41 -22 3 -27 -2 -33 -25z"/>
<path d="M11185 4224 c4 -32 15 -53 33 -69 23 -20 26 -30 30 -112 4 -87 4 -90
-24 -120 -16 -16 -38 -33 -49 -37 -19 -7 -18 -9 13 -35 17 -15 32 -32 32 -37
0 -31 42 -91 76 -109 43 -23 72 -78 54 -100 -6 -8 -26 -15 -43 -17 -36 -3 -50
-34 -24 -52 22 -17 29 -68 16 -120 -11 -45 -10 -48 15 -75 22 -23 26 -36 26
-83 0 -37 -5 -60 -15 -68 -22 -18 -18 -48 10 -75 19 -20 34 -25 76 -25 l51 0
-7 -74 -7 -75 39 -24 c55 -35 77 -64 78 -100 0 -29 3 -32 29 -30 34 3 91 -29
108 -60 7 -12 13 -35 14 -50 3 -42 17 -51 43 -28 29 26 101 36 142 22 27 -9
36 -8 57 6 55 40 78 53 91 53 7 0 31 14 52 31 48 38 80 96 68 124 -4 11 -8 43
-8 72 -1 45 3 54 29 76 32 28 41 71 15 81 -8 3 -15 17 -15 31 0 16 -6 25 -15
25 -11 0 -15 -12 -15 -50 0 -28 -7 -67 -15 -88 -9 -20 -16 -68 -17 -108 0 -68
-2 -73 -25 -79 -21 -5 -24 -10 -19 -31 7 -26 6 -26 -36 -19 -38 7 -41 6 -29
-8 15 -19 7 -37 -19 -37 -10 0 -20 -5 -22 -10 -2 -6 -29 -15 -61 -22 -52 -11
-61 -10 -94 7 -27 15 -37 17 -41 7 -6 -18 -42 -15 -49 6 -9 23 -67 82 -81 82
-15 0 -52 31 -52 44 0 5 -25 35 -55 67 -30 32 -55 66 -55 76 0 10 -5 34 -10
55 -8 27 -18 39 -42 47 -25 9 -28 13 -18 25 6 9 9 20 5 26 -10 16 -32 12 -39
-7 -10 -24 -27 -3 -20 24 4 12 15 25 25 28 13 4 19 15 19 33 -1 25 -2 25 -14
10 -19 -26 -26 -22 -26 12 0 20 5 30 15 30 20 0 19 14 -2 31 -9 8 -22 28 -30
46 -15 38 -18 179 -3 188 6 3 10 16 10 27 0 11 8 27 18 34 16 12 16 15 -3 50
-11 21 -37 58 -57 82 -21 24 -38 47 -38 53 0 5 -6 9 -14 9 -10 0 -13 15 -12
55 0 38 4 55 13 55 14 0 16 21 13 145 -1 58 -6 82 -17 88 -10 6 -12 18 -8 40
6 26 5 30 -6 20 -21 -21 -29 -15 -29 22 0 29 -4 35 -21 35 -20 0 -21 -4 -14
-46z"/>
<path d="M11035 3909 c-12 -18 3 -53 41 -91 22 -24 34 -44 30 -53 -3 -9 1 -18
10 -22 21 -8 34 -44 22 -66 -6 -12 -3 -23 12 -39 23 -25 26 -48 6 -48 -13 0
-30 -39 -21 -48 7 -8 35 20 35 34 0 8 7 14 15 14 9 0 18 8 21 18 3 9 10 27 16
39 9 18 6 26 -19 50 -17 15 -38 48 -47 73 -10 28 -28 53 -46 65 -17 11 -36 35
-42 53 -12 33 -22 40 -33 21z"/>
<path d="M11170 3514 c0 -3 7 -31 16 -62 12 -41 14 -63 7 -87 -8 -24 -7 -36 4
-51 11 -15 12 -37 6 -99 -4 -44 -7 -90 -6 -101 1 -25 76 -104 98 -104 11 0 14
-7 9 -24 -4 -17 0 -28 13 -37 10 -8 27 -33 37 -57 17 -36 17 -46 6 -67 -14
-27 -33 -35 -24 -10 5 11 -1 15 -24 15 -17 0 -34 -4 -37 -10 -3 -6 -52 -10
-110 -10 -63 0 -106 -4 -110 -11 -4 -6 -21 -10 -39 -9 -52 3 -55 2 -100 -42
-40 -40 -47 -43 -97 -42 -30 0 -62 5 -73 9 -10 4 -53 3 -95 -4 -42 -6 -90 -11
-108 -11 -18 0 -54 -11 -80 -25 -49 -26 -72 -59 -73 -106 0 -14 -11 -43 -25
-63 -36 -53 -55 -93 -48 -100 4 -3 21 -6 40 -6 30 0 33 3 33 29 0 28 17 55 40
63 7 2 7 14 -1 36 -13 38 -6 60 36 110 25 30 31 32 93 32 40 0 79 6 96 15 15
8 35 15 44 15 23 0 103 -41 132 -67 32 -30 50 -29 50 1 0 14 5 28 10 31 6 3
10 14 10 23 0 9 17 28 38 41 48 32 133 39 362 31 96 -4 181 -4 188 -2 6 2 12
17 12 33 0 28 -17 43 -94 85 -25 13 -38 58 -31 107 5 35 4 37 -23 37 -19 0
-38 10 -55 30 -15 17 -31 30 -36 30 -4 0 -16 15 -26 33 -18 33 -17 34 9 86 31
63 32 72 6 94 -17 14 -20 29 -20 108 0 76 -3 94 -17 105 -19 14 -43 18 -43 8z"/>
<path d="M13248 3478 c16 -16 15 -28 -2 -28 -8 0 -21 -6 -28 -13 -7 -7 -25
-20 -40 -30 -16 -10 -28 -24 -28 -32 0 -8 -7 -15 -16 -15 -9 0 -33 -13 -54
-30 -21 -16 -41 -30 -45 -30 -5 0 -28 -16 -51 -36 -30 -23 -50 -33 -63 -29
-10 3 -24 -1 -31 -10 -10 -12 -37 -15 -131 -15 -114 0 -120 1 -167 30 -27 17
-57 30 -67 30 -10 0 -24 8 -31 18 -10 14 -25 17 -81 15 -38 -2 -78 2 -91 9
-18 9 -29 8 -57 -5 -20 -9 -47 -17 -60 -17 -19 0 -25 -5 -25 -22 0 -12 -7 -30
-17 -40 -18 -20 -12 -34 12 -25 8 4 15 14 15 24 0 21 73 60 104 55 12 -2 31
-10 43 -18 26 -16 59 -18 68 -4 3 6 14 10 24 10 17 0 138 -57 164 -78 30 -23
115 -45 150 -38 21 4 37 11 37 16 0 6 27 10 59 10 43 0 60 -4 65 -15 10 -26
28 -17 87 43 72 73 84 82 108 82 11 0 25 9 31 20 6 11 19 20 29 20 20 0 51 39
51 64 0 23 72 39 118 27 20 -6 67 -8 104 -4 59 5 68 9 68 26 0 18 -4 19 -67
11 -94 -11 -108 -9 -141 15 -33 23 -65 30 -44 9z"/>
<path d="M755 3340 c-3 -5 3 -10 14 -10 12 0 21 5 21 10 0 6 -6 10 -14 10 -8
0 -18 -4 -21 -10z"/>
<path d="M900 3263 c-35 -49 -63 -97 -62 -108 1 -11 2 -36 1 -56 0 -42 16 -50
82 -42 32 5 44 2 51 -11 5 -9 26 -25 46 -35 21 -11 44 -31 52 -45 15 -30 25
-33 38 -10 8 14 13 13 50 -6 36 -19 42 -27 42 -54 1 -48 30 -76 79 -76 23 0
41 -5 41 -11 0 -6 14 -32 31 -58 30 -44 38 -75 56 -209 5 -40 2 -47 -28 -79
-32 -32 -34 -38 -32 -98 1 -43 -3 -65 -11 -68 -17 -7 -29 -94 -16 -117 16 -30
-4 -97 -36 -123 -15 -12 -33 -26 -40 -32 -7 -6 -14 -42 -16 -85 -2 -50 -8 -79
-17 -86 -21 -17 -32 -132 -17 -169 7 -16 18 -43 25 -58 12 -29 31 -28 31 1 0
9 -7 30 -15 46 -8 15 -15 45 -15 66 0 32 6 42 37 66 30 22 48 28 80 27 48 -2
59 7 43 37 -9 17 -18 20 -39 15 -19 -4 -32 0 -43 12 -23 26 -21 96 3 127 10
13 19 27 19 30 0 4 9 19 20 34 24 34 37 82 21 82 -14 0 -15 67 -1 75 8 5 7 12
-1 22 -9 10 -9 17 -2 21 16 11 33 48 33 74 0 13 10 48 22 78 16 38 22 74 21
118 0 60 -26 167 -44 187 -5 5 -9 20 -9 33 0 30 -60 92 -89 92 -11 0 -22 9
-26 19 -3 11 -17 27 -31 36 -17 11 -23 22 -19 35 7 22 -10 36 -19 15 -6 -17
-32 -20 -41 -6 -3 5 2 16 10 25 19 19 11 24 -44 23 -30 0 -48 6 -56 17 -7 9
-19 14 -29 10 -9 -3 -16 -2 -16 3 0 5 -23 20 -51 33 -60 29 -71 46 -63 98 5
31 12 41 35 49 22 9 29 18 29 37 0 19 5 26 20 26 11 0 20 5 20 10 0 9 -35 50
-43 50 -2 0 -32 -39 -67 -87z"/>
<path d="M13254 3316 c-10 -20 -21 -36 -26 -36 -4 0 -24 -16 -43 -36 -25 -25
-42 -34 -56 -31 -20 5 -37 -8 -121 -91 -21 -20 -38 -40 -38 -44 0 -15 -77 -8
-90 7 -13 16 -67 20 -88 7 -18 -12 -5 -39 21 -46 42 -11 135 -6 149 8 8 7 29
17 47 21 20 4 36 16 43 30 6 12 27 30 47 39 52 24 103 54 110 64 3 5 16 14 29
21 16 9 21 18 17 32 -5 14 -2 19 13 19 10 0 27 9 37 20 13 15 22 17 29 10 8
-8 6 -15 -6 -24 -28 -20 -10 -26 25 -7 21 10 52 15 90 14 55 -2 57 -1 57 22 0
23 -4 25 -43 25 -24 0 -48 -5 -55 -12 -8 -8 -15 -8 -24 -1 -7 6 -34 14 -60 18
-47 7 -47 7 -64 -29z"/>
<path d="M12260 3175 c0 -14 9 -34 20 -45 31 -31 27 -86 -10 -120 -17 -16 -30
-38 -30 -52 0 -48 39 -128 61 -128 13 0 11 37 -1 45 -6 4 -8 16 -5 26 4 11 2
26 -4 32 -7 9 -6 20 4 37 22 39 35 70 35 84 0 8 7 19 15 26 8 7 15 18 15 25 0
19 59 27 97 13 25 -9 39 -9 51 -2 27 17 20 38 -15 45 -18 3 -40 12 -48 19 -13
10 -19 10 -35 -5 -19 -17 -22 -17 -69 4 -65 28 -81 27 -81 -4z"/>
<path d="M726 3121 c-20 -22 -21 -45 -1 -61 8 -7 15 -20 15 -30 0 -10 7 -23
15 -30 8 -7 15 -18 15 -26 0 -17 70 -37 86 -24 13 11 44 3 44 -11 0 -5 -9 -9
-20 -9 -11 0 -20 -5 -20 -10 0 -18 29 -23 53 -8 28 18 57 12 57 -11 0 -25 20
-41 51 -41 15 0 29 -7 33 -15 3 -8 11 -15 18 -15 17 0 48 -35 48 -53 0 -17 39
-53 66 -61 12 -4 38 -28 58 -53 39 -50 48 -101 21 -123 -9 -7 -13 -20 -10 -28
3 -8 2 -20 -3 -26 -22 -31 -62 -230 -62 -311 0 -48 -38 -107 -65 -99 -16 5
-17 4 -8 -6 15 -16 5 -75 -19 -118 -21 -38 -23 -61 -6 -97 10 -21 7 -33 -16
-81 -16 -33 -24 -59 -18 -63 5 -3 13 -21 17 -39 3 -18 15 -37 26 -43 22 -11
16 -31 -6 -22 -8 3 -15 1 -15 -5 0 -5 7 -12 15 -16 8 -3 15 -15 15 -26 0 -13
7 -20 19 -20 12 0 22 -9 26 -22 3 -13 10 -32 14 -43 47 -121 51 -175 16 -217
-22 -25 -25 -39 -25 -101 l0 -71 45 -42 c25 -23 45 -50 45 -62 0 -12 4 -23 9
-27 16 -9 41 -66 41 -91 0 -15 8 -25 23 -29 35 -11 77 -56 77 -84 1 -14 7 -37
15 -51 8 -14 15 -38 15 -55 0 -28 15 -65 22 -55 32 49 37 90 13 110 -8 7 -15
18 -15 25 0 7 7 15 15 19 19 7 20 46 2 46 -8 0 -33 14 -55 30 -23 17 -45 30
-50 30 -13 0 -62 116 -62 148 0 32 -29 62 -60 62 -18 0 -60 51 -60 73 0 26 35
85 63 107 15 12 27 30 26 39 -2 9 1 26 5 39 6 17 0 31 -23 58 -24 30 -27 40
-18 55 9 15 7 23 -11 42 -12 13 -22 34 -22 46 0 13 -11 32 -25 43 -17 13 -25
29 -25 51 -1 33 -32 78 -64 90 -22 9 -12 27 15 27 18 0 20 6 18 58 -1 31 5 77
14 102 8 25 17 70 20 100 4 50 8 58 52 97 l48 42 -11 40 c-13 40 -7 116 9 137
5 6 4 24 -2 42 -9 27 -8 35 10 58 12 15 21 33 21 41 0 8 11 29 25 47 29 38 30
54 10 144 -20 84 -34 102 -80 107 -45 4 -66 23 -96 86 -24 49 -33 57 -44 39
-8 -13 -45 -13 -45 0 0 17 -65 77 -91 85 -13 4 -30 12 -37 18 -8 6 -31 10 -52
8 -21 -1 -47 2 -57 8 -26 13 -67 95 -60 120 7 28 -7 35 -27 12z"/>
<path d="M12543 3123 c-7 -2 -13 -13 -13 -24 0 -15 7 -19 37 -19 20 0 44 -6
52 -14 9 -7 48 -16 86 -20 64 -5 68 -5 51 9 -11 8 -30 15 -42 15 -12 0 -52 14
-89 30 -37 17 -68 30 -68 29 -1 0 -8 -3 -14 -6z"/>
<path d="M12231 2808 c-31 -63 -90 -120 -157 -153 -68 -34 -108 -73 -92 -92
15 -19 28 -16 28 7 0 13 9 22 28 26 15 4 48 16 74 28 37 16 47 25 42 38 -4 13
0 18 14 18 33 0 102 94 102 140 0 42 -15 38 -39 -12z"/>
<path d="M11515 2697 c-14 -9 -91 -12 -268 -12 l-249 0 -24 -28 c-13 -15 -24
-38 -24 -50 0 -22 -26 -55 -65 -82 -19 -13 -19 -14 -2 -20 22 -9 97 41 97 64
0 9 11 28 25 43 20 21 37 28 92 34 75 9 74 9 321 5 l174 -3 20 -34 c11 -19 23
-34 28 -34 4 0 13 -13 20 -29 15 -38 58 -49 94 -26 16 11 35 15 50 11 31 -8
49 14 40 48 -7 31 -9 31 -42 7 -15 -10 -44 -26 -64 -34 -37 -15 -38 -15 -49 6
-7 12 -18 26 -25 30 -8 5 -14 25 -14 50 0 24 -5 48 -12 55 -16 16 -97 15 -123
-1z"/>
<path d="M10640 2600 c-19 -5 -46 -6 -60 -4 -31 7 -80 -11 -80 -29 0 -17 39
-49 54 -44 14 6 15 -56 2 -85 -9 -21 -56 -24 -74 -6 -9 9 -13 5 -18 -18 -8
-41 -46 -82 -80 -86 -26 -3 -29 -7 -34 -48 -4 -40 -9 -47 -43 -65 -20 -11 -40
-29 -43 -40 -4 -11 -20 -33 -37 -48 -26 -23 -31 -34 -30 -69 2 -28 -4 -49 -18
-66 -17 -22 -19 -35 -13 -78 8 -65 -5 -91 -51 -100 -35 -6 -35 -7 -35 -58 0
-39 -6 -61 -26 -89 -20 -30 -23 -41 -14 -52 6 -8 9 -23 6 -33 -5 -15 2 -24 27
-39 31 -19 33 -24 33 -71 -1 -36 4 -56 18 -71 15 -16 18 -30 13 -67 -4 -37 0
-56 20 -93 13 -25 28 -50 34 -56 5 -5 9 -27 10 -50 0 -22 4 -49 9 -60 7 -19 8
-18 15 6 11 44 -1 132 -23 169 -16 25 -20 44 -16 67 4 23 -1 45 -19 80 -14 26
-28 67 -31 90 -4 24 -15 58 -25 77 -11 19 -17 37 -14 40 3 3 7 24 8 48 2 24
10 57 19 73 9 17 16 33 16 37 0 4 13 21 30 39 21 24 26 36 19 45 -7 9 -6 22 6
43 8 17 13 41 10 54 -4 15 -1 28 9 36 9 8 16 29 16 49 0 27 8 43 36 70 19 19
33 40 30 47 -3 8 2 11 15 8 10 -3 26 -2 35 1 14 5 14 9 3 22 -12 14 -11 19 9
32 12 8 22 22 22 32 0 10 17 33 38 52 21 19 42 42 45 51 8 21 23 22 31 2 8
-22 24 -18 32 7 3 12 10 26 15 32 5 6 18 22 29 35 11 13 20 36 20 50 1 26 37
69 76 89 16 8 27 7 50 -9 16 -10 42 -19 58 -19 16 0 37 -7 45 -14 12 -11 21
-12 31 -5 13 9 12 12 -3 22 -126 82 -133 84 -207 67z"/>
<path d="M11864 2589 c-8 -14 5 -26 37 -34 27 -7 49 10 33 25 -16 14 -63 20
-70 9z"/>
<path d="M3174 2449 c-15 -25 38 -49 108 -49 56 0 77 -6 135 -35 86 -43 161
-54 379 -55 126 0 164 3 180 15 25 19 98 19 114 0 7 -8 23 -15 36 -15 13 0 27
-6 31 -14 13 -23 147 -35 226 -21 29 6 41 3 50 -8 7 -8 23 -30 37 -47 60 -78
48 -74 204 -67 161 7 175 3 185 -60 7 -43 -3 -41 164 -27 71 5 91 4 105 -8 20
-18 91 -51 147 -69 22 -7 45 -17 52 -22 70 -51 136 -64 188 -37 50 25 199 29
231 5 10 -8 29 -15 41 -15 35 0 45 -32 38 -116 l-7 -74 56 0 c31 0 56 3 56 8
0 4 -13 19 -30 34 -16 14 -30 35 -30 46 0 36 -32 97 -67 130 l-36 32 -122 2
c-100 1 -128 -2 -149 -15 -39 -26 -32 -28 -208 60 -14 7 -36 13 -47 13 -12 0
-30 9 -41 20 -11 11 -31 20 -44 20 -14 0 -27 4 -31 9 -5 9 -59 18 -158 25 -26
2 -55 10 -65 18 -59 50 -90 60 -170 54 -42 -3 -102 -3 -132 2 -49 6 -55 10
-52 29 3 25 -17 41 -28 23 -6 -9 -19 -2 -50 26 -41 39 -43 39 -143 46 -128 9
-146 11 -178 25 -69 30 -111 35 -178 21 -75 -15 -333 -16 -396 -2 -26 6 -43
17 -50 32 -12 27 -25 29 -25 2 0 -26 0 -26 -95 19 -72 35 -82 37 -97 23 -16
-13 -23 -12 -67 7 -58 25 -58 24 -67 10z"/>
<path d="M10230 2411 c0 -6 5 -13 10 -16 18 -11 10 -36 -25 -78 -19 -22 -35
-47 -35 -54 0 -7 -4 -13 -9 -13 -5 0 -26 -25 -47 -55 -28 -42 -38 -66 -38 -98
-1 -35 -4 -42 -21 -42 -22 0 -30 -22 -15 -45 8 -13 13 -13 37 0 23 13 29 24
31 60 3 35 13 56 48 98 24 30 44 64 44 76 0 16 9 24 33 31 29 9 32 13 29 47
-3 27 1 39 15 47 17 10 17 12 -6 31 -24 21 -51 27 -51 11z"/>
<path d="M3115 2391 c-16 -4 -41 -14 -55 -21 -14 -8 -38 -15 -55 -17 -16 -1
-84 -7 -150 -12 -66 -5 -132 -13 -148 -16 -16 -5 -33 -3 -42 5 -10 9 -63 10
-203 6 -190 -5 -227 -11 -251 -40 -7 -9 -22 -16 -31 -16 -12 0 -21 -10 -25
-30 -4 -17 -15 -35 -26 -40 -10 -6 -19 -17 -19 -26 0 -8 -7 -17 -15 -20 -8 -4
-15 -19 -15 -35 0 -16 -11 -39 -26 -56 -14 -15 -28 -40 -31 -55 -6 -31 -55
-78 -82 -78 -9 0 -24 -9 -34 -20 -9 -11 -26 -20 -37 -20 -11 0 -27 -12 -37
-27 -9 -16 -29 -41 -44 -56 -23 -25 -31 -27 -68 -21 -24 4 -45 13 -48 20 -6
16 -53 19 -53 4 0 -5 9 -14 19 -20 11 -5 27 -28 37 -50 19 -42 42 -51 64 -25
7 8 18 15 25 15 12 0 46 33 105 103 18 20 44 40 59 44 14 3 49 21 77 40 40 26
58 47 78 89 14 30 26 69 26 88 0 24 10 44 38 73 20 23 56 62 80 88 l43 47 52
-8 c58 -9 107 -9 214 1 62 6 78 4 117 -14 l45 -22 46 21 c42 19 53 20 94 10
33 -8 55 -8 75 -1 15 6 51 11 79 11 30 0 60 7 71 15 11 8 27 15 37 15 9 0 22
6 29 14 6 8 23 16 36 18 14 2 25 8 25 13 0 13 -37 16 -76 6z"/>
<path d="M3200 2305 c-7 -8 -19 -15 -26 -15 -8 0 -22 -4 -32 -9 -54 -30 -92
-43 -137 -47 -27 -3 -73 -12 -101 -21 -48 -15 -53 -15 -69 0 -21 21 -74 22
-81 2 -9 -22 -110 -21 -118 1 -5 13 -18 15 -79 10 -105 -9 -145 -10 -209 -6
-53 4 -58 2 -80 -25 -13 -17 -35 -41 -49 -55 -15 -14 -29 -36 -32 -50 -31
-132 -40 -152 -79 -177 -21 -14 -38 -29 -38 -33 0 -4 -15 -15 -32 -24 -43 -21
-91 -57 -178 -133 -39 -35 -77 -63 -84 -63 -7 0 -19 -7 -26 -15 -28 -33 -119
-7 -120 35 -1 30 -35 57 -81 63 -25 3 -60 14 -77 24 -26 15 -35 16 -64 5 -19
-6 -47 -12 -62 -12 -37 0 -66 -17 -66 -38 0 -9 9 -30 20 -47 13 -19 20 -47 20
-77 0 -41 -3 -49 -27 -61 l-26 -14 27 -18 c24 -16 27 -23 21 -52 -5 -28 -1
-40 30 -77 19 -24 35 -46 35 -50 0 -3 -9 -15 -21 -27 -15 -15 -19 -28 -14 -50
5 -21 3 -29 -7 -29 -22 0 -81 -67 -75 -84 3 -8 24 -20 46 -27 23 -7 41 -18 41
-26 0 -7 7 -16 15 -19 10 -4 15 -20 15 -45 0 -38 33 -119 48 -119 4 0 24 -15
44 -33 55 -48 81 -67 90 -67 13 0 -3 -54 -20 -67 -14 -12 -14 -15 4 -35 32
-36 44 -74 44 -138 0 -54 2 -60 30 -80 26 -18 30 -28 30 -65 0 -40 5 -50 48
-93 26 -26 64 -57 85 -68 54 -27 77 -55 83 -100 9 -67 14 -84 24 -84 13 0 13
47 0 55 -5 3 -10 30 -10 60 0 59 -14 80 -62 97 -15 6 -29 14 -29 19 -1 5 -2
15 -3 22 -1 7 -11 11 -24 9 -28 -4 -54 25 -46 51 4 12 0 17 -14 17 -22 0 -34
22 -25 46 3 9 -3 23 -16 35 -11 11 -21 26 -21 34 0 8 -4 15 -10 15 -5 0 -10
23 -10 50 0 28 -7 67 -15 87 -8 19 -15 52 -15 72 0 50 -18 111 -34 111 -21 0
-106 93 -128 140 -11 25 -24 61 -27 80 -5 26 -12 36 -31 40 -17 4 -21 8 -12
14 17 10 15 46 -2 46 -20 0 -8 38 16 51 12 6 17 17 14 27 -3 10 -2 32 4 51 10
35 -9 112 -35 138 -13 13 -10 49 6 59 13 7 11 48 -2 61 -8 8 -7 21 2 47 11 29
11 41 1 56 -17 27 -15 40 6 40 9 0 30 7 46 15 35 19 61 19 78 2 7 -8 30 -17
51 -21 42 -8 45 -13 20 -33 -16 -13 -15 -14 10 -8 23 5 34 0 57 -25 23 -25 36
-30 73 -30 25 0 49 5 52 10 3 6 19 10 35 10 20 0 31 6 35 20 7 20 14 21 63 3
19 -8 14 15 -5 26 -17 10 -17 12 1 26 11 8 25 15 32 15 7 0 16 9 19 20 3 11
10 20 14 20 4 0 21 13 37 30 16 16 35 30 42 30 7 0 15 7 18 15 4 8 20 22 38
30 56 27 106 81 106 114 0 17 4 31 8 31 5 0 19 26 32 58 12 31 28 62 34 67 7
6 15 17 18 26 5 12 26 18 88 23 44 3 85 4 91 0 5 -3 32 0 59 7 43 11 57 10
103 -4 60 -19 146 -14 160 10 10 17 37 17 37 -1 0 -8 6 -16 13 -19 15 -6 112
14 123 26 4 4 26 7 50 7 23 0 61 9 85 20 24 11 54 20 65 20 12 0 27 7 34 15 8
9 30 15 59 15 25 0 52 4 60 9 15 9 53 -2 81 -25 8 -6 31 -15 50 -19 19 -4 40
-12 47 -17 16 -13 80 -17 328 -23 266 -7 244 -7 288 1 39 6 51 -7 21 -24 -19
-11 143 -27 169 -16 24 9 81 -13 107 -41 13 -14 27 -25 32 -25 5 0 30 -16 55
-35 50 -38 73 -44 73 -19 0 12 3 14 13 6 6 -5 44 -12 84 -14 63 -3 76 -7 101
-31 40 -39 125 -57 228 -50 64 5 85 2 105 -11 14 -8 50 -20 79 -26 30 -6 58
-17 63 -25 4 -8 17 -15 29 -15 12 0 35 -11 52 -24 56 -42 234 -52 257 -14 7
10 12 11 29 1 24 -16 56 -17 65 -3 7 12 45 14 45 2 0 -4 -5 -13 -12 -20 -8 -8
-8 -15 1 -26 8 -10 10 -27 6 -47 -5 -22 -3 -34 6 -40 24 -15 29 -10 29 25 0
18 5 48 11 65 8 23 8 39 1 56 -9 20 -19 23 -89 27 -63 4 -87 1 -123 -15 -53
-23 -135 -24 -160 -2 -9 8 -24 15 -32 15 -9 0 -21 7 -28 15 -7 8 -19 15 -27
15 -14 0 -97 36 -176 76 -39 19 -146 18 -186 -2 -30 -15 -35 -15 -69 1 -20 10
-44 21 -52 25 -8 4 -17 22 -20 41 l-5 34 -144 1 -144 1 -36 41 c-20 23 -43 51
-52 64 -15 21 -18 21 -70 9 -42 -10 -64 -10 -94 -2 -22 6 -53 11 -68 11 -15 0
-30 6 -33 14 -3 8 -19 18 -35 21 -16 4 -31 11 -34 16 -9 14 -53 11 -87 -7 -27
-14 -63 -16 -252 -12 -217 4 -222 5 -283 32 -35 16 -68 35 -74 42 -17 20 -162
19 -179 -1z"/>
<path d="M10031 1977 c-7 -9 -10 -25 -7 -35 4 -12 -4 -33 -21 -58 -20 -29 -27
-52 -27 -91 -1 -34 -7 -58 -19 -70 -9 -11 -17 -24 -17 -30 0 -6 -7 -24 -15
-39 -22 -42 -19 -96 5 -112 24 -15 27 -52 4 -52 -17 0 -14 -22 4 -28 7 -2 12
4 12 13 0 9 6 15 13 12 6 -2 11 -15 9 -29 -1 -16 4 -28 13 -32 11 -4 15 -22
15 -74 0 -50 4 -73 15 -82 8 -7 15 -20 15 -28 0 -9 7 -35 16 -59 l16 -42 -33
-40 c-38 -45 -45 -48 -77 -25 -15 10 -32 13 -52 9 -19 -4 -30 -3 -30 4 0 6 5
11 10 11 15 0 12 19 -6 37 -11 11 -14 26 -10 46 5 24 0 34 -24 57 -17 15 -30
34 -30 42 0 15 -74 80 -102 91 -10 3 -18 11 -18 17 0 5 -7 10 -15 10 -8 0 -19
9 -25 20 -7 13 -21 20 -40 20 -17 0 -30 5 -30 10 0 6 -12 10 -26 10 -29 0 -28
-23 1 -29 30 -5 93 -49 100 -68 7 -21 101 -98 130 -107 34 -10 48 -56 33 -110
-12 -44 -11 -47 17 -76 23 -24 37 -30 72 -30 37 0 44 -4 58 -30 16 -32 49 -55
65 -45 6 3 10 17 10 30 0 38 20 73 46 79 14 4 26 16 30 31 8 33 -22 107 -57
141 -33 31 -36 46 -14 64 16 13 21 70 6 70 -11 0 -35 59 -33 81 1 9 -10 27
-23 39 -17 16 -25 34 -25 56 0 17 -7 37 -15 44 -21 17 -19 44 5 65 11 10 20
24 20 32 0 7 5 13 10 13 6 0 10 21 10 48 0 58 16 91 57 117 38 24 41 50 10 89
-20 25 -24 26 -36 13z"/>
<path d="M1405 1890 c-10 -17 4 -30 33 -30 15 -1 38 -7 52 -15 29 -16 120 -20
120 -5 0 6 -9 10 -20 10 -10 0 -34 6 -52 14 -42 18 -101 36 -116 36 -6 0 -14
-4 -17 -10z"/>
<path d="M7078 1748 c-16 -16 -25 -19 -38 -10 -14 9 -23 2 -55 -39 -21 -27
-47 -56 -58 -64 -12 -8 -18 -17 -14 -21 3 -4 1 -16 -5 -27 -11 -21 -11 -21
-19 2 -10 25 -31 19 -27 -7 4 -23 -50 -30 -58 -8 -3 9 -15 16 -25 16 -10 0
-33 16 -51 36 -55 59 -136 56 -223 -9 -16 -13 -21 -13 -30 -1 -5 8 -32 17 -60
20 -27 4 -61 15 -75 24 -26 18 -183 45 -200 35 -18 -11 1 -27 25 -21 14 4 28
0 35 -9 8 -9 30 -15 56 -15 24 0 47 -6 51 -13 15 -23 59 -45 84 -41 14 3 38
-4 58 -16 32 -20 33 -23 28 -68 -3 -26 -17 -69 -30 -97 -18 -35 -22 -54 -15
-62 20 -25 46 -13 73 33 24 41 26 52 20 105 -8 64 -3 77 48 132 20 21 35 27
67 27 30 0 40 -4 40 -16 0 -18 49 -67 95 -95 18 -12 49 -19 79 -19 43 0 53 4
82 36 19 19 34 44 34 55 0 33 82 104 143 123 21 7 22 22 2 30 -9 3 -25 -4 -37
-16z"/>
<path d="M8094 1713 c-44 -13 -53 -20 -70 -56 -12 -28 -26 -43 -41 -45 -12 -2
-27 -10 -33 -18 -7 -8 -23 -14 -35 -14 -38 0 -181 -109 -198 -150 -4 -12 -6
-12 -6 1 -1 9 -8 22 -16 29 -12 10 -13 16 -3 27 13 17 -3 33 -35 33 -16 0 -17
-10 -14 -97 4 -114 16 -146 55 -141 23 3 28 8 30 38 7 65 123 210 169 210 6 0
16 7 24 16 10 12 27 15 72 12 l59 -3 13 39 c8 22 12 44 9 48 -3 5 0 15 6 23
14 17 172 21 213 6 25 -10 47 -55 47 -97 0 -13 12 -38 28 -56 15 -18 35 -47
45 -65 21 -39 23 -101 2 -109 -23 -9 -18 -31 13 -53 25 -17 36 -39 58 -118 6
-24 37 -13 69 24 l31 36 34 -16 c51 -26 60 -22 60 22 0 24 8 48 22 66 18 23
27 26 58 22 33 -4 38 -2 58 34 15 25 32 41 50 45 15 3 39 10 54 16 37 14 61
-2 95 -65 l28 -52 49 4 c39 2 56 9 79 32 18 18 39 29 56 29 16 0 39 9 53 19
18 15 46 21 113 24 83 5 113 17 99 39 -8 12 -74 10 -74 -3 0 -6 -14 -9 -32 -8
-47 4 -158 -11 -158 -22 0 -5 -9 -9 -20 -9 -24 0 -70 -21 -70 -32 0 -15 -15
-8 -45 19 -20 19 -42 28 -69 30 -21 2 -47 10 -56 18 -20 18 -39 19 -45 3 -5
-13 -80 -16 -92 -4 -9 8 -53 -34 -53 -50 0 -7 -10 -16 -22 -19 -48 -14 -89
-37 -95 -53 -14 -40 -35 -52 -92 -52 -76 1 -96 19 -111 99 -6 34 -9 65 -6 70
3 4 -1 17 -9 27 -8 10 -15 26 -15 35 0 9 -9 19 -20 22 -14 4 -20 14 -20 35 0
41 -12 70 -47 111 -30 35 -28 34 -163 54 -19 3 -58 -1 -86 -10z m986 -338 c0
-29 -8 -32 -26 -7 -19 24 -17 32 6 32 15 0 20 -7 20 -25z"/>
<path d="M5940 1674 c0 -25 -5 -54 -10 -65 -8 -15 -7 -19 4 -19 8 0 18 5 21
10 8 13 48 13 62 -1 17 -17 66 -6 78 17 6 12 17 29 24 38 12 14 10 16 -16 16
-16 0 -34 -5 -40 -11 -16 -16 -60 -3 -68 20 -3 10 -17 23 -30 29 -25 11 -25
11 -25 -34z"/>
<path d="M7155 1700 c-4 -6 -2 -17 4 -24 6 -7 10 -26 9 -41 -2 -19 4 -32 16
-39 46 -27 76 -59 76 -81 0 -13 4 -26 9 -29 9 -6 46 21 79 57 9 9 24 17 32 17
9 0 21 5 27 11 9 9 23 5 57 -14 35 -19 58 -25 105 -24 34 0 61 3 61 7 0 13
-24 28 -55 36 -17 4 -33 12 -37 17 -4 8 -15 7 -33 -1 -36 -16 -65 -15 -65 3 0
20 -21 19 -60 -2 -29 -17 -31 -17 -41 0 -6 9 -14 15 -20 12 -14 -9 -11 -25 6
-25 8 0 15 -4 15 -10 0 -14 -11 -13 -52 5 -24 9 -41 27 -53 51 -14 31 -60 84
-71 84 -1 0 -6 -5 -9 -10z"/>
<path d="M5735 1670 c-8 -13 12 -40 31 -40 18 0 27 -18 34 -65 3 -27 11 -41
22 -43 14 -3 17 4 16 32 -1 21 6 43 15 54 31 34 21 50 -30 54 -27 3 -55 8 -64
12 -10 4 -20 3 -24 -4z"/>
<path d="M7051 1605 c-13 -19 -29 -51 -36 -72 -7 -21 -21 -42 -31 -48 -10 -5
-24 -17 -30 -24 -9 -11 -34 -15 -96 -15 -72 0 -89 3 -113 22 -15 12 -33 22
-39 22 -6 0 -24 18 -40 40 -51 69 -75 50 -68 -54 4 -72 3 -76 -33 -135 -21
-33 -44 -66 -51 -72 -8 -6 -14 -15 -14 -20 0 -20 25 -6 71 40 37 37 49 57 49
80 0 17 10 42 24 57 l23 28 64 -21 c95 -32 123 -35 171 -23 73 19 99 32 109
57 10 26 40 31 59 8 18 -22 30 -18 30 10 0 16 6 25 15 25 10 0 15 -11 15 -35
0 -34 12 -46 25 -25 11 18 25 11 25 -13 0 -16 14 -33 44 -55 51 -37 59 -35
140 21 l49 34 36 -23 c20 -13 45 -30 56 -37 12 -9 28 -43 40 -82 12 -39 32
-81 47 -98 16 -16 26 -33 23 -37 -3 -5 5 -16 17 -24 27 -19 39 -20 36 -4 -2 6
5 14 15 16 10 2 17 -2 17 -12 0 -12 11 -16 38 -17 52 -2 65 1 81 16 22 22 4
37 -23 19 -32 -21 -73 -9 -91 27 -10 18 -20 26 -30 23 -8 -4 -15 -10 -15 -15
0 -5 -4 -9 -10 -9 -5 0 -10 6 -10 13 0 7 -9 18 -20 25 -11 7 -20 22 -20 35 0
12 -7 31 -15 41 -10 13 -15 44 -15 88 l0 68 -37 0 c-21 0 -51 9 -68 20 -45 30
-62 25 -118 -30 -68 -68 -121 -68 -133 -2 -5 28 -22 51 -66 93 -43 41 -58 61
-56 78 4 36 -15 34 -41 -4z"/>
<path d="M8142 1590 c-6 -11 -12 -28 -12 -37 -1 -10 -10 -29 -21 -43 -18 -21
-30 -24 -83 -25 -59 -1 -126 -26 -126 -47 0 -5 -11 -13 -25 -18 -53 -20 -88
-125 -65 -194 14 -45 26 -52 40 -26 8 14 8 26 -1 41 -9 17 -8 25 4 37 12 11
13 21 6 40 -12 31 3 51 24 34 19 -16 28 -4 21 24 -5 18 -2 24 11 24 9 0 26 12
38 26 19 25 25 26 78 21 32 -3 59 -2 61 1 2 4 20 23 41 41 29 27 40 32 49 23
17 -17 31 -15 25 3 -11 26 10 26 28 -1 9 -14 26 -35 37 -46 18 -18 19 -23 7
-44 -10 -20 -10 -27 0 -37 11 -9 14 -9 18 1 6 16 23 15 23 -2 0 -8 -7 -17 -16
-20 -17 -6 -16 -57 1 -62 16 -5 48 74 41 100 -3 13 -22 47 -41 75 -20 28 -38
65 -42 82 -7 35 -28 49 -75 49 -22 0 -37 -7 -46 -20z"/>
<path d="M6145 1567 c-5 -8 -18 -26 -29 -41 -15 -21 -16 -29 -6 -41 17 -21 28
-19 32 7 2 15 12 25 33 29 17 4 41 11 55 15 25 7 25 7 7 -14 -19 -21 -19 -21
18 -28 20 -3 39 -13 42 -20 3 -8 14 -14 25 -14 18 0 19 -4 14 -35 -9 -48 15
-47 44 2 31 53 37 91 14 100 -12 4 -22 0 -32 -15 -8 -12 -21 -22 -28 -22 -20
0 -17 28 4 33 12 3 8 6 -13 12 -16 4 -37 13 -45 20 -24 21 -123 29 -135 12z"/>
<path d="M5958 1530 c-2 -6 -29 -14 -61 -17 -58 -6 -58 -6 -39 -26 13 -13 25
-16 33 -11 8 5 53 9 101 10 48 0 91 3 94 7 14 13 -9 28 -35 22 -19 -4 -32 -1
-41 10 -14 17 -47 20 -52 5z"/>
<path d="M6320 1358 c0 -7 14 -34 30 -60 23 -37 37 -48 64 -53 19 -4 42 -5 53
-2 14 3 11 8 -17 21 -19 10 -45 23 -56 29 -12 6 -29 26 -39 44 -18 33 -35 43
-35 21z"/>
<path d="M9505 1351 c-11 -5 -54 -11 -96 -13 -77 -5 -119 -25 -119 -57 0 -10
-9 -12 -39 -7 -34 5 -41 3 -46 -14 -4 -11 -18 -28 -32 -37 -23 -16 -26 -16
-35 0 -11 20 -40 22 -67 5 -26 -16 -91 14 -91 43 0 38 -30 69 -66 69 -30 0
-36 -5 -54 -44 -11 -25 -20 -47 -20 -49 0 -2 24 -4 53 -3 35 0 63 -6 80 -17
15 -9 33 -17 41 -17 10 0 13 -6 10 -15 -9 -23 22 -29 59 -11 22 10 46 13 71 9
29 -4 44 -1 66 16 33 24 51 26 67 10 8 -8 16 -1 28 25 10 20 22 39 27 42 6 4
50 8 98 10 73 2 89 0 94 -13 4 -8 13 -13 21 -9 22 8 45 -4 45 -23 0 -24 52
-71 78 -71 17 0 22 -6 22 -24 0 -14 -5 -28 -10 -31 -7 -4 -5 -14 5 -28 8 -12
15 -27 15 -35 0 -7 20 -33 44 -58 24 -24 47 -51 50 -60 5 -13 14 -15 41 -10
25 5 35 3 35 -6 0 -22 93 -67 151 -74 61 -6 66 -4 124 69 31 39 36 50 25 57
-8 5 -12 10 -10 12 3 2 14 8 24 14 54 29 13 46 -49 20 -34 -15 -35 -17 -35
-70 0 -44 -4 -57 -19 -66 -28 -14 -64 -12 -87 5 -10 8 -33 15 -51 15 -27 0
-32 4 -35 28 -3 23 -8 28 -43 32 -45 6 -119 59 -132 94 -4 12 -8 48 -8 81 0
58 -1 60 -27 63 -17 2 -39 19 -62 47 -53 64 -96 105 -109 104 -7 0 -21 -4 -32
-8z"/>
<path d="M8325 1248 c4 -13 16 -36 27 -52 20 -28 20 -30 3 -43 -18 -12 -18
-13 2 -13 12 0 32 -15 47 -35 19 -24 35 -35 53 -35 25 0 25 0 -11 37 -26 27
-36 46 -36 68 0 23 -9 40 -36 63 -42 38 -58 41 -49 10z"/>
<path d="M8754 1233 c-3 -10 -10 -28 -15 -41 -5 -13 -9 -32 -9 -43 0 -12 -10
-23 -26 -29 -14 -6 -22 -14 -19 -20 9 -15 35 -12 41 5 4 10 13 13 25 10 15 -5
19 -1 19 15 0 12 9 24 24 29 15 6 25 20 30 42 7 38 9 35 -32 44 -26 5 -33 3
-38 -12z"/>
<path d="M8567 1109 c-27 -41 -27 -41 -5 -34 13 4 41 8 63 9 50 1 57 24 14 49
-17 9 -34 17 -38 17 -4 0 -20 -19 -34 -41z"/>
<path d="M4601 683 c-15 -10 -20 -21 -16 -32 4 -9 9 -35 10 -58 5 -65 13 -80
46 -92 40 -14 85 -4 103 23 7 12 16 53 17 92 4 68 4 69 -21 69 -24 0 -25 -2
-21 -58 4 -70 -17 -104 -52 -86 -17 10 -19 18 -14 75 4 54 2 66 -13 74 -12 6
-24 4 -39 -7z"/>
<path d="M5192 682 c-9 -6 -10 -21 -3 -57 6 -31 5 -56 -1 -71 -15 -31 -3 -54
26 -54 19 0 25 6 28 27 3 27 28 46 28 20 0 -22 34 -47 63 -47 25 0 39 23 20
32 -5 2 -24 20 -43 41 l-35 38 35 29 c27 22 32 32 23 41 -7 7 -22 9 -37 5 -19
-5 -26 -13 -26 -31 0 -35 -16 -31 -23 5 -7 30 -28 39 -55 22z"/>
<path d="M5768 683 c-2 -5 -4 -46 -3 -93 0 -84 1 -85 25 -85 21 0 26 6 31 35
5 30 7 32 14 15 13 -32 37 -55 56 -55 31 0 32 20 4 61 -27 37 -27 40 -11 58
14 15 15 24 7 39 -6 12 -19 23 -28 25 -31 8 -91 8 -95 0z m72 -49 c0 -16 -16
-19 -25 -4 -8 13 4 32 16 25 5 -4 9 -13 9 -21z"/>
<path d="M6377 683 c-2 -5 -10 -28 -17 -53 -8 -25 -24 -58 -37 -74 -29 -34
-26 -50 10 -54 19 -2 29 2 33 15 17 55 36 63 44 18 4 -25 10 -30 38 -33 28 -3
32 0 32 22 0 14 -4 28 -10 31 -5 3 -14 24 -21 47 -6 23 -18 52 -26 65 -15 22
-38 30 -46 16z"/>
<path d="M6889 685 c0 -3 -1 -44 -2 -92 l-1 -88 31 -3 31 -3 4 83 c2 46 2 89
0 96 -4 11 -61 18 -63 7z"/>
<path d="M7393 638 c4 -33 1 -67 -7 -90 -15 -42 -12 -48 21 -48 21 0 23 4 23
50 0 28 4 50 9 50 9 0 48 -43 66 -74 6 -10 19 -18 30 -19 18 -2 20 4 21 63 1
36 3 76 5 90 3 20 -1 26 -19 28 -26 4 -38 -18 -23 -45 6 -12 6 -24 0 -34 -8
-11 -14 -8 -32 16 -36 49 -56 65 -78 65 -20 0 -21 -4 -16 -52z"/>
<path d="M7999 688 c-7 -18 -2 -181 6 -187 5 -4 37 -5 70 -2 53 5 60 9 63 29
4 28 -26 43 -40 19 -12 -23 -35 -21 -41 2 -7 27 6 42 34 39 18 -2 24 2 24 17
0 17 -6 19 -32 17 -34 -4 -41 6 -21 26 8 8 17 8 31 1 25 -14 48 4 29 23 -10
10 -120 24 -123 16z"/>
<path d="M1480 611 c0 -11 -4 -22 -9 -26 -6 -3 -4 -17 5 -33 7 -15 14 -43 14
-62 0 -19 9 -46 20 -60 11 -14 20 -32 20 -42 0 -27 53 -121 83 -149 19 -17 25
-29 18 -33 -6 -4 -14 0 -17 8 -11 28 -34 18 -34 -13 0 -21 -6 -32 -20 -36 -11
-3 -25 -15 -30 -26 -16 -29 17 -39 39 -12 35 45 85 53 159 28 41 -15 62 -13
62 4 0 9 -77 61 -90 61 -5 0 -36 28 -69 62 -53 55 -61 68 -61 101 0 31 -7 45
-31 68 -28 26 -31 34 -26 67 3 20 3 52 -1 71 -8 38 -32 55 -32 22z"/>
<path d="M12664 286 c-19 -14 -19 -15 3 -44 18 -24 20 -32 9 -41 -8 -7 -150
-11 -434 -11 -446 -1 -481 2 -446 41 23 26 14 53 -19 57 -33 4 -45 -19 -27
-53 9 -17 11 -47 6 -105 -5 -67 -4 -81 9 -86 26 -10 45 14 34 42 -13 35 -12
42 9 48 28 9 1416 11 1430 2 17 -10 15 -26 -3 -26 -9 0 -15 -9 -15 -24 0 -28
3 -31 47 -41 29 -6 33 -4 39 20 4 15 2 36 -3 48 -6 12 -15 34 -22 50 -11 27
-11 27 -113 28 -57 0 -146 0 -198 -2 -52 -2 -115 -3 -140 -4 -25 0 -51 -4 -59
-9 -9 -6 -18 -4 -25 6 -6 8 -19 19 -29 24 -17 10 -17 12 4 37 17 22 19 30 9
42 -16 19 -41 19 -66 1z"/>
<path d="M12868 284 c-3 -2 -25 -5 -49 -7 -31 -2 -45 -8 -47 -19 -2 -13 9 -18
52 -23 60 -8 76 -3 76 25 0 17 -23 34 -32 24z"/>
<path d="M13356 91 c-25 -28 -12 -41 40 -41 44 0 45 1 42 28 -2 22 -9 28 -34
30 -20 2 -36 -4 -48 -17z"/>
<path d="M1627 93 c-14 -14 -6 -34 17 -43 13 -5 27 -18 31 -29 8 -27 35 -27
35 -1 0 25 20 26 27 1 4 -17 6 -17 28 5 13 13 29 24 35 24 5 0 10 5 10 10 0 6
-10 10 -22 10 -13 1 -34 7 -48 15 -26 15 -101 20 -113 8z"/>
<path d="M1505 49 c-12 -18 32 -49 67 -48 32 0 32 1 9 10 -14 5 -31 19 -38 29
-16 22 -29 25 -38 9z"/>
</g>
</svg>
